<svg xmlns="http://www.w3.org/2000/svg" xmlns:xlink="http://www.w3.org/1999/xlink" width="257" height="257" viewBox="0 0 257 257"><defs><circle id="logo-a" cx="128.5" cy="128.5" r="124.5"/><linearGradient id="logo-b" x1="50%" x2="50%" y1="37.732%" y2="100%"><stop offset="0%" stop-color="#FFF"/><stop offset="100%" stop-color="#FFF" stop-opacity=".211"/></linearGradient><linearGradient id="logo-f" x1="50%" x2="50%" y1="0%" y2="100%"><stop offset="0%" stop-color="#FFF"/><stop offset="100%" stop-color="#FFF"/></linearGradient><ellipse id="logo-e" cx="129" cy="162" rx="52" ry="24"/><filter id="logo-d" width="151%" height="210.4%" x="-25.5%" y="-51%" filterUnits="objectBoundingBox"><feOffset dy="2" in="SourceAlpha" result="shadowOffsetOuter1"/><feGaussianBlur in="shadowOffsetOuter1" result="shadowBlurOuter1" stdDeviation="8.5"/><feColorMatrix in="shadowBlurOuter1" values="0 0 0 0 0.339110809 0 0 0 0 0.68486926 0 0 0 0 0.6118217 0 0 0 1 0"/></filter><ellipse id="logo-h" cx="129" cy="129" rx="52" ry="24"/><filter id="logo-g" width="151%" height="210.4%" x="-25.5%" y="-51%" filterUnits="objectBoundingBox"><feOffset dy="2" in="SourceAlpha" result="shadowOffsetOuter1"/><feGaussianBlur in="shadowOffsetOuter1" result="shadowBlurOuter1" stdDeviation="8.5"/><feColorMatrix in="shadowBlurOuter1" values="0 0 0 0 0.339110809 0 0 0 0 0.68486926 0 0 0 0 0.6118217 0 0 0 1 0"/></filter><ellipse id="logo-j" cx="129" cy="96" rx="52" ry="24"/><filter id="logo-i" width="151%" height="210.4%" x="-25.5%" y="-51%" filterUnits="objectBoundingBox"><feOffset dy="2" in="SourceAlpha" result="shadowOffsetOuter1"/><feGaussianBlur in="shadowOffsetOuter1" result="shadowBlurOuter1" stdDeviation="8.5"/><feColorMatrix in="shadowBlurOuter1" values="0 0 0 0 0.339110809 0 0 0 0 0.68486926 0 0 0 0 0.6118217 0 0 0 1 0"/></filter></defs><g fill="none" fill-rule="evenodd"><circle cx="128" cy="128" r="125" fill="#FFF" transform="translate(.5 .5)"/><mask id="logo-c" fill="#fff"><use xlink:href="#logo-a"/></mask><use fill="#55D2B7" xlink:href="#logo-a"/><path fill="url(#logo-b)" d="M129,122.170213 C126.345158,122.170213 124.192982,120.017369 124.192982,117.361702 C124.192982,114.706035 126.345158,112.553191 129,112.553191 C131.654842,112.553191 133.807018,114.706035 133.807018,117.361702 C133.807018,120.017369 131.654842,122.170213 129,122.170213 Z M129,136.595745 C126.345158,136.595745 124.192982,134.442901 124.192982,131.787234 C124.192982,129.131567 126.345158,126.978723 129,126.978723 C131.654842,126.978723 133.807018,129.131567 133.807018,131.787234 C133.807018,134.442901 131.654842,136.595745 129,136.595745 Z M129,151.021277 C126.345158,151.021277 124.192982,148.868433 124.192982,146.212766 C124.192982,143.557099 126.345158,141.404255 129,141.404255 C131.654842,141.404255 133.807018,143.557099 133.807018,146.212766 C133.807018,148.868433 131.654842,151.021277 129,151.021277 Z M129,165.446809 C126.345158,165.446809 124.192982,163.293965 124.192982,160.638298 C124.192982,157.982631 126.345158,155.829787 129,155.829787 C131.654842,155.829787 133.807018,157.982631 133.807018,160.638298 C133.807018,163.293965 131.654842,165.446809 129,165.446809 Z M129,179.87234 C126.345158,179.87234 124.192982,177.719497 124.192982,175.06383 C124.192982,172.408163 126.345158,170.255319 129,170.255319 C131.654842,170.255319 133.807018,172.408163 133.807018,175.06383 C133.807018,177.719497 131.654842,179.87234 129,179.87234 Z M129,194.297872 C126.345158,194.297872 124.192982,192.145029 124.192982,189.489362 C124.192982,186.833695 126.345158,184.680851 129,184.680851 C131.654842,184.680851 133.807018,186.833695 133.807018,189.489362 C133.807018,192.145029 131.654842,194.297872 129,194.297872 Z M129,208.723404 C126.345158,208.723404 124.192982,206.570561 124.192982,203.914894 C124.192982,201.259227 126.345158,199.106383 129,199.106383 C131.654842,199.106383 133.807018,201.259227 133.807018,203.914894 C133.807018,206.570561 131.654842,208.723404 129,208.723404 Z M129,223.148936 C126.345158,223.148936 124.192982,220.996093 124.192982,218.340426 C124.192982,215.684758 126.345158,213.531915 129,213.531915 C131.654842,213.531915 133.807018,215.684758 133.807018,218.340426 C133.807018,220.996093 131.654842,223.148936 129,223.148936 Z M129,237.574468 C126.345158,237.574468 124.192982,235.421625 124.192982,232.765957 C124.192982,230.11029 126.345158,227.957447 129,227.957447 C131.654842,227.957447 133.807018,230.11029 133.807018,232.765957 C133.807018,235.421625 131.654842,237.574468 129,237.574468 Z M129,252 C126.345158,252 124.192982,249.847156 124.192982,247.191489 C124.192982,244.535822 126.345158,242.382979 129,242.382979 C131.654842,242.382979 133.807018,244.535822 133.807018,247.191489 C133.807018,249.847156 131.654842,252 129,252 Z M129,107.744681 C126.345158,107.744681 124.192982,105.591837 124.192982,102.93617 C124.192982,100.280503 126.345158,98.1276596 129,98.1276596 C131.654842,98.1276596 133.807018,100.280503 133.807018,102.93617 C133.807018,105.591837 131.654842,107.744681 129,107.744681 Z M115.780702,151.021277 C113.125859,151.021277 110.973684,148.868433 110.973684,146.212766 C110.973684,143.557099 113.125859,141.404255 115.780702,141.404255 C118.435544,141.404255 120.587719,143.557099 120.587719,146.212766 C120.587719,148.868433 118.435544,151.021277 115.780702,151.021277 Z M115.780702,165.446809 C113.125859,165.446809 110.973684,163.293965 110.973684,160.638298 C110.973684,157.982631 113.125859,155.829787 115.780702,155.829787 C118.435544,155.829787 120.587719,157.982631 120.587719,160.638298 C120.587719,163.293965 118.435544,165.446809 115.780702,165.446809 Z M115.780702,179.87234 C113.125859,179.87234 110.973684,177.719497 110.973684,175.06383 C110.973684,172.408163 113.125859,170.255319 115.780702,170.255319 C118.435544,170.255319 120.587719,172.408163 120.587719,175.06383 C120.587719,177.719497 118.435544,179.87234 115.780702,179.87234 Z M115.780702,194.297872 C113.125859,194.297872 110.973684,192.145029 110.973684,189.489362 C110.973684,186.833695 113.125859,184.680851 115.780702,184.680851 C118.435544,184.680851 120.587719,186.833695 120.587719,189.489362 C120.587719,192.145029 118.435544,194.297872 115.780702,194.297872 Z M115.780702,208.723404 C113.125859,208.723404 110.973684,206.570561 110.973684,203.914894 C110.973684,201.259227 113.125859,199.106383 115.780702,199.106383 C118.435544,199.106383 120.587719,201.259227 120.587719,203.914894 C120.587719,206.570561 118.435544,208.723404 115.780702,208.723404 Z M115.780702,223.148936 C113.125859,223.148936 110.973684,220.996093 110.973684,218.340426 C110.973684,215.684758 113.125859,213.531915 115.780702,213.531915 C118.435544,213.531915 120.587719,215.684758 120.587719,218.340426 C120.587719,220.996093 118.435544,223.148936 115.780702,223.148936 Z M115.780702,237.574468 C113.125859,237.574468 110.973684,235.421625 110.973684,232.765957 C110.973684,230.11029 113.125859,227.957447 115.780702,227.957447 C118.435544,227.957447 120.587719,230.11029 120.587719,232.765957 C120.587719,235.421625 118.435544,237.574468 115.780702,237.574468 Z M115.780702,252 C113.125859,252 110.973684,249.847156 110.973684,247.191489 C110.973684,244.535822 113.125859,242.382979 115.780702,242.382979 C118.435544,242.382979 120.587719,244.535822 120.587719,247.191489 C120.587719,249.847156 118.435544,252 115.780702,252 Z M102.561404,208.723404 C99.906561,208.723404 97.754386,206.570561 97.754386,203.914894 C97.754386,201.259227 99.906561,199.106383 102.561404,199.106383 C105.216246,199.106383 107.368421,201.259227 107.368421,203.914894 C107.368421,206.570561 105.216246,208.723404 102.561404,208.723404 Z M102.561404,223.148936 C99.906561,223.148936 97.754386,220.996093 97.754386,218.340426 C97.754386,215.684758 99.906561,213.531915 102.561404,213.531915 C105.216246,213.531915 107.368421,215.684758 107.368421,218.340426 C107.368421,220.996093 105.216246,223.148936 102.561404,223.148936 Z M102.561404,237.574468 C99.906561,237.574468 97.754386,235.421625 97.754386,232.765957 C97.754386,230.11029 99.906561,227.957447 102.561404,227.957447 C105.216246,227.957447 107.368421,230.11029 107.368421,232.765957 C107.368421,235.421625 105.216246,237.574468 102.561404,237.574468 Z M102.561404,252 C99.906561,252 97.754386,249.847156 97.754386,247.191489 C97.754386,244.535822 99.906561,242.382979 102.561404,242.382979 C105.216246,242.382979 107.368421,244.535822 107.368421,247.191489 C107.368421,249.847156 105.216246,252 102.561404,252 Z M89.3421053,122.170213 C86.6872628,122.170213 84.5350877,120.017369 84.5350877,117.361702 C84.5350877,114.706035 86.6872628,112.553191 89.3421053,112.553191 C91.9969477,112.553191 94.1491228,114.706035 94.1491228,117.361702 C94.1491228,120.017369 91.9969477,122.170213 89.3421053,122.170213 Z M89.3421053,136.595745 C86.6872628,136.595745 84.5350877,134.442901 84.5350877,131.787234 C84.5350877,129.131567 86.6872628,126.978723 89.3421053,126.978723 C91.9969477,126.978723 94.1491228,129.131567 94.1491228,131.787234 C94.1491228,134.442901 91.9969477,136.595745 89.3421053,136.595745 Z M89.3421053,151.021277 C86.6872628,151.021277 84.5350877,148.868433 84.5350877,146.212766 C84.5350877,143.557099 86.6872628,141.404255 89.3421053,141.404255 C91.9969477,141.404255 94.1491228,143.557099 94.1491228,146.212766 C94.1491228,148.868433 91.9969477,151.021277 89.3421053,151.021277 Z M89.3421053,165.446809 C86.6872628,165.446809 84.5350877,163.293965 84.5350877,160.638298 C84.5350877,157.982631 86.6872628,155.829787 89.3421053,155.829787 C91.9969477,155.829787 94.1491228,157.982631 94.1491228,160.638298 C94.1491228,163.293965 91.9969477,165.446809 89.3421053,165.446809 Z M89.3421053,179.87234 C86.6872628,179.87234 84.5350877,177.719497 84.5350877,175.06383 C84.5350877,172.408163 86.6872628,170.255319 89.3421053,170.255319 C91.9969477,170.255319 94.1491228,172.408163 94.1491228,175.06383 C94.1491228,177.719497 91.9969477,179.87234 89.3421053,179.87234 Z M89.3421053,194.297872 C86.6872628,194.297872 84.5350877,192.145029 84.5350877,189.489362 C84.5350877,186.833695 86.6872628,184.680851 89.3421053,184.680851 C91.9969477,184.680851 94.1491228,186.833695 94.1491228,189.489362 C94.1491228,192.145029 91.9969477,194.297872 89.3421053,194.297872 Z M89.3421053,208.723404 C86.6872628,208.723404 84.5350877,206.570561 84.5350877,203.914894 C84.5350877,201.259227 86.6872628,199.106383 89.3421053,199.106383 C91.9969477,199.106383 94.1491228,201.259227 94.1491228,203.914894 C94.1491228,206.570561 91.9969477,208.723404 89.3421053,208.723404 Z M89.3421053,223.148936 C86.6872628,223.148936 84.5350877,220.996093 84.5350877,218.340426 C84.5350877,215.684758 86.6872628,213.531915 89.3421053,213.531915 C91.9969477,213.531915 94.1491228,215.684758 94.1491228,218.340426 C94.1491228,220.996093 91.9969477,223.148936 89.3421053,223.148936 Z M89.3421053,237.574468 C86.6872628,237.574468 84.5350877,235.421625 84.5350877,232.765957 C84.5350877,230.11029 86.6872628,227.957447 89.3421053,227.957447 C91.9969477,227.957447 94.1491228,230.11029 94.1491228,232.765957 C94.1491228,235.421625 91.9969477,237.574468 89.3421053,237.574468 Z M89.3421053,252 C86.6872628,252 84.5350877,249.847156 84.5350877,247.191489 C84.5350877,244.535822 86.6872628,242.382979 89.3421053,242.382979 C91.9969477,242.382979 94.1491228,244.535822 94.1491228,247.191489 C94.1491228,249.847156 91.9969477,252 89.3421053,252 Z M76.122807,122.170213 C73.4679645,122.170213 71.3157895,120.017369 71.3157895,117.361702 C71.3157895,114.706035 73.4679645,112.553191 76.122807,112.553191 C78.7776495,112.553191 80.9298246,114.706035 80.9298246,117.361702 C80.9298246,120.017369 78.7776495,122.170213 76.122807,122.170213 Z M76.122807,136.595745 C73.4679645,136.595745 71.3157895,134.442901 71.3157895,131.787234 C71.3157895,129.131567 73.4679645,126.978723 76.122807,126.978723 C78.7776495,126.978723 80.9298246,129.131567 80.9298246,131.787234 C80.9298246,134.442901 78.7776495,136.595745 76.122807,136.595745 Z M76.122807,151.021277 C73.4679645,151.021277 71.3157895,148.868433 71.3157895,146.212766 C71.3157895,143.557099 73.4679645,141.404255 76.122807,141.404255 C78.7776495,141.404255 80.9298246,143.557099 80.9298246,146.212766 C80.9298246,148.868433 78.7776495,151.021277 76.122807,151.021277 Z M76.122807,165.446809 C73.4679645,165.446809 71.3157895,163.293965 71.3157895,160.638298 C71.3157895,157.982631 73.4679645,155.829787 76.122807,155.829787 C78.7776495,155.829787 80.9298246,157.982631 80.9298246,160.638298 C80.9298246,163.293965 78.7776495,165.446809 76.122807,165.446809 Z M76.122807,179.87234 C73.4679645,179.87234 71.3157895,177.719497 71.3157895,175.06383 C71.3157895,172.408163 73.4679645,170.255319 76.122807,170.255319 C78.7776495,170.255319 80.9298246,172.408163 80.9298246,175.06383 C80.9298246,177.719497 78.7776495,179.87234 76.122807,179.87234 Z M76.122807,194.297872 C73.4679645,194.297872 71.3157895,192.145029 71.3157895,189.489362 C71.3157895,186.833695 73.4679645,184.680851 76.122807,184.680851 C78.7776495,184.680851 80.9298246,186.833695 80.9298246,189.489362 C80.9298246,192.145029 78.7776495,194.297872 76.122807,194.297872 Z M76.122807,208.723404 C73.4679645,208.723404 71.3157895,206.570561 71.3157895,203.914894 C71.3157895,201.259227 73.4679645,199.106383 76.122807,199.106383 C78.7776495,199.106383 80.9298246,201.259227 80.9298246,203.914894 C80.9298246,206.570561 78.7776495,208.723404 76.122807,208.723404 Z M76.122807,223.148936 C73.4679645,223.148936 71.3157895,220.996093 71.3157895,218.340426 C71.3157895,215.684758 73.4679645,213.531915 76.122807,213.531915 C78.7776495,213.531915 80.9298246,215.684758 80.9298246,218.340426 C80.9298246,220.996093 78.7776495,223.148936 76.122807,223.148936 Z M76.122807,237.574468 C73.4679645,237.574468 71.3157895,235.421625 71.3157895,232.765957 C71.3157895,230.11029 73.4679645,227.957447 76.122807,227.957447 C78.7776495,227.957447 80.9298246,230.11029 80.9298246,232.765957 C80.9298246,235.421625 78.7776495,237.574468 76.122807,237.574468 Z M76.122807,35.6170213 C73.4679645,35.6170213 71.3157895,33.4641777 71.3157895,30.8085106 C71.3157895,28.1528435 73.4679645,26 76.122807,26 C78.7776495,26 80.9298246,28.1528435 80.9298246,30.8085106 C80.9298246,33.4641777 78.7776495,35.6170213 76.122807,35.6170213 Z M76.122807,50.0425532 C73.4679645,50.0425532 71.3157895,47.8897096 71.3157895,45.2340426 C71.3157895,42.5783755 73.4679645,40.4255319 76.122807,40.4255319 C78.7776495,40.4255319 80.9298246,42.5783755 80.9298246,45.2340426 C80.9298246,47.8897096 78.7776495,50.0425532 76.122807,50.0425532 Z M76.122807,64.4680851 C73.4679645,64.4680851 71.3157895,62.3152416 71.3157895,59.6595745 C71.3157895,57.0039074 73.4679645,54.8510638 76.122807,54.8510638 C78.7776495,54.8510638 80.9298246,57.0039074 80.9298246,59.6595745 C80.9298246,62.3152416 78.7776495,64.4680851 76.122807,64.4680851 Z M76.122807,78.893617 C73.4679645,78.893617 71.3157895,76.7407735 71.3157895,74.0851064 C71.3157895,71.4294393 73.4679645,69.2765957 76.122807,69.2765957 C78.7776495,69.2765957 80.9298246,71.4294393 80.9298246,74.0851064 C80.9298246,76.7407735 78.7776495,78.893617 76.122807,78.893617 Z M76.122807,93.3191489 C73.4679645,93.3191489 71.3157895,91.1663054 71.3157895,88.5106383 C71.3157895,85.8549712 73.4679645,83.7021277 76.122807,83.7021277 C78.7776495,83.7021277 80.9298246,85.8549712 80.9298246,88.5106383 C80.9298246,91.1663054 78.7776495,93.3191489 76.122807,93.3191489 Z M76.122807,107.744681 C73.4679645,107.744681 71.3157895,105.591837 71.3157895,102.93617 C71.3157895,100.280503 73.4679645,98.1276596 76.122807,98.1276596 C78.7776495,98.1276596 80.9298246,100.280503 80.9298246,102.93617 C80.9298246,105.591837 78.7776495,107.744681 76.122807,107.744681 Z M62.9035088,122.170213 C60.2486663,122.170213 58.0964912,120.017369 58.0964912,117.361702 C58.0964912,114.706035 60.2486663,112.553191 62.9035088,112.553191 C65.5583513,112.553191 67.7105263,114.706035 67.7105263,117.361702 C67.7105263,120.017369 65.5583513,122.170213 62.9035088,122.170213 Z M62.9035088,136.595745 C60.2486663,136.595745 58.0964912,134.442901 58.0964912,131.787234 C58.0964912,129.131567 60.2486663,126.978723 62.9035088,126.978723 C65.5583513,126.978723 67.7105263,129.131567 67.7105263,131.787234 C67.7105263,134.442901 65.5583513,136.595745 62.9035088,136.595745 Z M62.9035088,151.021277 C60.2486663,151.021277 58.0964912,148.868433 58.0964912,146.212766 C58.0964912,143.557099 60.2486663,141.404255 62.9035088,141.404255 C65.5583513,141.404255 67.7105263,143.557099 67.7105263,146.212766 C67.7105263,148.868433 65.5583513,151.021277 62.9035088,151.021277 Z M62.9035088,165.446809 C60.2486663,165.446809 58.0964912,163.293965 58.0964912,160.638298 C58.0964912,157.982631 60.2486663,155.829787 62.9035088,155.829787 C65.5583513,155.829787 67.7105263,157.982631 67.7105263,160.638298 C67.7105263,163.293965 65.5583513,165.446809 62.9035088,165.446809 Z M62.9035088,179.87234 C60.2486663,179.87234 58.0964912,177.719497 58.0964912,175.06383 C58.0964912,172.408163 60.2486663,170.255319 62.9035088,170.255319 C65.5583513,170.255319 67.7105263,172.408163 67.7105263,175.06383 C67.7105263,177.719497 65.5583513,179.87234 62.9035088,179.87234 Z M62.9035088,194.297872 C60.2486663,194.297872 58.0964912,192.145029 58.0964912,189.489362 C58.0964912,186.833695 60.2486663,184.680851 62.9035088,184.680851 C65.5583513,184.680851 67.7105263,186.833695 67.7105263,189.489362 C67.7105263,192.145029 65.5583513,194.297872 62.9035088,194.297872 Z M62.9035088,208.723404 C60.2486663,208.723404 58.0964912,206.570561 58.0964912,203.914894 C58.0964912,201.259227 60.2486663,199.106383 62.9035088,199.106383 C65.5583513,199.106383 67.7105263,201.259227 67.7105263,203.914894 C67.7105263,206.570561 65.5583513,208.723404 62.9035088,208.723404 Z M62.9035088,223.148936 C60.2486663,223.148936 58.0964912,220.996093 58.0964912,218.340426 C58.0964912,215.684758 60.2486663,213.531915 62.9035088,213.531915 C65.5583513,213.531915 67.7105263,215.684758 67.7105263,218.340426 C67.7105263,220.996093 65.5583513,223.148936 62.9035088,223.148936 Z M62.9035088,237.574468 C60.2486663,237.574468 58.0964912,235.421625 58.0964912,232.765957 C58.0964912,230.11029 60.2486663,227.957447 62.9035088,227.957447 C65.5583513,227.957447 67.7105263,230.11029 67.7105263,232.765957 C67.7105263,235.421625 65.5583513,237.574468 62.9035088,237.574468 Z M49.6842105,165.446809 C47.029368,165.446809 44.877193,163.293965 44.877193,160.638298 C44.877193,157.982631 47.029368,155.829787 49.6842105,155.829787 C52.339053,155.829787 54.4912281,157.982631 54.4912281,160.638298 C54.4912281,163.293965 52.339053,165.446809 49.6842105,165.446809 Z M49.6842105,179.87234 C47.029368,179.87234 44.877193,177.719497 44.877193,175.06383 C44.877193,172.408163 47.029368,170.255319 49.6842105,170.255319 C52.339053,170.255319 54.4912281,172.408163 54.4912281,175.06383 C54.4912281,177.719497 52.339053,179.87234 49.6842105,179.87234 Z M49.6842105,194.297872 C47.029368,194.297872 44.877193,192.145029 44.877193,189.489362 C44.877193,186.833695 47.029368,184.680851 49.6842105,184.680851 C52.339053,184.680851 54.4912281,186.833695 54.4912281,189.489362 C54.4912281,192.145029 52.339053,194.297872 49.6842105,194.297872 Z M49.6842105,208.723404 C47.029368,208.723404 44.877193,206.570561 44.877193,203.914894 C44.877193,201.259227 47.029368,199.106383 49.6842105,199.106383 C52.339053,199.106383 54.4912281,201.259227 54.4912281,203.914894 C54.4912281,206.570561 52.339053,208.723404 49.6842105,208.723404 Z M49.6842105,223.148936 C47.029368,223.148936 44.877193,220.996093 44.877193,218.340426 C44.877193,215.684758 47.029368,213.531915 49.6842105,213.531915 C52.339053,213.531915 54.4912281,215.684758 54.4912281,218.340426 C54.4912281,220.996093 52.339053,223.148936 49.6842105,223.148936 Z M36.4649123,122.170213 C33.8100698,122.170213 31.6578947,120.017369 31.6578947,117.361702 C31.6578947,114.706035 33.8100698,112.553191 36.4649123,112.553191 C39.1197548,112.553191 41.2719298,114.706035 41.2719298,117.361702 C41.2719298,120.017369 39.1197548,122.170213 36.4649123,122.170213 Z M36.4649123,136.595745 C33.8100698,136.595745 31.6578947,134.442901 31.6578947,131.787234 C31.6578947,129.131567 33.8100698,126.978723 36.4649123,126.978723 C39.1197548,126.978723 41.2719298,129.131567 41.2719298,131.787234 C41.2719298,134.442901 39.1197548,136.595745 36.4649123,136.595745 Z M36.4649123,151.021277 C33.8100698,151.021277 31.6578947,148.868433 31.6578947,146.212766 C31.6578947,143.557099 33.8100698,141.404255 36.4649123,141.404255 C39.1197548,141.404255 41.2719298,143.557099 41.2719298,146.212766 C41.2719298,148.868433 39.1197548,151.021277 36.4649123,151.021277 Z M36.4649123,165.446809 C33.8100698,165.446809 31.6578947,163.293965 31.6578947,160.638298 C31.6578947,157.982631 33.8100698,155.829787 36.4649123,155.829787 C39.1197548,155.829787 41.2719298,157.982631 41.2719298,160.638298 C41.2719298,163.293965 39.1197548,165.446809 36.4649123,165.446809 Z M36.4649123,179.87234 C33.8100698,179.87234 31.6578947,177.719497 31.6578947,175.06383 C31.6578947,172.408163 33.8100698,170.255319 36.4649123,170.255319 C39.1197548,170.255319 41.2719298,172.408163 41.2719298,175.06383 C41.2719298,177.719497 39.1197548,179.87234 36.4649123,179.87234 Z M36.4649123,194.297872 C33.8100698,194.297872 31.6578947,192.145029 31.6578947,189.489362 C31.6578947,186.833695 33.8100698,184.680851 36.4649123,184.680851 C39.1197548,184.680851 41.2719298,186.833695 41.2719298,189.489362 C41.2719298,192.145029 39.1197548,194.297872 36.4649123,194.297872 Z M36.4649123,208.723404 C33.8100698,208.723404 31.6578947,206.570561 31.6578947,203.914894 C31.6578947,201.259227 33.8100698,199.106383 36.4649123,199.106383 C39.1197548,199.106383 41.2719298,201.259227 41.2719298,203.914894 C41.2719298,206.570561 39.1197548,208.723404 36.4649123,208.723404 Z M36.4649123,223.148936 C33.8100698,223.148936 31.6578947,220.996093 31.6578947,218.340426 C31.6578947,215.684758 33.8100698,213.531915 36.4649123,213.531915 C39.1197548,213.531915 41.2719298,215.684758 41.2719298,218.340426 C41.2719298,220.996093 39.1197548,223.148936 36.4649123,223.148936 Z M36.4649123,78.893617 C33.8100698,78.893617 31.6578947,76.7407735 31.6578947,74.0851064 C31.6578947,71.4294393 33.8100698,69.2765957 36.4649123,69.2765957 C39.1197548,69.2765957 41.2719298,71.4294393 41.2719298,74.0851064 C41.2719298,76.7407735 39.1197548,78.893617 36.4649123,78.893617 Z M36.4649123,93.3191489 C33.8100698,93.3191489 31.6578947,91.1663054 31.6578947,88.5106383 C31.6578947,85.8549712 33.8100698,83.7021277 36.4649123,83.7021277 C39.1197548,83.7021277 41.2719298,85.8549712 41.2719298,88.5106383 C41.2719298,91.1663054 39.1197548,93.3191489 36.4649123,93.3191489 Z M36.4649123,107.744681 C33.8100698,107.744681 31.6578947,105.591837 31.6578947,102.93617 C31.6578947,100.280503 33.8100698,98.1276596 36.4649123,98.1276596 C39.1197548,98.1276596 41.2719298,100.280503 41.2719298,102.93617 C41.2719298,105.591837 39.1197548,107.744681 36.4649123,107.744681 Z M23.245614,122.170213 C20.5907716,122.170213 18.4385965,120.017369 18.4385965,117.361702 C18.4385965,114.706035 20.5907716,112.553191 23.245614,112.553191 C25.9004565,112.553191 28.0526316,114.706035 28.0526316,117.361702 C28.0526316,120.017369 25.9004565,122.170213 23.245614,122.170213 Z M23.245614,136.595745 C20.5907716,136.595745 18.4385965,134.442901 18.4385965,131.787234 C18.4385965,129.131567 20.5907716,126.978723 23.245614,126.978723 C25.9004565,126.978723 28.0526316,129.131567 28.0526316,131.787234 C28.0526316,134.442901 25.9004565,136.595745 23.245614,136.595745 Z M23.245614,151.021277 C20.5907716,151.021277 18.4385965,148.868433 18.4385965,146.212766 C18.4385965,143.557099 20.5907716,141.404255 23.245614,141.404255 C25.9004565,141.404255 28.0526316,143.557099 28.0526316,146.212766 C28.0526316,148.868433 25.9004565,151.021277 23.245614,151.021277 Z M23.245614,165.446809 C20.5907716,165.446809 18.4385965,163.293965 18.4385965,160.638298 C18.4385965,157.982631 20.5907716,155.829787 23.245614,155.829787 C25.9004565,155.829787 28.0526316,157.982631 28.0526316,160.638298 C28.0526316,163.293965 25.9004565,165.446809 23.245614,165.446809 Z M23.245614,179.87234 C20.5907716,179.87234 18.4385965,177.719497 18.4385965,175.06383 C18.4385965,172.408163 20.5907716,170.255319 23.245614,170.255319 C25.9004565,170.255319 28.0526316,172.408163 28.0526316,175.06383 C28.0526316,177.719497 25.9004565,179.87234 23.245614,179.87234 Z M23.245614,194.297872 C20.5907716,194.297872 18.4385965,192.145029 18.4385965,189.489362 C18.4385965,186.833695 20.5907716,184.680851 23.245614,184.680851 C25.9004565,184.680851 28.0526316,186.833695 28.0526316,189.489362 C28.0526316,192.145029 25.9004565,194.297872 23.245614,194.297872 Z M23.245614,208.723404 C20.5907716,208.723404 18.4385965,206.570561 18.4385965,203.914894 C18.4385965,201.259227 20.5907716,199.106383 23.245614,199.106383 C25.9004565,199.106383 28.0526316,201.259227 28.0526316,203.914894 C28.0526316,206.570561 25.9004565,208.723404 23.245614,208.723404 Z M10.0263158,136.595745 C7.37147331,136.595745 5.21929825,134.442901 5.21929825,131.787234 C5.21929825,129.131567 7.37147331,126.978723 10.0263158,126.978723 C12.6811583,126.978723 14.8333333,129.131567 14.8333333,131.787234 C14.8333333,134.442901 12.6811583,136.595745 10.0263158,136.595745 Z M10.0263158,151.021277 C7.37147331,151.021277 5.21929825,148.868433 5.21929825,146.212766 C5.21929825,143.557099 7.37147331,141.404255 10.0263158,141.404255 C12.6811583,141.404255 14.8333333,143.557099 14.8333333,146.212766 C14.8333333,148.868433 12.6811583,151.021277 10.0263158,151.021277 Z M10.0263158,165.446809 C7.37147331,165.446809 5.21929825,163.293965 5.21929825,160.638298 C5.21929825,157.982631 7.37147331,155.829787 10.0263158,155.829787 C12.6811583,155.829787 14.8333333,157.982631 14.8333333,160.638298 C14.8333333,163.293965 12.6811583,165.446809 10.0263158,165.446809 Z M10.0263158,179.87234 C7.37147331,179.87234 5.21929825,177.719497 5.21929825,175.06383 C5.21929825,172.408163 7.37147331,170.255319 10.0263158,170.255319 C12.6811583,170.255319 14.8333333,172.408163 14.8333333,175.06383 C14.8333333,177.719497 12.6811583,179.87234 10.0263158,179.87234 Z M-3.19298246,122.170213 C-5.84782494,122.170213 -8,120.017369 -8,117.361702 C-8,114.706035 -5.84782494,112.553191 -3.19298246,112.553191 C-0.538139975,112.553191 1.61403509,114.706035 1.61403509,117.361702 C1.61403509,120.017369 -0.538139975,122.170213 -3.19298246,122.170213 Z M-3.19298246,136.595745 C-5.84782494,136.595745 -8,134.442901 -8,131.787234 C-8,129.131567 -5.84782494,126.978723 -3.19298246,126.978723 C-0.538139975,126.978723 1.61403509,129.131567 1.61403509,131.787234 C1.61403509,134.442901 -0.538139975,136.595745 -3.19298246,136.595745 Z M-3.19298246,151.021277 C-5.84782494,151.021277 -8,148.868433 -8,146.212766 C-8,143.557099 -5.84782494,141.404255 -3.19298246,141.404255 C-0.538139975,141.404255 1.61403509,143.557099 1.61403509,146.212766 C1.61403509,148.868433 -0.538139975,151.021277 -3.19298246,151.021277 Z M-3.19298246,165.446809 C-5.84782494,165.446809 -8,163.293965 -8,160.638298 C-8,157.982631 -5.84782494,155.829787 -3.19298246,155.829787 C-0.538139975,155.829787 1.61403509,157.982631 1.61403509,160.638298 C1.61403509,163.293965 -0.538139975,165.446809 -3.19298246,165.446809 Z M-3.19298246,107.744681 C-5.84782494,107.744681 -8,105.591837 -8,102.93617 C-8,100.280503 -5.84782494,98.1276596 -3.19298246,98.1276596 C-0.538139975,98.1276596 1.61403509,100.280503 1.61403509,102.93617 C1.61403509,105.591837 -0.538139975,107.744681 -3.19298246,107.744681 Z M261.192982,122.170213 C258.53814,122.170213 256.385965,120.017369 256.385965,117.361702 C256.385965,114.706035 258.53814,112.553191 261.192982,112.553191 C263.847825,112.553191 266,114.706035 266,117.361702 C266,120.017369 263.847825,122.170213 261.192982,122.170213 Z M261.192982,136.595745 C258.53814,136.595745 256.385965,134.442901 256.385965,131.787234 C256.385965,129.131567 258.53814,126.978723 261.192982,126.978723 C263.847825,126.978723 266,129.131567 266,131.787234 C266,134.442901 263.847825,136.595745 261.192982,136.595745 Z M261.192982,151.021277 C258.53814,151.021277 256.385965,148.868433 256.385965,146.212766 C256.385965,143.557099 258.53814,141.404255 261.192982,141.404255 C263.847825,141.404255 266,143.557099 266,146.212766 C266,148.868433 263.847825,151.021277 261.192982,151.021277 Z M261.192982,93.3191489 C258.53814,93.3191489 256.385965,91.1663054 256.385965,88.5106383 C256.385965,85.8549712 258.53814,83.7021277 261.192982,83.7021277 C263.847825,83.7021277 266,85.8549712 266,88.5106383 C266,91.1663054 263.847825,93.3191489 261.192982,93.3191489 Z M261.192982,107.744681 C258.53814,107.744681 256.385965,105.591837 256.385965,102.93617 C256.385965,100.280503 258.53814,98.1276596 261.192982,98.1276596 C263.847825,98.1276596 266,100.280503 266,102.93617 C266,105.591837 263.847825,107.744681 261.192982,107.744681 Z M247.973684,122.170213 C245.318842,122.170213 243.166667,120.017369 243.166667,117.361702 C243.166667,114.706035 245.318842,112.553191 247.973684,112.553191 C250.628527,112.553191 252.780702,114.706035 252.780702,117.361702 C252.780702,120.017369 250.628527,122.170213 247.973684,122.170213 Z M247.973684,136.595745 C245.318842,136.595745 243.166667,134.442901 243.166667,131.787234 C243.166667,129.131567 245.318842,126.978723 247.973684,126.978723 C250.628527,126.978723 252.780702,129.131567 252.780702,131.787234 C252.780702,134.442901 250.628527,136.595745 247.973684,136.595745 Z M247.973684,151.021277 C245.318842,151.021277 243.166667,148.868433 243.166667,146.212766 C243.166667,143.557099 245.318842,141.404255 247.973684,141.404255 C250.628527,141.404255 252.780702,143.557099 252.780702,146.212766 C252.780702,148.868433 250.628527,151.021277 247.973684,151.021277 Z M247.973684,165.446809 C245.318842,165.446809 243.166667,163.293965 243.166667,160.638298 C243.166667,157.982631 245.318842,155.829787 247.973684,155.829787 C250.628527,155.829787 252.780702,157.982631 252.780702,160.638298 C252.780702,163.293965 250.628527,165.446809 247.973684,165.446809 Z M247.973684,179.87234 C245.318842,179.87234 243.166667,177.719497 243.166667,175.06383 C243.166667,172.408163 245.318842,170.255319 247.973684,170.255319 C250.628527,170.255319 252.780702,172.408163 252.780702,175.06383 C252.780702,177.719497 250.628527,179.87234 247.973684,179.87234 Z M234.754386,151.021277 C232.099543,151.021277 229.947368,148.868433 229.947368,146.212766 C229.947368,143.557099 232.099543,141.404255 234.754386,141.404255 C237.409228,141.404255 239.561404,143.557099 239.561404,146.212766 C239.561404,148.868433 237.409228,151.021277 234.754386,151.021277 Z M234.754386,165.446809 C232.099543,165.446809 229.947368,163.293965 229.947368,160.638298 C229.947368,157.982631 232.099543,155.829787 234.754386,155.829787 C237.409228,155.829787 239.561404,157.982631 239.561404,160.638298 C239.561404,163.293965 237.409228,165.446809 234.754386,165.446809 Z M234.754386,179.87234 C232.099543,179.87234 229.947368,177.719497 229.947368,175.06383 C229.947368,172.408163 232.099543,170.255319 234.754386,170.255319 C237.409228,170.255319 239.561404,172.408163 239.561404,175.06383 C239.561404,177.719497 237.409228,179.87234 234.754386,179.87234 Z M234.754386,194.297872 C232.099543,194.297872 229.947368,192.145029 229.947368,189.489362 C229.947368,186.833695 232.099543,184.680851 234.754386,184.680851 C237.409228,184.680851 239.561404,186.833695 239.561404,189.489362 C239.561404,192.145029 237.409228,194.297872 234.754386,194.297872 Z M221.535088,122.170213 C218.880245,122.170213 216.72807,120.017369 216.72807,117.361702 C216.72807,114.706035 218.880245,112.553191 221.535088,112.553191 C224.18993,112.553191 226.342105,114.706035 226.342105,117.361702 C226.342105,120.017369 224.18993,122.170213 221.535088,122.170213 Z M221.535088,136.595745 C218.880245,136.595745 216.72807,134.442901 216.72807,131.787234 C216.72807,129.131567 218.880245,126.978723 221.535088,126.978723 C224.18993,126.978723 226.342105,129.131567 226.342105,131.787234 C226.342105,134.442901 224.18993,136.595745 221.535088,136.595745 Z M221.535088,151.021277 C218.880245,151.021277 216.72807,148.868433 216.72807,146.212766 C216.72807,143.557099 218.880245,141.404255 221.535088,141.404255 C224.18993,141.404255 226.342105,143.557099 226.342105,146.212766 C226.342105,148.868433 224.18993,151.021277 221.535088,151.021277 Z M221.535088,165.446809 C218.880245,165.446809 216.72807,163.293965 216.72807,160.638298 C216.72807,157.982631 218.880245,155.829787 221.535088,155.829787 C224.18993,155.829787 226.342105,157.982631 226.342105,160.638298 C226.342105,163.293965 224.18993,165.446809 221.535088,165.446809 Z M221.535088,179.87234 C218.880245,179.87234 216.72807,177.719497 216.72807,175.06383 C216.72807,172.408163 218.880245,170.255319 221.535088,170.255319 C224.18993,170.255319 226.342105,172.408163 226.342105,175.06383 C226.342105,177.719497 224.18993,179.87234 221.535088,179.87234 Z M221.535088,194.297872 C218.880245,194.297872 216.72807,192.145029 216.72807,189.489362 C216.72807,186.833695 218.880245,184.680851 221.535088,184.680851 C224.18993,184.680851 226.342105,186.833695 226.342105,189.489362 C226.342105,192.145029 224.18993,194.297872 221.535088,194.297872 Z M221.535088,208.723404 C218.880245,208.723404 216.72807,206.570561 216.72807,203.914894 C216.72807,201.259227 218.880245,199.106383 221.535088,199.106383 C224.18993,199.106383 226.342105,201.259227 226.342105,203.914894 C226.342105,206.570561 224.18993,208.723404 221.535088,208.723404 Z M221.535088,50.0425532 C218.880245,50.0425532 216.72807,47.8897096 216.72807,45.2340426 C216.72807,42.5783755 218.880245,40.4255319 221.535088,40.4255319 C224.18993,40.4255319 226.342105,42.5783755 226.342105,45.2340426 C226.342105,47.8897096 224.18993,50.0425532 221.535088,50.0425532 Z M221.535088,64.4680851 C218.880245,64.4680851 216.72807,62.3152416 216.72807,59.6595745 C216.72807,57.0039074 218.880245,54.8510638 221.535088,54.8510638 C224.18993,54.8510638 226.342105,57.0039074 226.342105,59.6595745 C226.342105,62.3152416 224.18993,64.4680851 221.535088,64.4680851 Z M221.535088,78.893617 C218.880245,78.893617 216.72807,76.7407735 216.72807,74.0851064 C216.72807,71.4294393 218.880245,69.2765957 221.535088,69.2765957 C224.18993,69.2765957 226.342105,71.4294393 226.342105,74.0851064 C226.342105,76.7407735 224.18993,78.893617 221.535088,78.893617 Z M221.535088,93.3191489 C218.880245,93.3191489 216.72807,91.1663054 216.72807,88.5106383 C216.72807,85.8549712 218.880245,83.7021277 221.535088,83.7021277 C224.18993,83.7021277 226.342105,85.8549712 226.342105,88.5106383 C226.342105,91.1663054 224.18993,93.3191489 221.535088,93.3191489 Z M221.535088,107.744681 C218.880245,107.744681 216.72807,105.591837 216.72807,102.93617 C216.72807,100.280503 218.880245,98.1276596 221.535088,98.1276596 C224.18993,98.1276596 226.342105,100.280503 226.342105,102.93617 C226.342105,105.591837 224.18993,107.744681 221.535088,107.744681 Z M208.315789,194.297872 C205.660947,194.297872 203.508772,192.145029 203.508772,189.489362 C203.508772,186.833695 205.660947,184.680851 208.315789,184.680851 C210.970632,184.680851 213.122807,186.833695 213.122807,189.489362 C213.122807,192.145029 210.970632,194.297872 208.315789,194.297872 Z M208.315789,208.723404 C205.660947,208.723404 203.508772,206.570561 203.508772,203.914894 C203.508772,201.259227 205.660947,199.106383 208.315789,199.106383 C210.970632,199.106383 213.122807,201.259227 213.122807,203.914894 C213.122807,206.570561 210.970632,208.723404 208.315789,208.723404 Z M208.315789,223.148936 C205.660947,223.148936 203.508772,220.996093 203.508772,218.340426 C203.508772,215.684758 205.660947,213.531915 208.315789,213.531915 C210.970632,213.531915 213.122807,215.684758 213.122807,218.340426 C213.122807,220.996093 210.970632,223.148936 208.315789,223.148936 Z M195.096491,122.170213 C192.441649,122.170213 190.289474,120.017369 190.289474,117.361702 C190.289474,114.706035 192.441649,112.553191 195.096491,112.553191 C197.751334,112.553191 199.903509,114.706035 199.903509,117.361702 C199.903509,120.017369 197.751334,122.170213 195.096491,122.170213 Z M195.096491,136.595745 C192.441649,136.595745 190.289474,134.442901 190.289474,131.787234 C190.289474,129.131567 192.441649,126.978723 195.096491,126.978723 C197.751334,126.978723 199.903509,129.131567 199.903509,131.787234 C199.903509,134.442901 197.751334,136.595745 195.096491,136.595745 Z M195.096491,151.021277 C192.441649,151.021277 190.289474,148.868433 190.289474,146.212766 C190.289474,143.557099 192.441649,141.404255 195.096491,141.404255 C197.751334,141.404255 199.903509,143.557099 199.903509,146.212766 C199.903509,148.868433 197.751334,151.021277 195.096491,151.021277 Z M195.096491,165.446809 C192.441649,165.446809 190.289474,163.293965 190.289474,160.638298 C190.289474,157.982631 192.441649,155.829787 195.096491,155.829787 C197.751334,155.829787 199.903509,157.982631 199.903509,160.638298 C199.903509,163.293965 197.751334,165.446809 195.096491,165.446809 Z M195.096491,179.87234 C192.441649,179.87234 190.289474,177.719497 190.289474,175.06383 C190.289474,172.408163 192.441649,170.255319 195.096491,170.255319 C197.751334,170.255319 199.903509,172.408163 199.903509,175.06383 C199.903509,177.719497 197.751334,179.87234 195.096491,179.87234 Z M195.096491,194.297872 C192.441649,194.297872 190.289474,192.145029 190.289474,189.489362 C190.289474,186.833695 192.441649,184.680851 195.096491,184.680851 C197.751334,184.680851 199.903509,186.833695 199.903509,189.489362 C199.903509,192.145029 197.751334,194.297872 195.096491,194.297872 Z M195.096491,208.723404 C192.441649,208.723404 190.289474,206.570561 190.289474,203.914894 C190.289474,201.259227 192.441649,199.106383 195.096491,199.106383 C197.751334,199.106383 199.903509,201.259227 199.903509,203.914894 C199.903509,206.570561 197.751334,208.723404 195.096491,208.723404 Z M195.096491,223.148936 C192.441649,223.148936 190.289474,220.996093 190.289474,218.340426 C190.289474,215.684758 192.441649,213.531915 195.096491,213.531915 C197.751334,213.531915 199.903509,215.684758 199.903509,218.340426 C199.903509,220.996093 197.751334,223.148936 195.096491,223.148936 Z M195.096491,237.574468 C192.441649,237.574468 190.289474,235.421625 190.289474,232.765957 C190.289474,230.11029 192.441649,227.957447 195.096491,227.957447 C197.751334,227.957447 199.903509,230.11029 199.903509,232.765957 C199.903509,235.421625 197.751334,237.574468 195.096491,237.574468 Z M195.096491,64.4680851 C192.441649,64.4680851 190.289474,62.3152416 190.289474,59.6595745 C190.289474,57.0039074 192.441649,54.8510638 195.096491,54.8510638 C197.751334,54.8510638 199.903509,57.0039074 199.903509,59.6595745 C199.903509,62.3152416 197.751334,64.4680851 195.096491,64.4680851 Z M195.096491,78.893617 C192.441649,78.893617 190.289474,76.7407735 190.289474,74.0851064 C190.289474,71.4294393 192.441649,69.2765957 195.096491,69.2765957 C197.751334,69.2765957 199.903509,71.4294393 199.903509,74.0851064 C199.903509,76.7407735 197.751334,78.893617 195.096491,78.893617 Z M195.096491,93.3191489 C192.441649,93.3191489 190.289474,91.1663054 190.289474,88.5106383 C190.289474,85.8549712 192.441649,83.7021277 195.096491,83.7021277 C197.751334,83.7021277 199.903509,85.8549712 199.903509,88.5106383 C199.903509,91.1663054 197.751334,93.3191489 195.096491,93.3191489 Z M195.096491,107.744681 C192.441649,107.744681 190.289474,105.591837 190.289474,102.93617 C190.289474,100.280503 192.441649,98.1276596 195.096491,98.1276596 C197.751334,98.1276596 199.903509,100.280503 199.903509,102.93617 C199.903509,105.591837 197.751334,107.744681 195.096491,107.744681 Z M181.877193,122.170213 C179.222351,122.170213 177.070175,120.017369 177.070175,117.361702 C177.070175,114.706035 179.222351,112.553191 181.877193,112.553191 C184.532035,112.553191 186.684211,114.706035 186.684211,117.361702 C186.684211,120.017369 184.532035,122.170213 181.877193,122.170213 Z M181.877193,136.595745 C179.222351,136.595745 177.070175,134.442901 177.070175,131.787234 C177.070175,129.131567 179.222351,126.978723 181.877193,126.978723 C184.532035,126.978723 186.684211,129.131567 186.684211,131.787234 C186.684211,134.442901 184.532035,136.595745 181.877193,136.595745 Z M181.877193,151.021277 C179.222351,151.021277 177.070175,148.868433 177.070175,146.212766 C177.070175,143.557099 179.222351,141.404255 181.877193,141.404255 C184.532035,141.404255 186.684211,143.557099 186.684211,146.212766 C186.684211,148.868433 184.532035,151.021277 181.877193,151.021277 Z M181.877193,165.446809 C179.222351,165.446809 177.070175,163.293965 177.070175,160.638298 C177.070175,157.982631 179.222351,155.829787 181.877193,155.829787 C184.532035,155.829787 186.684211,157.982631 186.684211,160.638298 C186.684211,163.293965 184.532035,165.446809 181.877193,165.446809 Z M181.877193,179.87234 C179.222351,179.87234 177.070175,177.719497 177.070175,175.06383 C177.070175,172.408163 179.222351,170.255319 181.877193,170.255319 C184.532035,170.255319 186.684211,172.408163 186.684211,175.06383 C186.684211,177.719497 184.532035,179.87234 181.877193,179.87234 Z M181.877193,194.297872 C179.222351,194.297872 177.070175,192.145029 177.070175,189.489362 C177.070175,186.833695 179.222351,184.680851 181.877193,184.680851 C184.532035,184.680851 186.684211,186.833695 186.684211,189.489362 C186.684211,192.145029 184.532035,194.297872 181.877193,194.297872 Z M181.877193,208.723404 C179.222351,208.723404 177.070175,206.570561 177.070175,203.914894 C177.070175,201.259227 179.222351,199.106383 181.877193,199.106383 C184.532035,199.106383 186.684211,201.259227 186.684211,203.914894 C186.684211,206.570561 184.532035,208.723404 181.877193,208.723404 Z M181.877193,223.148936 C179.222351,223.148936 177.070175,220.996093 177.070175,218.340426 C177.070175,215.684758 179.222351,213.531915 181.877193,213.531915 C184.532035,213.531915 186.684211,215.684758 186.684211,218.340426 C186.684211,220.996093 184.532035,223.148936 181.877193,223.148936 Z M181.877193,237.574468 C179.222351,237.574468 177.070175,235.421625 177.070175,232.765957 C177.070175,230.11029 179.222351,227.957447 181.877193,227.957447 C184.532035,227.957447 186.684211,230.11029 186.684211,232.765957 C186.684211,235.421625 184.532035,237.574468 181.877193,237.574468 Z M181.877193,35.6170213 C179.222351,35.6170213 177.070175,33.4641777 177.070175,30.8085106 C177.070175,28.1528435 179.222351,26 181.877193,26 C184.532035,26 186.684211,28.1528435 186.684211,30.8085106 C186.684211,33.4641777 184.532035,35.6170213 181.877193,35.6170213 Z M181.877193,50.0425532 C179.222351,50.0425532 177.070175,47.8897096 177.070175,45.2340426 C177.070175,42.5783755 179.222351,40.4255319 181.877193,40.4255319 C184.532035,40.4255319 186.684211,42.5783755 186.684211,45.2340426 C186.684211,47.8897096 184.532035,50.0425532 181.877193,50.0425532 Z M181.877193,64.4680851 C179.222351,64.4680851 177.070175,62.3152416 177.070175,59.6595745 C177.070175,57.0039074 179.222351,54.8510638 181.877193,54.8510638 C184.532035,54.8510638 186.684211,57.0039074 186.684211,59.6595745 C186.684211,62.3152416 184.532035,64.4680851 181.877193,64.4680851 Z M181.877193,78.893617 C179.222351,78.893617 177.070175,76.7407735 177.070175,74.0851064 C177.070175,71.4294393 179.222351,69.2765957 181.877193,69.2765957 C184.532035,69.2765957 186.684211,71.4294393 186.684211,74.0851064 C186.684211,76.7407735 184.532035,78.893617 181.877193,78.893617 Z M181.877193,93.3191489 C179.222351,93.3191489 177.070175,91.1663054 177.070175,88.5106383 C177.070175,85.8549712 179.222351,83.7021277 181.877193,83.7021277 C184.532035,83.7021277 186.684211,85.8549712 186.684211,88.5106383 C186.684211,91.1663054 184.532035,93.3191489 181.877193,93.3191489 Z M168.657895,93.3191489 C166.003052,93.3191489 163.850877,91.1663054 163.850877,88.5106383 C163.850877,85.8549712 166.003052,83.7021277 168.657895,83.7021277 C171.312737,83.7021277 173.464912,85.8549712 173.464912,88.5106383 C173.464912,91.1663054 171.312737,93.3191489 168.657895,93.3191489 Z M181.877193,107.744681 C179.222351,107.744681 177.070175,105.591837 177.070175,102.93617 C177.070175,100.280503 179.222351,98.1276596 181.877193,98.1276596 C184.532035,98.1276596 186.684211,100.280503 186.684211,102.93617 C186.684211,105.591837 184.532035,107.744681 181.877193,107.744681 Z M168.657895,122.170213 C166.003052,122.170213 163.850877,120.017369 163.850877,117.361702 C163.850877,114.706035 166.003052,112.553191 168.657895,112.553191 C171.312737,112.553191 173.464912,114.706035 173.464912,117.361702 C173.464912,120.017369 171.312737,122.170213 168.657895,122.170213 Z M168.657895,136.595745 C166.003052,136.595745 163.850877,134.442901 163.850877,131.787234 C163.850877,129.131567 166.003052,126.978723 168.657895,126.978723 C171.312737,126.978723 173.464912,129.131567 173.464912,131.787234 C173.464912,134.442901 171.312737,136.595745 168.657895,136.595745 Z M168.657895,151.021277 C166.003052,151.021277 163.850877,148.868433 163.850877,146.212766 C163.850877,143.557099 166.003052,141.404255 168.657895,141.404255 C171.312737,141.404255 173.464912,143.557099 173.464912,146.212766 C173.464912,148.868433 171.312737,151.021277 168.657895,151.021277 Z M168.657895,165.446809 C166.003052,165.446809 163.850877,163.293965 163.850877,160.638298 C163.850877,157.982631 166.003052,155.829787 168.657895,155.829787 C171.312737,155.829787 173.464912,157.982631 173.464912,160.638298 C173.464912,163.293965 171.312737,165.446809 168.657895,165.446809 Z M168.657895,179.87234 C166.003052,179.87234 163.850877,177.719497 163.850877,175.06383 C163.850877,172.408163 166.003052,170.255319 168.657895,170.255319 C171.312737,170.255319 173.464912,172.408163 173.464912,175.06383 C173.464912,177.719497 171.312737,179.87234 168.657895,179.87234 Z M168.657895,194.297872 C166.003052,194.297872 163.850877,192.145029 163.850877,189.489362 C163.850877,186.833695 166.003052,184.680851 168.657895,184.680851 C171.312737,184.680851 173.464912,186.833695 173.464912,189.489362 C173.464912,192.145029 171.312737,194.297872 168.657895,194.297872 Z M168.657895,208.723404 C166.003052,208.723404 163.850877,206.570561 163.850877,203.914894 C163.850877,201.259227 166.003052,199.106383 168.657895,199.106383 C171.312737,199.106383 173.464912,201.259227 173.464912,203.914894 C173.464912,206.570561 171.312737,208.723404 168.657895,208.723404 Z M168.657895,223.148936 C166.003052,223.148936 163.850877,220.996093 163.850877,218.340426 C163.850877,215.684758 166.003052,213.531915 168.657895,213.531915 C171.312737,213.531915 173.464912,215.684758 173.464912,218.340426 C173.464912,220.996093 171.312737,223.148936 168.657895,223.148936 Z M168.657895,237.574468 C166.003052,237.574468 163.850877,235.421625 163.850877,232.765957 C163.850877,230.11029 166.003052,227.957447 168.657895,227.957447 C171.312737,227.957447 173.464912,230.11029 173.464912,232.765957 C173.464912,235.421625 171.312737,237.574468 168.657895,237.574468 Z M168.657895,252 C166.003052,252 163.850877,249.847156 163.850877,247.191489 C163.850877,244.535822 166.003052,242.382979 168.657895,242.382979 C171.312737,242.382979 173.464912,244.535822 173.464912,247.191489 C173.464912,249.847156 171.312737,252 168.657895,252 Z M168.657895,78.893617 C166.003052,78.893617 163.850877,76.7407735 163.850877,74.0851064 C163.850877,71.4294393 166.003052,69.2765957 168.657895,69.2765957 C171.312737,69.2765957 173.464912,71.4294393 173.464912,74.0851064 C173.464912,76.7407735 171.312737,78.893617 168.657895,78.893617 Z M168.657895,107.744681 C166.003052,107.744681 163.850877,105.591837 163.850877,102.93617 C163.850877,100.280503 166.003052,98.1276596 168.657895,98.1276596 C171.312737,98.1276596 173.464912,100.280503 173.464912,102.93617 C173.464912,105.591837 171.312737,107.744681 168.657895,107.744681 Z M155.438596,151.021277 C152.783754,151.021277 150.631579,148.868433 150.631579,146.212766 C150.631579,143.557099 152.783754,141.404255 155.438596,141.404255 C158.093439,141.404255 160.245614,143.557099 160.245614,146.212766 C160.245614,148.868433 158.093439,151.021277 155.438596,151.021277 Z M155.438596,165.446809 C152.783754,165.446809 150.631579,163.293965 150.631579,160.638298 C150.631579,157.982631 152.783754,155.829787 155.438596,155.829787 C158.093439,155.829787 160.245614,157.982631 160.245614,160.638298 C160.245614,163.293965 158.093439,165.446809 155.438596,165.446809 Z M155.438596,179.87234 C152.783754,179.87234 150.631579,177.719497 150.631579,175.06383 C150.631579,172.408163 152.783754,170.255319 155.438596,170.255319 C158.093439,170.255319 160.245614,172.408163 160.245614,175.06383 C160.245614,177.719497 158.093439,179.87234 155.438596,179.87234 Z M155.438596,194.297872 C152.783754,194.297872 150.631579,192.145029 150.631579,189.489362 C150.631579,186.833695 152.783754,184.680851 155.438596,184.680851 C158.093439,184.680851 160.245614,186.833695 160.245614,189.489362 C160.245614,192.145029 158.093439,194.297872 155.438596,194.297872 Z M155.438596,208.723404 C152.783754,208.723404 150.631579,206.570561 150.631579,203.914894 C150.631579,201.259227 152.783754,199.106383 155.438596,199.106383 C158.093439,199.106383 160.245614,201.259227 160.245614,203.914894 C160.245614,206.570561 158.093439,208.723404 155.438596,208.723404 Z M155.438596,223.148936 C152.783754,223.148936 150.631579,220.996093 150.631579,218.340426 C150.631579,215.684758 152.783754,213.531915 155.438596,213.531915 C158.093439,213.531915 160.245614,215.684758 160.245614,218.340426 C160.245614,220.996093 158.093439,223.148936 155.438596,223.148936 Z M155.438596,237.574468 C152.783754,237.574468 150.631579,235.421625 150.631579,232.765957 C150.631579,230.11029 152.783754,227.957447 155.438596,227.957447 C158.093439,227.957447 160.245614,230.11029 160.245614,232.765957 C160.245614,235.421625 158.093439,237.574468 155.438596,237.574468 Z M155.438596,252 C152.783754,252 150.631579,249.847156 150.631579,247.191489 C150.631579,244.535822 152.783754,242.382979 155.438596,242.382979 C158.093439,242.382979 160.245614,244.535822 160.245614,247.191489 C160.245614,249.847156 158.093439,252 155.438596,252 Z M142.219298,122.170213 C139.564456,122.170213 137.412281,120.017369 137.412281,117.361702 C137.412281,114.706035 139.564456,112.553191 142.219298,112.553191 C144.874141,112.553191 147.026316,114.706035 147.026316,117.361702 C147.026316,120.017369 144.874141,122.170213 142.219298,122.170213 Z M142.219298,136.595745 C139.564456,136.595745 137.412281,134.442901 137.412281,131.787234 C137.412281,129.131567 139.564456,126.978723 142.219298,126.978723 C144.874141,126.978723 147.026316,129.131567 147.026316,131.787234 C147.026316,134.442901 144.874141,136.595745 142.219298,136.595745 Z M142.219298,151.021277 C139.564456,151.021277 137.412281,148.868433 137.412281,146.212766 C137.412281,143.557099 139.564456,141.404255 142.219298,141.404255 C144.874141,141.404255 147.026316,143.557099 147.026316,146.212766 C147.026316,148.868433 144.874141,151.021277 142.219298,151.021277 Z M142.219298,165.446809 C139.564456,165.446809 137.412281,163.293965 137.412281,160.638298 C137.412281,157.982631 139.564456,155.829787 142.219298,155.829787 C144.874141,155.829787 147.026316,157.982631 147.026316,160.638298 C147.026316,163.293965 144.874141,165.446809 142.219298,165.446809 Z M142.219298,179.87234 C139.564456,179.87234 137.412281,177.719497 137.412281,175.06383 C137.412281,172.408163 139.564456,170.255319 142.219298,170.255319 C144.874141,170.255319 147.026316,172.408163 147.026316,175.06383 C147.026316,177.719497 144.874141,179.87234 142.219298,179.87234 Z M142.219298,194.297872 C139.564456,194.297872 137.412281,192.145029 137.412281,189.489362 C137.412281,186.833695 139.564456,184.680851 142.219298,184.680851 C144.874141,184.680851 147.026316,186.833695 147.026316,189.489362 C147.026316,192.145029 144.874141,194.297872 142.219298,194.297872 Z M142.219298,208.723404 C139.564456,208.723404 137.412281,206.570561 137.412281,203.914894 C137.412281,201.259227 139.564456,199.106383 142.219298,199.106383 C144.874141,199.106383 147.026316,201.259227 147.026316,203.914894 C147.026316,206.570561 144.874141,208.723404 142.219298,208.723404 Z M142.219298,223.148936 C139.564456,223.148936 137.412281,220.996093 137.412281,218.340426 C137.412281,215.684758 139.564456,213.531915 142.219298,213.531915 C144.874141,213.531915 147.026316,215.684758 147.026316,218.340426 C147.026316,220.996093 144.874141,223.148936 142.219298,223.148936 Z M142.219298,237.574468 C139.564456,237.574468 137.412281,235.421625 137.412281,232.765957 C137.412281,230.11029 139.564456,227.957447 142.219298,227.957447 C144.874141,227.957447 147.026316,230.11029 147.026316,232.765957 C147.026316,235.421625 144.874141,237.574468 142.219298,237.574468 Z M142.219298,252 C139.564456,252 137.412281,249.847156 137.412281,247.191489 C137.412281,244.535822 139.564456,242.382979 142.219298,242.382979 C144.874141,242.382979 147.026316,244.535822 147.026316,247.191489 C147.026316,249.847156 144.874141,252 142.219298,252 Z M142.219298,64.4680851 C139.564456,64.4680851 137.412281,62.3152416 137.412281,59.6595745 C137.412281,57.0039074 139.564456,54.8510638 142.219298,54.8510638 C144.874141,54.8510638 147.026316,57.0039074 147.026316,59.6595745 C147.026316,62.3152416 144.874141,64.4680851 142.219298,64.4680851 Z M142.219298,78.893617 C139.564456,78.893617 137.412281,76.7407735 137.412281,74.0851064 C137.412281,71.4294393 139.564456,69.2765957 142.219298,69.2765957 C144.874141,69.2765957 147.026316,71.4294393 147.026316,74.0851064 C147.026316,76.7407735 144.874141,78.893617 142.219298,78.893617 Z M142.219298,93.3191489 C139.564456,93.3191489 137.412281,91.1663054 137.412281,88.5106383 C137.412281,85.8549712 139.564456,83.7021277 142.219298,83.7021277 C144.874141,83.7021277 147.026316,85.8549712 147.026316,88.5106383 C147.026316,91.1663054 144.874141,93.3191489 142.219298,93.3191489 Z M142.219298,107.744681 C139.564456,107.744681 137.412281,105.591837 137.412281,102.93617 C137.412281,100.280503 139.564456,98.1276596 142.219298,98.1276596 C144.874141,98.1276596 147.026316,100.280503 147.026316,102.93617 C147.026316,105.591837 144.874141,107.744681 142.219298,107.744681 Z" mask="url(#logo-c)" opacity=".258"/><g mask="url(#logo-c)"><use fill="#000" filter="url(#logo-d)" xlink:href="#logo-e"/><use fill="url(#logo-f)" xlink:href="#logo-e"/></g><g mask="url(#logo-c)"><use fill="#000" filter="url(#logo-g)" xlink:href="#logo-h"/><use fill="url(#logo-f)" xlink:href="#logo-h"/></g><g mask="url(#logo-c)"><use fill="#000" filter="url(#logo-i)" xlink:href="#logo-j"/><use fill="#FFF" xlink:href="#logo-j"/></g></g></svg>