<?xml version="1.0" encoding="UTF-8"?>
<svg width="257px" height="257px" viewBox="0 0 257 257" version="1.1" xmlns="http://www.w3.org/2000/svg" xmlns:xlink="http://www.w3.org/1999/xlink">
    <!-- Generator: Sketch 50.2 (55047) - http://www.bohemiancoding.com/sketch -->
    <title>sql-importer/logo</title>
    <desc>Created with Sketch.</desc>
    <defs>
        <circle id="path-1" cx="125.5" cy="125.5" r="125.5"></circle>
    </defs>
    <g id="sql-importer/logo" stroke="none" stroke-width="1" fill="none" fill-rule="evenodd">
        <g id="Group-2" transform="translate(3.000000, 3.000000)">
            <mask id="mask-2" fill="white">
                <use xlink:href="#path-1"></use>
            </mask>
            <use id="Oval-2" fill="#DEF6EC" xlink:href="#path-1"></use>
            <path d="M2.24663177,153 C-8.74751109,132.96757 -15,109.963959 -15,85.5 C-15,7.90399265 47.9039927,-55 125.5,-55 C203.096007,-55 266,7.90399265 266,85.5 C266,109.963959 259.747511,132.96757 248.753368,153 C224.875739,109.492568 178.632049,80 125.5,80 C72.3679513,80 26.1242609,109.492568 2.24663177,153 Z" id="Combined-Shape" fill="#9EECC6" mask="url(#mask-2)"></path>
            <path d="M2.24663177,306 C-8.74751109,285.96757 -15,262.963959 -15,238.5 C-15,160.903993 47.9039927,98 125.5,98 C203.096007,98 266,160.903993 266,238.5 C266,262.963959 259.747511,285.96757 248.753368,306 C224.875739,262.492568 178.632049,233 125.5,233 C72.3679513,233 26.1242609,262.492568 2.24663177,306 Z" id="Combined-Shape" fill="#21DF8C" mask="url(#mask-2)" transform="translate(125.500000, 202.000000) scale(1, -1) translate(-125.500000, -202.000000) "></path>
        </g>
    </g>
</svg>