<svg xmlns="http://www.w3.org/2000/svg" width="257" height="257" viewBox="0 0 257 257">
  <g fill="none" fill-rule="evenodd">
    <circle cx="128" cy="128" r="125" fill="#FFF" transform="translate(.5 .5)"/>
    <g transform="translate(31 41)">
      <g fill-rule="nonzero" transform="translate(0 93)">
        <path fill="#000" d="M51.0583357,8.16809693 L50.8503399,8.27999752 C50.8828697,8.26459091 50.9261437,8.23921548 51.0583357,8.16809693 Z M37.762044,62.5889889 L37.7642751,62.65556 C37.7635336,62.6332605 37.7627899,62.6110704 37.762044,62.5889889 Z M57.7441408,60.7272207 C57.7502876,60.6763558 57.9287132,59.1575702 57.9778202,58.7785228 C58.1004748,57.8317752 58.2167339,57.1914669 58.4079806,56.5756965 C58.7411329,55.503023 59.2884059,54.6026081 60.2188664,53.9191936 C61.1702646,53.2204006 62.2336264,52.9651714 63.3894619,52.9894183 C63.5812455,52.9934416 63.7743749,53.0047923 63.9740078,53.0235724 C63.2198813,52.2648725 62.7840848,51.4118724 62.6180282,50.5994882 L62.3221354,49.1519185 L63.1532213,47.9270367 C67.6836079,41.2500038 71.2417546,33.286861 73.1359944,26.0018274 C73.9958655,22.6948596 74.4588194,19.7056631 74.495365,17.3478424 C74.5121582,16.264397 74.4376027,15.3539416 74.2868705,14.6564474 C74.2236919,14.3640968 74.1503203,14.1245305 74.0732601,13.9415328 C74.0231305,13.8224881 73.9826455,13.7519121 73.9619869,13.7256927 C70.3458189,9.13592157 65.3441978,7.12484949 59.4065064,7.05442177 C57.241121,7.02873786 55.103007,7.27053236 53.1148995,7.69254113 C52.4085149,7.84248295 51.7714412,8.00516408 51.2347911,8.16416893 C51.0797204,8.21011504 50.9434267,8.25276152 50.8334914,8.28906194 L50.5645236,8.4337652 L49.2363791,8.67736577 L48.5549462,8.53692192 C46.8412613,8.18373011 44.9445129,7.98434032 42.8471899,7.95065763 C39.5603926,7.89701091 36.996312,8.70175305 34.962882,10.2337929 L33.3439826,11.4535144 L31.465274,10.6846798 C31.4388585,10.6738696 31.3633463,10.6440014 31.2420242,10.5977811 C31.0246472,10.5149666 30.7678328,10.4211164 30.4749037,10.3189289 C29.6235828,10.0219479 28.6659896,9.72316568 27.6293712,9.44394878 C24.4180817,8.57897642 21.2074388,8.09937973 18.3011471,8.19501441 C14.8042166,8.31008468 12.0928154,9.24887768 10.2688111,11.0792315 C8.02252398,13.3333382 6.84840905,17.1603573 7.14346363,23.0199327 C7.21332248,24.4076053 7.82309126,27.9939326 8.70426119,31.900398 C9.79102969,36.7183377 11.1547781,41.5195224 12.6397935,45.5320068 C14.3337023,50.1089171 16.1068609,53.4202099 17.6687623,54.9281905 C17.96882,55.2178894 18.224036,55.4028985 18.4164744,55.4947254 C18.8635848,55.3074481 19.1886668,55.018043 19.5639764,54.5698769 C21.198973,52.6165816 22.9221854,50.6587906 24.629396,48.7873444 C25.226841,48.1324245 25.7801376,47.5345051 26.276088,47.0052116 C26.4505229,46.8190495 26.6056183,46.6544639 26.7397198,46.5129151 C26.8215669,46.4265226 26.879087,46.3661131 26.9106234,46.3331496 L28.9647199,44.1861035 L31.4483955,45.8251349 C32.2999528,46.387096 33.2380014,46.717788 34.2061963,46.7965864 L40.1015664,41.802339 L39.2463022,50.4974048 C39.2240981,50.7231425 39.2337832,50.9588129 39.2894201,51.3154669 L48.4395118,38.79007 L44.1001734,56.0748833 C44.1317118,56.1675097 44.1618432,56.2617242 44.1907802,56.3575519 C44.3741848,56.9649129 44.5028806,57.6481716 44.6006707,58.4435491 C44.7423735,59.5960924 44.8139772,60.8798423 44.8740251,62.8522469 C44.8827789,63.1397858 44.8859558,63.2511827 44.9045638,63.9135739 C44.9290402,64.7848602 44.9430823,65.2333688 44.9622188,65.7075293 C45.1267662,69.7794734 45.3982998,72.218059 45.8557136,73.4444381 C45.9607516,73.7260029 46.2843946,74.7073911 46.2756375,74.6817432 C46.416843,75.095309 46.539027,75.4071663 46.6707055,75.6815595 C46.9410111,76.2448256 47.2077204,76.5607873 47.509257,76.7234139 C47.9813073,76.9780029 48.7879925,77.0561743 50.1438467,76.7675339 C53.0523907,76.1484021 54.1982263,75.5943266 55.1476688,74.2515129 C56.6261985,72.1604016 57.5491136,68.0465941 57.7198846,61.0616881 L61.2668369,61.1472516 L57.7441408,60.7272207 Z M60.9578107,78.3049144 C59.7377783,80.0304283 58.2232187,81.28296 56.3957742,82.1666315 C55.020736,82.8315392 53.6572353,83.2323205 51.6316349,83.6635031 C46.0301156,84.8559798 42.2226029,82.8024891 40.2616599,78.716253 C39.9918703,78.1540622 39.7751725,77.6009718 39.551854,76.9469115 C39.5199836,76.8535686 39.2474598,76.0271898 39.1980654,75.8947833 C38.3826276,73.7085008 38.0643505,70.850121 37.8679615,65.9902127 C37.8473013,65.478299 37.8326253,65.0095457 37.8073634,64.1102961 C37.7889466,63.4547134 37.7858192,63.3450496 37.7773062,63.0654233 C37.7730249,62.9247938 37.7686873,62.7882393 37.7642751,62.65556 C36.7734983,63.0185961 35.7341815,63.3227063 34.6550197,63.5060379 C32.2756309,63.9102566 30.0259318,63.7102366 27.7964387,63.1564121 C26.09363,62.7334323 24.4610035,61.9273222 23.4304224,60.6707947 C20.0256124,63.467107 16.023124,63.1743761 12.7201958,59.9854734 C10.2020235,57.5542347 8.00890535,53.4586868 5.97587753,47.965483 C2.98209197,39.8763294 0.280210704,27.8981566 0.0523631975,23.3722054 C-0.335026228,15.6789251 1.43087174,9.92299347 5.22290155,6.11776319 C8.48211443,2.84720462 12.9039327,1.31619845 18.0660733,1.14633263 C21.7728681,1.02435654 25.649588,1.60344991 29.4875254,2.63721215 C30.5073421,2.91190343 31.4635465,3.20338869 32.3420739,3.49859961 C35.3416229,1.73128758 38.8954199,0.832656916 42.9629017,0.89904598 C45.1304704,0.933856676 47.1578632,1.11922817 49.0536177,1.45161781 C49.7854439,1.22807075 50.6956161,0.994296002 51.6311813,0.795706796 C54.1066599,0.27024545 56.7616416,-0.0300004725 59.4912801,0.00237611847 C63.035649,0.0444163303 66.4618298,0.647399591 69.6636187,1.93478786 C73.4875532,3.47233093 76.8355225,5.92971941 79.5531785,9.37906651 C82.2648135,12.8206071 82.1613948,19.4928802 80.0103665,27.7654937 C78.2512344,34.530918 75.2245025,41.7560663 71.341916,48.2542431 C72.4754896,48.2227884 73.8850296,48.0478937 75.5853537,47.6994686 C76.3514184,47.5423784 77.0435087,47.4675767 77.6899142,47.4895555 C78.6751467,47.5230549 79.5889432,47.7691605 80.4115304,48.3900732 C81.5644622,49.2603398 82.112455,50.6113372 81.9808059,51.9770908 C81.8995517,52.820038 81.5910235,53.5460147 81.1355272,54.2284736 C80.0433601,55.8648405 77.7879423,57.5338522 75.2219665,58.7165171 C72.7351734,59.8641025 68.8330023,60.5042898 65.6691037,60.3612992 L64.943755,60.3011577 C64.8968466,60.6930727 64.8424873,61.1534741 64.8135684,61.3982715 C64.5999078,69.5561515 63.4013011,74.8490419 60.9578107,78.3049144 Z M64.8177549,61.2329108 L61.2668369,61.1472516 L64.7934986,61.5677555 C64.7954489,61.5516164 64.802718,61.4901199 64.8135684,61.3982715 C64.8150086,61.3432816 64.8164041,61.2881615 64.8177549,61.2329108 Z"/>
        <path fill="#336791" d="M76.8512042,51.6554094 C67.288152,53.6134539 66.6307421,50.3995511 66.6307421,50.3995511 C76.727821,35.5277728 80.9487046,16.6502687 77.306144,12.0301064 C67.3689499,-0.572823643 50.1671669,5.38754989 49.8800966,5.54229127 L49.7877018,5.55870895 C47.8983612,5.1694023 45.783927,4.93747894 43.4075175,4.89898231 C39.0803609,4.82859386 35.7980641,6.02500887 33.3073968,7.89983271 C33.3073968,7.89983271 2.6211056,-4.64837176 4.04828211,23.6815658 C4.35189219,29.7085536 12.7508839,69.2844148 22.768876,57.3306437 C26.4304478,52.9595773 29.9682562,49.2637117 29.9682562,49.2637117 C31.7254685,50.4223849 33.8290662,51.0134214 36.0343742,50.8011238 L36.2056658,50.6567614 C36.1524343,51.1994885 36.1767687,51.7303269 36.2742965,52.3587279 C33.6935158,55.2208771 34.4518756,55.7234092 29.2927855,56.7775376 C24.0724792,57.8454418 27.1391882,59.7466849 29.1414558,60.2435557 C31.5688155,60.8461035 37.1845564,61.6996343 40.9790171,56.427105 L40.8276873,57.0287093 C41.8388971,57.8326096 42.5489683,62.2580242 42.4299577,66.2696 C42.3109471,70.2813644 42.23148,73.0355722 43.0282425,75.1868547 C43.8250051,77.3381372 44.6191061,82.1785229 51.4011889,80.7360313 C57.0682602,79.5305583 60.004932,76.4066696 60.4134844,71.1958482 C60.7034063,67.491302 61.3594855,68.0389355 61.4009301,64.7269039 L61.9271622,63.1589209 C62.5340021,58.1371859 62.0235494,56.5171192 65.5149703,57.2706342 L66.3634435,57.3446082 C68.9331977,57.4606642 72.2964826,56.9343548 74.2704234,56.0236452 C78.5209646,54.0656007 81.0418598,50.7964061 76.850824,51.6554094 L76.8512042,51.6554094 Z"/>
        <path fill="#FFF" d="M40.0914697 54.144551C39.8052068 64.2467141 40.1979441 73.2781825 41.1701605 75.6784175 41.9937307 77.7104127 42.7747079 79.0328435 44.1675748 80.1909697 46.1511729 81.8402708 48.8316688 82.4179254 52.269608 81.6909371 58.3235364 80.4098222 60.8707855 77.796382 61.876311 72.0396246 62.4740594 68.6210075 63.7981987 58.0496652 63.9966038 55.438358 64.0458744 54.789884 63.5532448 54.2247662 62.8962849 54.1761321 62.2393249 54.127498 61.666812 54.6137643 61.6175415 55.2622382 61.4248579 57.7982407 60.1100985 68.2946981 59.5252906 71.6393064 58.6854158 76.4476932 56.8716023 78.3086392 51.7696778 79.3882939 49.0290794 79.9678221 47.1032032 79.5527902 45.7045789 78.3898769 44.6901821 77.546437 44.073904 76.5028916 43.385312 74.8039285 42.5903295 72.8412533 42.2016322 63.9026885 42.4762807 54.2103943 42.4947007 53.5603534 41.975775 53.0186516 41.3172276 53.0004695 40.6586803 52.9822873 40.1098897 53.4945101 40.0914697 54.144551zM33.2560634 5.8235032C33.1941432 5.79854983 33.0821794 5.75494432 32.9233085 5.69535706 32.6636346 5.5979619 32.3633936 5.48995706 32.0257101 5.37401541 31.0657631 5.04442318 29.9941028 4.71543119 28.8355071 4.40849565 25.155159 3.43349667 21.4468829 2.89320701 17.9566057 3.01767145 13.2971208 3.18383023 9.40202664 4.53351109 6.59014787 7.34121235 3.27646433 10.6499729 1.68976225 15.7850568 2.05022251 22.8907322 2.13769442 24.6155708 2.79203689 28.4357083 3.73782158 32.5977206 4.87928759 37.6208466 6.31335375 42.6323687 7.89433201 46.8726502 9.83523285 52.0782663 11.9107232 55.9255763 14.1340812 58.0563462 17.0189077 60.8210388 20.2322505 60.6865235 23.063853 57.3300666 24.6688 55.4262605 26.3235291 53.5614454 27.9343084 51.8141176 28.4979159 51.2027322 29.0155577 50.6499287 29.4755219 50.1654935 29.6361639 49.996305 29.7780102 49.8478609 29.8995982 49.7213827 29.9720091 49.6460594 30.0212434 49.5951369 30.0458389 49.5698356 30.5029739 49.0995854 30.4869292 48.3529792 30.0100021 47.902244 29.5330751 47.4515088 28.7758682 47.4673289 28.3187333 47.9375791 28.2455451 48.0131975 28.2072346 48.0529337 28.163304 48.0986311 28.0383651 48.2285951 27.8931362 48.3805791 27.7290735 48.5533702 27.26131 49.0460197 26.7357337 49.6072966 26.1639846 50.2275139 24.5308879 51.999051 22.853408 53.8895053 21.2243559 55.8219052 19.2920003 58.1124344 17.6948118 58.179295 15.8015103 56.364837 13.900373 54.5428695 11.9663896 50.957869 10.1397565 46.0587263 8.59866865 41.9254332 7.19232995 37.0108082 6.07229233 32.0819799 5.15401077 28.0409975 4.51863364 24.3315822 4.43958861 22.7729112 4.11020563 16.2798557 5.49781955 11.7890858 8.29242976 8.99862742 10.6226948 6.67182441 13.943361 5.52118736 18.0430726 5.37499028 21.2629503 5.26016838 24.746179 5.76766902 28.2147417 6.68656174 29.3148803 6.97801082 30.3316286 7.29014521 31.238981 7.60167935 31.5548523 7.71013194 31.8338449 7.81049317 32.0727356 7.9000932 32.1552114 7.93102716 32.2264701 7.95827485 32.2861101 7.98150229 32.9624786 8.2534667 33.6608328 7.96444738 33.9107718 7.361484 34.1607108 6.75852063 33.8675879 6.06994317 33.2560634 5.8235032zM49.5771207 5.85228659C49.5368063 5.86493792 49.5020955 5.8749764 49.4618696 5.88457303 49.4117791 5.89804921 49.4117791 5.89804921 49.221603 5.91744439 49.1338007 5.91984992 49.1338007 5.91984992 48.961698 5.8978207 48.8462408 5.87355216 48.8462408 5.87355216 48.6741435 5.80442149 48.4641083 5.69268905 48.4641083 5.69268905 48.2213678 5.42738517 48.0206061 5.06257074 48.0206061 5.06257074 48 4.66880189 48.0524733 4.34821801 48.0524733 4.34821801 48.1462508 4.16236301 48.3101597 3.9250004 48.3101597 3.9250004 48.4068862 3.84102597 48.6126687 3.69280618 48.6126687 3.69280618 48.6639982 3.67097004 48.7599082 3.62775276 48.7885009 3.61629852 48.8204719 3.60404348 48.934656 3.56027474 49.1071967 3.50066415 49.3107997 3.43535722 49.8665176 3.25710728 50.5555004 3.06584168 51.3289434 2.8848906 53.5826083 2.35763382 56.0539473 2.02515504 58.6135439 2.00135752 61.9641786 1.97020542 65.1970952 2.47407716 68.2009436 3.62988426 71.7910284 5.01126071 74.9197361 7.27628693 77.4589237 10.5236944 81.7763897 16.0460108 76.6343362 35.9718555 66.8670158 50.478377 66.5024818 51.0197866 65.7684561 51.1629119 65.2275236 50.7980564 64.6865911 50.4332009 64.5435919 49.698528 64.9081259 49.1571184 69.5823284 42.2149463 73.2433652 33.9586686 75.200319 26.3753253 76.9970184 19.4129799 77.0824225 13.8785935 75.5986472 11.9807495 71.3704853 6.57328615 65.4675952 4.30199899 58.6354857 4.36551965 56.2620371 4.38758648 53.9604817 4.69722362 51.8666079 5.18709644 51.1554304 5.35348017 50.5275472 5.52778417 50.0317013 5.68682977 49.9255559 5.72087659 49.8327183 5.75201415 49.7617514 5.77688777 49.7033812 5.8066859 49.6417386 5.83200847 49.5771207 5.85228659zM49.6653007 5.81192702C49.6755873 5.80721925 49.6755873 5.80721925 49.7072752 5.79214833 49.7504488 5.77449556 49.7504488 5.77449556 49.9525181 5.6289162 50.0486655 5.5454793 50.0486655 5.5454793 50.2122749 5.30855574 50.3059552 5.12290173 50.3059552 5.12290173 50.3584013 4.80249406 50.3378031 4.40888901 50.3378031 4.40888901 50.1371196 4.04421351 49.8944923 3.77903609 49.8944923 3.77903609 49.6846405 3.66740515 49.5127618 3.59836346 49.5127618 3.59836346 49.3975937 3.57415881 49.2261746 3.55221971 49.2261746 3.55221971 49.139338 3.55461442 48.9544374 3.5734597 48.9544374 3.5734597 48.914168 3.58473859 48.8889295 3.59075968 48.8783702 3.5938135 48.8704067 3.59631254 49.4928279 3.40098676 50.1556032 3.74766092 50.3507569 4.37063095 50.5256503 4.92892614 50.2656232 5.51966017 49.7617514 5.77688777 49.7223836 5.79068602 49.6897462 5.80255666 49.6653007 5.81192702z"/>
        <path fill="#FFF" d="M67.8665869 49.8277108C68.318141 50.1523417 69.0698333 50.4038547 70.2021358 50.5052156 71.7433561 50.6431817 73.7975433 50.4780569 76.4190584 49.9403834 77.7364776 49.6700174 78.6840136 49.7023015 79.3448692 50.201963 79.8244211 50.564544 80.0478835 51.1169734 79.9914386 51.6993452 79.9523152 52.1030021 79.7876875 52.4902461 79.5276316 52.8799696 78.7119428 54.1023727 76.7851245 55.5293853 74.5721587 56.5505961 72.7034944 57.4123527 69.7334721 57.9699906 67.0921146 57.9988347 65.7272445 58.0137394 64.5290464 57.8858817 63.612275 57.6027549 62.3431115 57.2107988 61.4914664 56.4855449 61.4258985 55.3448979 61.2570073 52.3985788 62.2026528 50.6787165 64.0259371 49.8643721 64.2638836 49.7580966 64.5046382 49.6716204 64.7790621 49.5882645 64.8209193 49.5755504 64.8857103 49.5567163 64.9567736 49.536331 64.8640897 49.4042439 64.7470942 49.2491277 64.6012171 49.0648235 64.5488475 48.9986587 64.0542722 48.3842888 63.8916058 48.1765907 63.5800273 47.7787565 63.3137147 47.4167015 63.0571269 47.0341243 62.5342415 46.254492 62.0909003 45.4433664 61.7168595 44.5422774 61.6141944 44.2950068 59.4629338 40.459076 58.6531822 38.8571848 57.7920218 37.153594 57.0837609 35.5624319 56.5382427 34.0471439 55.1655563 30.2342279 54.8994812 27.1482286 56.1710619 24.8983805 57.5872979 22.3925891 60.6605848 21.365647 65.4260771 21.8504381 65.306212 21.4968512 65.1570584 21.1033588 64.9827128 20.6870602 64.1411875 18.6776845 62.8858876 16.5037387 61.3015364 14.4910921 56.9123843 8.9154269 50.8736027 5.48927693 43.1181948 5.36293231 39.0251555 5.29623687 35.7693852 6.41422442 33.2188697 8.54352752 31.0490466 10.3550088 29.4211394 12.8730115 28.2760285 15.9308815 27.4331274 18.1817397 26.8948582 20.6048186 26.6052826 23.0496896 26.499571 23.9422071 26.433692 24.7858408 26.4000926 25.5619485 26.377765 26.0776913 26.3724223 26.4894147 26.3763757 26.7785936 26.3944896 27.4790627 25.8769632 28.0211164 25.2213005 28.0382685 24.5656378 28.0554206 24.0201249 27.5411758 24.0028633 26.8896707 23.9968637 26.4782932 24.0027817 26.0222368 24.0270998 25.4605152 24.0631402 24.6280239 24.1335407 23.7264896 24.2463759 22.7738279 24.5566401 20.1542837 25.1348079 17.5515971 26.04996 15.107802 27.3283797 11.693948 29.1759137 8.83623244 31.6909765 6.73652715 34.6852671 4.23673747 38.4988151 2.92721657 43.1571355 3.00312318 51.6847304 3.14204763 58.3679932 6.93384907 63.1723736 13.0369907 64.8926071 15.2222524 66.2543329 17.5805081 67.1756003 19.7802902 67.5439586 20.6598481 67.8197621 21.4682552 67.9749509 22.1026716 68.0534753 22.4236818 68.1012966 22.6998705 68.1138548 22.9316763 68.1234022 23.1079082 68.1151098 23.2697345 68.0740474 23.439365 67.9685532 23.8751665 67.6846361 24.2680575 67.1115108 24.3858987L66.6830992 24.3955359C61.8530409 23.6270404 59.2183169 24.3266463 58.2420119 26.0540538 57.3994809 27.5447708 57.6134857 30.0268481 58.7746422 33.2521968 59.2839274 34.6668401 59.9546364 36.1736391 60.775665 37.797839 61.5303537 39.290802 63.7467171 43.2428182 63.9125639 43.642263 64.2246181 44.3940223 64.5939132 45.069675 65.0336187 45.7252844 65.2546088 46.0547848 65.4877141 46.3716941 65.766063 46.7270996 65.9167383 46.9194871 66.4060926 47.5273713 66.4681729 47.6058048 67.0870087 48.3876547 67.3967359 48.8833951 67.5539888 49.4962552 67.6165123 49.6130942 67.7100629 49.7151827 67.8665869 49.8277108zM66.0159123 51.6903599C65.9756546 51.7021097 65.5852995 51.8113054 65.4734095 51.8452919 65.2870411 51.9019011 65.1360911 51.9561206 64.9997043 52.0170358 64.130399 52.4052989 63.69625 53.1755362 63.792057 55.1136252 63.8888709 55.1868875 64.0665347 55.2715542 64.3172226 55.3489742 64.9624247 55.5482321 65.9280951 55.6512772 67.0660131 55.6388509 69.3941018 55.6134277 72.0391473 55.116806 73.5719891 54.409918 74.9574532 53.7705719 76.197656 52.9491505 76.9579423 52.2399352 76.9386078 52.243766 76.919072 52.2477062 76.8993362 52.2517565 71.6043604 53.3377577 68.2834584 53.040479 66.4743129 51.7398495 66.4116759 51.6948186 66.3516911 51.6492403 66.2942916 51.6032204 66.2087569 51.6324141 66.1166052 51.6609711 66.0159123 51.6903599zM67.553349 49.5067663C67.5607479 49.5265517 67.5695555 49.557613 67.5785172 49.6014451 67.5724099 49.5715742 67.565217 49.542198 67.5569876 49.5133487 67.5541908 49.5083035 67.5530787 49.5060434 67.553349 49.5067663zM34.9347359 50.4764266C35.7094967 49.5763538 36.5347614 49.0942651 37.4173816 49.014246 38.0755563 48.9545754 38.5444383 49.0823307 39.2785487 49.3979961 41.5987311 50.3964186 42.8562958 53.9189967 41.3343061 56.1308414 39.4777798 58.8293426 37.0658302 60.3276056 34.3053913 60.8178386 32.3421975 61.1664869 30.4441971 60.9900699 28.5488469 60.4977328 27.1365254 60.1312468 25.7571525 59.3478049 25.2394116 58.3511964 24.7774334 57.4619267 24.995107 56.4815641 25.7967683 55.8029243 26.4034246 55.2893643 27.3663345 54.9099481 28.7441213 54.6151404 29.6891162 54.4131563 30.3999572 54.2370731 30.9551405 54.0672823 32.0874124 53.7210013 32.543956 53.4369771 33.0521176 52.8428386 33.1434175 52.7360915 34.3352186 51.1716015 34.9347359 50.4764266zM27.8662525 57.6643659C28.2381154 57.8755727 28.6965627 58.0592169 29.1104897 58.1666277 30.7212508 58.5850397 32.316187 58.7332872 33.9150477 58.4493417 36.0898263 58.0631176 37.9594251 56.9017539 39.4506395 54.7342415 40.053631 53.8579388 39.4102931 52.0558781 38.3924034 51.6178591 37.9823463 51.4415356 37.7993394 51.3916721 37.6187802 51.4080418 37.3672066 51.4308496 37.0659787 51.6068157 36.6601169 52.0783223 36.1217428 52.7025989 34.9338816 54.2619169 34.7831082 54.4381999 33.972279 55.3862149 33.1396208 55.9042271 31.6093104 56.3722395 30.9829765 56.5637902 30.2137363 56.7543396 29.2111927 56.9686241 28.4596301 57.1294374 27.9114408 57.3074991 27.5679259 57.4752949 27.6520049 57.5351361 27.7521844 57.5995787 27.8662525 57.6643659z"/>
        <path fill="#FFF" d="M23.1213138,37.7517685 C23.5298057,34.7273748 23.5693576,31.9332036 23.4008977,28.7276663 C23.3856004,28.4365817 23.338121,27.6047838 23.3361686,27.5690358 C23.3147176,27.1762835 23.3054583,26.9407658 23.3066495,26.7520319 C23.3127713,25.8060024 24.1979294,25.0606022 25.7639505,24.1577427 C27.1228449,23.3742982 28.7390129,22.7067744 30.298723,22.33426 C32.2499091,21.8682472 34.0383628,21.8691195 35.5315081,22.4660978 C37.3579148,23.1963182 38.5982101,24.7659183 39.089423,27.1174114 C39.9423059,31.2012952 40.1722199,34.5501954 39.8786095,37.4174619 C39.6465413,39.6837339 39.1414778,41.4507923 38.2645632,43.5433592 C38.1235353,43.8798917 37.6227535,45.0342007 37.6715321,44.9207054 C37.4548416,45.4248883 37.30727,45.7893401 37.1818285,46.1388325 C35.9288318,49.6354384 35.6894987,50.5265055 35.8533195,51.6321379 C35.9493794,52.2804497 35.5196606,52.886639 34.8935155,52.9860996 C34.2673705,53.0855602 33.6819077,52.6406285 33.5858478,51.9923167 C33.5627107,51.8361634 33.546201,51.6783702 33.5361525,51.5183501 C27.1799344,51.3579912 22.1461878,44.9716668 23.1213138,37.7517685 Z M33.8956781,48.7006525 C34.1264599,47.8414231 34.1674314,47.7227307 35.0313069,45.3120048 C35.1769169,44.9063204 35.3411125,44.5008131 35.5756812,43.9550324 C35.5324482,44.0556243 36.0259875,42.9180094 36.1601236,42.5979227 C36.9514249,40.7096535 37.3927358,39.1656453 37.5973955,37.1670313 C37.8637159,34.5662673 37.6510196,31.4681583 36.8472558,27.619473 C36.2359954,24.693298 34.138618,23.8547401 30.8143392,24.6486965 C29.4745079,24.9686959 28.0580075,25.5537513 26.8799491,26.2329383 C26.3828494,26.5195316 25.9657395,26.8031238 25.6882929,27.0367643 C25.6597719,27.0607821 25.6335744,27.0835824 25.6098582,27.1048866 C25.6139604,27.1971794 25.6194743,27.30612 25.6265095,27.4349306 C25.6281772,27.4654645 25.675858,28.3007913 25.6915094,28.5986143 C25.8673129,31.9438893 25.8257796,34.8780417 25.3932064,38.0807286 C24.5951675,43.9894617 28.7241098,49.1409884 33.7834026,49.1456827 C33.8175882,49.0002219 33.8550374,48.8519631 33.8956781,48.7006525 Z"/>
        <path fill="#FFF" d="M34.1373995 26.0522603C35.2247551 26.2269935 36.0827918 26.7806228 35.9936281 27.5197397 35.8998496 28.2963483 34.8260346 29.1365052 33.8623341 28.9813173 32.891407 28.8258757 31.9128606 27.6394691 32.0061864 26.8765953L32.0497759 26.5202813 32.1370157 26.5202813C32.4483704 26.0579686 33.2500493 25.9092537 34.1373995 26.0522603zM32.7168403 26.9928405C32.7144868 27.0101637 32.7093398 27.0244558 32.7043161 27.0327263 32.7063834 27.0299956 32.7091287 27.0269598 32.7132825 27.0230032L32.7168403 26.9928405zM62.9949118 25.5397902C63.0794476 26.033414 62.0911784 26.878033 61.1245314 26.9870595 60.1689595 27.0954056 59.0928532 26.5024222 59.0044753 25.9920853 58.9305092 25.5491267 59.7826362 25.1617945 60.8755466 25.0379001 61.9685562 24.9139945 62.9188278 25.0971401 62.9949118 25.5397902zM65.3541002 23.239209C65.4208245 24.3480313 65.3423947 25.3268356 65.1162823 26.720042 65.0929578 26.8637571 65.0677865 27.0143819 65.0370732 27.1947951 65.0249975 27.2657291 65.0125549 27.3384219 64.9958508 27.435725 64.9749998 27.5571145 64.9636102 27.623427 64.9539947 27.6795186 64.6757693 29.3025441 64.5563804 30.2256288 64.5137878 31.4231392 64.469042 32.6581344 64.5568283 33.5823846 64.8720581 35.9359885 65.2103622 38.4618726 65.3001838 39.6824794 65.1647035 41.1218519 64.9906746 42.9707739 64.3923027 44.6024307 63.221842 46.1698507 62.8189002 46.7094493 62.9800917 47.4397761 63.5818732 47.8010813 64.1836547 48.1623865 64.9981438 48.0178512 65.4010855 47.4782526 66.8293246 45.5656293 67.568003 43.5513807 67.778066 41.3196247 67.9332468 39.6709504 67.835021 38.336139 67.4760008 35.6555813 67.1774657 33.4266249 67.0962256 32.5712958 67.1350835 31.4987995 67.1735086 30.4184691 67.2828495 29.5730735 67.5462042 28.036796 67.5557514 27.9811027 67.5670689 27.9152099 67.5879738 27.7935061 67.6048306 27.695314 67.6174238 27.6217414 67.629695 27.5496587 67.6612559 27.3642666 67.6872868 27.2084985 67.7115983 27.0587013 67.9605757 25.5246105 68.0505355 24.4019121 67.9729444 23.1125036 67.9339235 22.4640563 67.3160427 21.9667499 66.5928689 22.0017387 65.869695 22.0367274 65.3150794 22.5907618 65.3541002 23.239209z"/>
      </g>
      <g transform="translate(121 94)">
        <polygon fill="#5294CF" points="68.452 11.449 74.681 14.36 74.681 66.752 68.452 69.857 58.719 40.75"/>
        <polygon fill="#205B99" points="6.548 11.449 .319 14.36 .319 66.752 6.548 69.857 21.927 40.75"/>
        <polygon fill="#205B99" points="37.5 62.289 68.452 69.857 68.452 11.449 37.5 19.017"/>
        <polygon fill="#5294CF" points="37.5 62.289 6.548 69.857 6.548 11.449 37.5 19.017"/>
        <polygon fill="#5294CF" points="44.897 81.5 56.772 75.485 56.772 6.015 44.897 0 33.217 38.81"/>
        <polygon fill="#205B99" points="30.103 81.5 18.228 75.485 18.228 6.015 30.103 0 40.615 40.75"/>
        <rect width="14.795" height="81.5" x="30.103" fill="#2E73B8"/>
      </g>
      <g fill-rule="nonzero" transform="translate(39.5)">
        <path fill="#4479A1" d="M29.7474378,76.2691685 L24.9883544,76.2691685 C24.8200622,68.2462609 24.3565689,60.7037174 23.5987941,53.6360272 L23.5564911,53.6360272 L16.3107293,76.2691685 L12.6873885,76.2691685 L5.48484926,53.6360272 L5.44346593,53.6360272 C4.90916111,60.4217446 4.57257667,67.966125 4.43279296,76.2691685 L0.0949,76.2691685 C0.374467407,66.172337 1.07706444,56.7065 2.19993222,47.8707391 L8.09843667,47.8707391 L14.9634719,68.7376467 L15.0057748,68.7376467 L21.913113,47.8707391 L27.55688,47.8707391 C28.7928622,58.2201522 29.5230481,67.6869076 29.7474378,76.2691685 L29.7474378,76.2691685 Z M50.3866856,55.3168424 C48.4490259,65.8187228 45.8924556,73.4494402 42.7197333,78.2126685 C40.2477689,81.8792337 37.5394596,83.7143533 34.5902074,83.7143533 C33.8039241,83.7143533 32.8337148,83.4773859 31.6841778,83.007125 L31.6841778,80.4748804 C32.2460715,80.5557065 32.9054459,80.6016304 33.6632207,80.6016304 C35.0408259,80.6016304 36.14806,80.2232174 36.99228,79.4645543 C38.0020333,78.5405652 38.50691,77.5017663 38.50691,76.35275 C38.50691,75.5646957 38.1133085,73.9536848 37.3279448,71.5142065 L32.1053681,55.3159239 L36.7807652,55.3159239 L40.5291756,67.4306522 C41.3715563,70.1814946 41.7228548,72.1020326 41.5821515,73.1959402 C43.6320059,67.7282391 45.0638693,61.7663967 45.8795807,55.3150054 L50.3866856,55.3150054 L50.3866856,55.3168424 L50.3866856,55.3168424 Z"/>
        <path fill="#E97B00" d="M113.735373,76.2691685 L100.216817,76.2691685 L100.216817,47.8707391 L104.764386,47.8707391 L104.764386,72.7734402 L113.735373,72.7734402 L113.735373,76.2691685 Z M96.6780822,76.9552717 L91.4509074,74.3789402 C91.9144007,73.9986902 92.3576622,73.587212 92.7567815,73.1105217 C94.9786067,70.5038804 96.0867604,66.6490272 96.0867604,61.5432065 C96.0867604,52.1480924 92.395367,47.4482391 85.0098215,47.4482391 C81.38832,47.4482391 78.5632178,48.6404239 76.5427915,51.025712 C74.3228056,53.6341902 73.2146519,57.4752663 73.2146519,62.5535326 C73.2146519,67.545462 74.1968163,71.2074348 76.1620648,73.5302663 C77.9599407,75.6345 80.6700893,76.6879946 84.2943496,76.6879946 C85.6462052,76.6879946 86.8867856,76.5226685 88.0170104,76.1892609 L94.8222696,80.1460652 L96.6780822,76.9552717 Z M79.7449419,70.5865435 C78.5935656,68.7367283 78.0178774,65.7663696 78.0178774,61.670875 C78.0178774,54.5205217 80.1928015,50.941212 84.5472478,50.941212 C86.8233311,50.941212 88.4915393,51.7972337 89.5583096,53.5056033 C90.7078467,55.3581739 91.2862937,58.3018967 91.2862937,62.3404457 C91.2862937,69.5495815 89.1095304,73.1546087 84.757843,73.1546087 C82.48084,73.1555272 80.8126319,72.3022609 79.7449419,70.5865435 L79.7449419,70.5865435 Z M71.23285,68.3978098 C71.23285,70.8060598 70.3481663,72.7817065 68.5806381,74.3293424 C66.8112707,75.8705489 64.4386263,76.6429891 61.4654637,76.6429891 C58.6845037,76.6429891 55.9881496,75.7557391 53.3782407,73.9904239 L54.6004285,71.5518641 C56.8461641,72.675163 58.8794652,73.2335978 60.70493,73.2335978 C62.4182,73.2335978 63.7571807,72.8542663 64.7283096,72.1020326 C65.6985189,71.3470435 66.2769659,70.288038 66.2769659,68.9488967 C66.2769659,67.2616522 65.0989204,65.8196413 62.9377907,64.6118424 C60.9449533,63.5188533 56.9592785,61.2336793 56.9592785,61.2336793 C54.7990685,59.6612446 53.7175841,57.9730815 53.7175841,55.1919293 C53.7175841,52.8902228 54.5240993,51.0321413 56.1380493,49.6186033 C57.7538385,48.1995543 59.8386389,47.4923261 62.3942896,47.4923261 C65.0336267,47.4923261 67.4329404,48.1986359 69.59407,49.5965598 L68.4978715,52.036038 C66.6494159,51.2516576 64.8248707,50.8594674 63.0251556,50.8594674 C61.5675426,50.8594674 60.4419159,51.2094076 59.6593111,51.9120435 C58.8702689,52.6119239 58.3837848,53.5074402 58.3837848,54.6059402 C58.3837848,56.2849185 59.5866604,57.7452989 61.8066463,58.9769783 C63.826153,60.0718043 67.9111478,62.3964728 67.9111478,62.3964728 C70.1265356,63.9661522 71.23285,65.6387011 71.23285,68.3978098 L71.23285,68.3978098 Z"/>
        <path fill="#3C7BA0" d="M119.444433,38.3589783 C116.694741,38.2891739 114.565798,38.5656359 112.778958,39.320625 C112.263046,39.5263641 111.442736,39.5263641 111.371005,40.1775652 C111.649653,40.4531087 111.68184,40.8976522 111.923702,41.2779022 C112.335696,41.9640054 113.053927,42.8870761 113.709623,43.3683587 C114.429693,43.9194457 115.152522,44.4650217 115.910297,44.9453859 C117.246519,45.7710978 118.761149,46.251462 120.063344,47.0744185 C120.822039,47.5529457 121.576135,48.172 122.335749,48.6872663 C122.709119,48.9618913 122.948222,49.4073533 123.432867,49.5791087 L123.432867,49.4744022 C123.190085,49.1657935 123.121113,48.719413 122.882929,48.3759022 L121.851104,47.3821087 C120.854226,46.0448043 119.615484,44.8774185 118.279263,43.9185272 C117.179386,43.1617011 114.773634,42.1330054 114.327614,40.8673424 L114.257722,40.797538 C115.013658,40.7268152 115.910297,40.4531087 116.628527,40.2427772 C117.797377,39.935087 118.863227,40.0048913 120.062424,39.6972011 C120.614202,39.5594293 121.161382,39.3867554 121.714999,39.216837 L121.714999,38.9073098 C121.093329,38.2891739 120.650068,37.4680543 119.996211,36.8839022 C118.247076,35.3748424 116.319532,33.8988478 114.327614,32.6634946 C113.260844,31.9755543 111.888756,31.5328478 110.753014,30.9477772 C110.343779,30.7411196 109.654056,30.6391685 109.413113,30.2956576 C108.796961,29.5406685 108.450261,28.546875 108.003321,27.6531957 C107.010121,25.7675598 106.04543,23.6752663 105.188335,21.68125 C104.568504,20.3439457 104.191456,19.0084783 103.435521,17.771288 C99.8949467,11.9389511 96.0499752,8.4064837 90.1404352,4.93922826 C88.8704267,4.21730435 87.3594752,3.90961413 85.7455252,3.53120109 L83.1678033,3.3952663 C82.6178648,3.154625 82.0670067,2.50158696 81.58696,2.19297826 C79.6263096,0.958543478 74.5784626,-1.7169837 73.1364833,1.8154837 C72.2076574,4.04830435 74.51041,6.24346739 75.3012915,7.37595109 C75.8852563,8.16216848 76.6421115,9.0567663 77.050427,9.94952717 C77.2922896,10.5327609 77.3603422,11.1518152 77.6022048,11.7681141 C78.1521433,13.2780924 78.6662163,14.9579891 79.3890452,16.3669348 C79.7660933,17.0851848 80.1771678,17.8401739 80.6590537,18.4904565 C80.9349426,18.8707065 81.4149893,19.038788 81.519827,19.6587609 C81.0407,20.3421087 81.0029952,21.3735598 80.7280259,22.2314185 C79.4920437,26.1083152 79.9748493,30.911038 81.7267437,33.7601576 C82.274843,34.6180163 83.5825563,36.5064076 85.3316919,35.7826467 C86.8803481,35.1654293 86.5373263,33.2099891 86.982427,31.4951902 C87.0845059,31.0809565 87.017373,30.809087 87.22337,30.5372174 L87.22337,30.6042663 C87.702497,31.5640761 88.1862222,32.4889837 88.6304033,33.4515489 C89.6962541,35.1314457 91.5520667,36.8820652 93.0979641,38.0457772 C93.9210326,38.6666685 94.57305,39.7284293 95.6039548,40.1077609 L95.6039548,40.0048913 L95.5359022,40.0048913 C95.3271463,39.6972011 95.0218293,39.5594293 94.7477796,39.320625 C94.1279493,38.7024891 93.4419056,37.9475 92.9609393,37.2623152 C91.5207993,35.3399402 90.2461926,33.2118261 89.1150481,31.0157446 C88.5614311,29.9503098 88.0841433,28.7856793 87.638123,27.7220815 C87.4302867,27.3115217 87.4302867,26.6924674 87.0854256,26.4858098 C86.5685937,27.2398804 85.815417,27.8929185 85.4383689,28.8169076 C84.7845122,30.2947391 84.7164596,32.1124076 84.4736774,34.0026359 L84.3384919,34.0687663 C83.2441326,33.7941413 82.8634059,32.6634946 82.4477333,31.7036848 C81.4186678,29.2660435 81.2457774,25.3533261 82.1387378,22.5409457 C82.3778415,21.8217772 83.4124248,19.5568098 82.9995111,18.871625 C82.7925944,18.214913 82.1047115,17.8410924 81.7276633,17.3239891 C81.2844019,16.6737065 80.7988374,15.85075 80.4898419,15.1288261 C79.6658537,13.208288 79.2511007,11.0801739 78.3636581,9.16055435 C77.9489052,8.26595652 77.2288352,7.34013043 76.64579,6.51625543 C75.9910137,5.59042935 75.2709437,4.93830978 74.7531922,3.84072826 C74.5821411,3.4632337 74.3421178,2.8460163 74.617087,2.43545652 C74.68422,2.15991304 74.8240037,2.05704348 75.0980533,1.98815761 C75.5431541,1.6125 76.8150019,2.0901087 77.2610222,2.2967663 C78.5347093,2.81111413 79.5996404,3.29147826 80.6627322,4.01156522 C81.1436985,4.35599457 81.6596107,5.00811413 82.2766822,5.17986957 L82.9995111,5.17986957 C84.0966293,5.41867391 85.3335311,5.246 86.3662752,5.55644565 C88.1862222,6.14059783 89.8351181,6.99753804 91.3138826,7.92244565 C95.8136304,10.7724837 99.5243359,14.8220543 102.029407,19.6587609 C102.440481,20.4468152 102.615211,21.1687391 102.99042,21.9907772 C103.714169,23.6734293 104.608968,25.3891467 105.327199,27.0359783 C106.049108,28.6479076 106.736991,30.2938207 107.767896,31.632962 C108.281969,32.3530489 110.347457,32.7305435 111.273524,33.108038 C111.958648,33.4157283 113.025419,33.6894348 113.64341,34.0669293 C114.812259,34.7860978 115.97651,35.6118098 117.075467,36.4026196 C117.622647,36.8140978 119.342354,37.6719565 119.444433,38.3589783 M84.4010267,8.5415 C83.9267318,8.53657621 83.4538861,8.59464273 82.994913,8.71417391 L82.994913,8.78305978 L83.0611263,8.78305978 C83.3379348,9.3313913 83.8189011,9.7116413 84.161923,10.1901685 C84.4387315,10.740337 84.6787548,11.285913 84.9500456,11.835163 L85.0162589,11.7671957 C85.5009037,11.4246033 85.7418467,10.8753533 85.7418467,10.0514783 C85.5330907,9.809 85.5009037,9.57203261 85.3270937,9.3313913 C85.1247752,8.98788043 84.6787548,8.81704348 84.4010267,8.5415"/>
        <path fill="#EE7C11" d="M122.716476,76.2645761 L123.428269,76.2645761 L123.428269,72.7853804 L122.360579,72.7853804 L121.48969,75.1596467 L120.543391,72.7853804 L119.515245,72.7853804 L119.515245,76.2645761 L120.187494,76.2645761 L120.187494,73.6175217 L120.225199,73.6175217 L121.21656,76.2645761 L121.728793,76.2645761 L122.716476,73.6175217 L122.716476,76.2645761 Z M116.982585,76.2645761 L117.735761,76.2645761 L117.735761,73.3750435 L118.721604,73.3750435 L118.721604,72.784462 L115.955359,72.784462 L115.955359,73.3750435 L116.980746,73.3750435 L116.982585,76.2645761 Z"/>
      </g>
    </g>
  </g>
</svg>
