<?xml version="1.0" encoding="UTF-8" standalone="no"?>
<svg width="120px" height="50px" viewBox="0 0 120 50" version="1.1" xmlns="http://www.w3.org/2000/svg" xmlns:xlink="http://www.w3.org/1999/xlink">
    <!-- Generator: Sketch 3.7 (28169) - http://www.bohemiancoding.com/sketch -->
    <title>Hull</title>
    <defs></defs>
    <g id="Page-1" stroke="none" stroke-width="1" fill="none" fill-rule="evenodd">
        <g id="Artboard-1">
            <g id="Group-2" transform="translate(0.000000, 2.000000)">
                <g id="Group">
                    <path d="M9.003604,5.93735632 L3.98202447,5.93735632 L5.45228031,0.311724138 L16.9050056,0.311724138 L11.6387097,23.1777011 C13.4750612,20.3658621 16.5995996,17.7963218 19.8455172,17.7963218 C23.7042047,17.7963218 27.0127697,20.5475862 27.0127697,25.8058621 C27.0127697,27.1502299 26.828743,28.6177011 26.3393103,30.2668966 L24.3776641,37.3013793 C24.1955951,38.0341379 24.0722581,38.6437931 24.0722581,39.1928736 C24.0722581,40.416092 24.5616908,41.0296552 25.4798665,41.0296552 C26.4,41.0296552 27.5648498,40.3555172 28.9117686,36.6272414 L31.6056062,37.6648276 C30.0139711,43.2298851 27.1341491,45.5512644 23.520178,45.5512644 C19.2934372,45.5512644 17.273059,43.0462069 17.273059,39.6227586 C17.273059,38.6437931 17.3944383,37.6042529 17.701802,36.5647126 L19.7221802,29.3504598 C19.9668966,28.5551724 20.0295439,27.8224138 20.0295439,27.1502299 C20.0295439,24.8268966 18.6199778,23.421954 16.3548832,23.421954 C13.4750612,23.421954 11.454683,25.3173563 10.4738598,29.5341379 L6.85988877,45.0627586 L0,45.0627586 L9.003604,5.93735632" id="Fill-1" fill="#202529"></path>
                    <path d="M86.7372636,39.5016092 C86.7372636,38.5832184 86.8566852,37.6042529 87.1014016,36.5647126 L94.2060067,5.93735632 L89.1844271,5.93735632 L90.6566407,0.311724138 L102.291435,0.311724138 L93.9025584,36.5041379 C93.657842,37.6042529 93.4718576,38.4601149 93.4718576,39.1342529 C93.4718576,40.4766667 93.9025584,41.0296552 94.8814238,41.0296552 C95.9836263,41.0296552 97.1465184,40.3555172 98.4953949,36.6272414 L101.19119,37.6648276 C99.352881,43.9626437 96.2890323,45.5512644 92.7983982,45.5512644 C88.6343048,45.5512644 86.7372636,43.1673563 86.7372636,39.5016092" id="Fill-4" fill="#202529"></path>
                    <path d="M104.376418,39.5016092 C104.376418,38.5832184 104.497798,37.6042529 104.744472,36.5647126 L111.847119,5.93735632 L106.823582,5.93735632 L108.295795,0.311724138 L119.934505,0.311724138 L111.543671,36.5041379 C111.298954,37.6042529 111.11297,38.4601149 111.11297,39.1342529 C111.11297,40.4766667 111.543671,41.0296552 112.522536,41.0296552 C113.624739,41.0296552 114.789588,40.3555172 116.134549,36.6272414 L118.832303,37.6648276 C116.993993,43.9626437 113.932102,45.5512644 110.439511,45.5512644 C106.273459,45.5512644 104.376418,43.1673563 104.376418,39.5016092" id="Fill-5" fill="#202529"></path>
                    <g id="Group-3" transform="translate(35.000000, 21.000000)">
                        <path d="M49.8343493,2.33793103 C49.8030256,1.7145977 49.7384205,1.23977011 49.6973081,0.917356322 C49.6503226,0.591034483 49.6268298,0.41908046 49.6268298,0.41908046 C49.6268298,0.41908046 49.5974638,0.591034483 49.5426474,0.911494253 C49.5152392,1.07172414 49.4839155,1.27298851 49.4447608,1.50356322 C49.3977753,1.73218391 49.348832,1.99597701 49.2998888,2.28712644 C49.1863404,2.86942529 49.0258065,3.56896552 48.818287,4.33885057 C48.6088098,5.11264368 48.3268966,5.95482759 47.9568854,6.79701149 C47.5849166,7.64114943 47.1170189,8.48333333 46.5238265,9.23758621 C45.930634,9.9937931 45.2258509,10.665977 44.4114349,11.2267816 C43.5950612,11.7895402 42.6827586,12.2467816 41.7058509,12.6278161 C40.7328587,13.0049425 39.6952614,13.3136782 38.636129,13.5774713 C37.5789544,13.8608046 36.4924138,14.0894253 35.4117464,14.3512644 C34.3291212,14.6033333 33.2484538,14.8905747 32.1971524,15.2383908 C31.1497664,15.5822989 30.1278309,16.0043678 29.1842047,16.5573563 C28.2425362,17.1122989 27.3811346,17.8098851 26.7155061,18.652069 C26.0420467,19.4805747 25.6074305,20.4497701 25.3587987,21.3154023 C25.2746162,21.6124138 25.217842,21.8937931 25.1708565,22.1712644 C25.123871,21.8937931 25.0670968,21.6124138 24.9829143,21.3173563 C24.7342825,20.4517241 24.2996663,19.4805747 23.6242492,18.655977 C22.9605784,17.8157471 22.0991769,17.1181609 21.1594661,16.5612644 C20.2177976,16.0082759 19.1939043,15.5862069 18.1445606,15.2403448 C17.0952169,14.8925287 16.0145495,14.6111494 14.9319244,14.3571264 C13.8532147,14.0913793 12.7647164,13.8608046 11.7075417,13.5774713 C10.6464516,13.3136782 9.61276974,13.0029885 8.63977753,12.6278161 C7.66286986,12.2409195 6.74860957,11.7895402 5.93615128,11.2248276 C5.12173526,10.662069 4.41499444,9.98988506 3.82375973,9.23367816 C3.2305673,8.48137931 2.76462736,7.63724138 2.39070078,6.79505747 C2.01873192,5.95287356 1.74073415,5.11264368 1.52929922,4.33885057 C1.32177976,3.56896552 1.1592881,2.87137931 1.04769744,2.28712644 C0.99679644,1.99402299 0.94785317,1.73022989 0.8989099,1.49965517 C0.861713014,1.26908046 0.828431591,1.07172414 0.80298109,0.911494253 C0.746206897,0.591034483 0.716840934,0.41908046 0.716840934,0.41908046 C0.716840934,0.41908046 0.691390434,0.591034483 0.646362625,0.917356322 C0.605250278,1.24172414 0.540645161,1.72241379 0.509321468,2.33793103 C0.474082314,2.9554023 0.448631813,3.71356322 0.497575083,4.58896552 C0.546518354,5.46827586 0.673770857,6.46482759 0.934149055,7.53563218 C1.20040044,8.60057471 1.61152392,9.74758621 2.23799778,10.8281609 C2.8625139,11.9087356 3.68280311,12.9170115 4.64404894,13.7298851 C5.12173526,14.146092 5.63074527,14.5134483 6.15737486,14.8378161 C6.68204672,15.166092 7.22825362,15.4572414 7.78229143,15.6995402 C8.88645161,16.2114943 10.0278087,16.5573563 11.1535039,16.8582759 C12.2831146,17.1377011 13.4029366,17.3643678 14.4914349,17.5578161 C15.0298109,17.6516092 15.5662291,17.7473563 16.0948165,17.8391954 C16.6136151,17.9388506 17.1245829,18.0385057 17.6296774,18.1342529 C18.6242047,18.3413793 19.5639155,18.5758621 20.4076974,18.8982759 C21.2514794,19.2187356 21.9993326,19.6193103 22.6062291,20.1293103 C23.8454727,21.12 24.4739043,22.6109195 24.7773526,23.7188506 C24.8537041,24.0021839 24.9183092,24.2542529 24.963337,24.4770115 C25.0181535,24.6997701 25.0592659,24.8951724 25.0827586,25.0593103 C25.1414905,25.3778161 25.1708565,25.5517241 25.1708565,25.5517241 C25.1708565,25.5517241 25.2021802,25.3778161 25.2628699,25.0593103 C25.2844049,24.8971264 25.327475,24.7056322 25.378376,24.4809195 C25.4273192,24.2542529 25.4919244,24.0021839 25.5682759,23.7208046 C25.7248943,23.1678161 25.9539488,22.5210345 26.3043826,21.884023 C26.6567742,21.2489655 27.1187987,20.6256322 27.7393993,20.1312644 C28.3443382,19.6212644 29.0961068,19.2206897 29.937931,18.9021839 C30.781713,18.5817241 31.7194661,18.3472414 32.7159511,18.1381609 C33.2190879,18.0424138 33.7300556,17.9427586 34.2488543,17.8450575 C34.7813571,17.7493103 35.3158176,17.6535632 35.8522358,17.5597701 C36.9407341,17.3702299 38.0605562,17.1396552 39.1901669,16.8582759 C40.3158621,16.5573563 41.4591769,16.2075862 42.5613793,15.6975862 C43.1154171,15.4533333 43.661624,15.1641379 44.1862959,14.833908 C44.7129255,14.5134483 45.2219355,14.1402299 45.6976641,13.7298851 C46.6589099,12.9131034 47.4791991,11.9028736 48.1017575,10.8242529 C48.7301891,9.74172414 49.1413126,8.59666667 49.4056062,7.53367816 C49.6679422,6.46482759 49.7932369,5.46827586 49.8441379,4.58896552 C49.8930812,3.71356322 49.8695884,2.9554023 49.8343493,2.33793103" id="Fill-7" fill="#202529"></path>
                        <path d="M41.2085873,1.28275862 C41.18901,0.874367816 41.1478977,0.561724138 41.1204894,0.350689655 C41.0891657,0.141609195 41.0735039,0.0263218391 41.0735039,0.0263218391 C41.0735039,0.0263218391 41.0558843,0.137701149 41.0186874,0.348735632 C41.0010679,0.456206897 40.9814905,0.583218391 40.95604,0.737586207 C40.9247164,0.886091954 40.8933927,1.05804598 40.8601112,1.24954023 C40.7896329,1.63057471 40.6819577,2.08977011 40.5468743,2.59390805 C40.4117909,3.1 40.2297219,3.65103448 39.9869633,4.20206897 C39.7442047,4.75310345 39.4407564,5.30804598 39.0550834,5.80045977 C38.6733259,6.29287356 38.2093437,6.73448276 37.6787987,7.1037931 C37.1502113,7.47114943 36.5589766,7.77011494 35.9246719,8.01827586 C35.2884093,8.2683908 34.6188654,8.46965517 33.9258287,8.64356322 C33.2386652,8.82528736 32.5338821,8.97770115 31.829099,9.14770115 C31.1243159,9.3137931 30.4234483,9.50137931 29.7402002,9.72609195 C29.0589099,9.95471264 28.3932814,10.2302299 27.7785539,10.5936782 C27.1696997,10.9551724 26.6078309,11.4143678 26.1771301,11.9654023 C25.7366407,12.5066667 25.4527697,13.1397701 25.2922358,13.7064368 C25.2393771,13.9018391 25.2002225,14.0855172 25.1708565,14.2672414 C25.1414905,14.0874713 25.1042937,13.9018391 25.0475195,13.7083908 C24.8869855,13.1417241 24.6031146,12.5086207 24.1665406,11.9673563 C23.7338821,11.4163218 23.1739711,10.9571264 22.5631591,10.5956322 C21.9484316,10.2341379 21.2847608,9.95666667 20.6015128,9.73 C19.9202225,9.50333333 19.2173971,9.31770115 18.512614,9.1516092 C17.8117464,8.97770115 17.1050056,8.82528736 16.4158843,8.64356322 C15.7267631,8.46965517 15.0533037,8.26448276 14.4209566,8.01827586 C13.7866518,7.7662069 13.1915017,7.47114943 12.6648721,7.09988506 C12.134327,6.73252874 11.6742603,6.29287356 11.2905451,5.79655172 C10.9048721,5.30609195 10.5994661,4.75114943 10.3567075,4.20206897 C10.1159066,3.65103448 9.9338376,3.1 9.79679644,2.59390805 C9.66171301,2.08977011 9.55795328,1.63057471 9.48551724,1.24954023 C9.45223582,1.05609195 9.41895439,0.884137931 9.3876307,0.733678161 C9.36413793,0.583218391 9.34260289,0.452298851 9.32498331,0.348735632 C9.28974416,0.137701149 9.26820912,0.0263218391 9.26820912,0.0263218391 C9.26820912,0.0263218391 9.25450501,0.141609195 9.22318131,0.350689655 C9.19773081,0.563678161 9.15466073,0.878275862 9.13508343,1.28275862 C9.11159066,1.68724138 9.09592881,2.18356322 9.1272525,2.75804598 C9.1585762,3.33057471 9.24080089,3.98321839 9.41112347,4.68471264 C9.58340378,5.38425287 9.8516129,6.13068966 10.2588209,6.84195402 C10.6640712,7.54735632 11.1985317,8.20977011 11.8230478,8.74321839 C12.1323693,9.01482759 12.4651835,9.25517241 12.8077864,9.4662069 C13.1484316,9.68505747 13.5027809,9.87264368 13.8630033,10.0328736 C14.5814905,10.3650575 15.3234705,10.5936782 16.0576196,10.7890805 C16.7917686,10.9747126 17.5180868,11.1212644 18.2248276,11.2482759 C18.5772191,11.3088506 18.9237375,11.3713793 19.2682981,11.431954 C19.6069855,11.4983908 19.937842,11.5628736 20.2667408,11.6234483 C20.912792,11.7602299 21.5255617,11.9126437 22.0737264,12.1256322 C22.621891,12.3308046 23.109366,12.5965517 23.5028699,12.9306897 C24.3074972,13.5813793 24.716663,14.5564368 24.9143938,15.2833333 C24.9652948,15.4689655 25.0064071,15.6331034 25.0377308,15.7777011 C25.07297,15.9222989 25.0984205,16.0551724 25.1121246,16.1567816 C25.1512792,16.3697701 25.1708565,16.4791954 25.1708565,16.4791954 C25.1708565,16.4791954 25.1923915,16.3697701 25.2315462,16.1587356 C25.2452503,16.0551724 25.2726585,15.9262069 25.3059399,15.7796552 C25.3372636,15.6331034 25.378376,15.4650575 25.429277,15.2833333 C25.531079,14.9218391 25.6798665,14.4958621 25.9069633,14.0796552 C26.1360178,13.6634483 26.4355506,13.2550575 26.8427586,12.9326437 C27.2362625,12.5985057 27.7237375,12.3347126 28.2699444,12.1275862 C28.8200667,11.9165517 29.4308788,11.7641379 30.0769299,11.6273563 C30.403871,11.5628736 30.7386429,11.5003448 31.0734149,11.4358621 C31.4179755,11.3733333 31.7664516,11.3108046 32.1188432,11.2482759 C32.825584,11.1212644 33.5519021,10.9747126 34.2899666,10.7890805 C35.022158,10.5936782 35.7641379,10.3631034 36.4806674,10.0309195 C36.8408899,9.87264368 37.1913237,9.6791954 37.537842,9.46425287 C37.8804449,9.25321839 38.2093437,9.01091954 38.5206229,8.73931034 C39.1412236,8.20586207 39.6776418,7.5454023 40.0828921,6.83804598 C40.4920578,6.13068966 40.7563515,5.38425287 40.9305895,4.68471264 C41.1009121,3.98321839 41.1811791,3.33057471 41.2144605,2.75609195 C41.2457842,2.18356322 41.2281646,1.68724138 41.2085873,1.28275862" id="Fill-9" fill="#212528" opacity="0.5"></path>
                    </g>
                </g>
            </g>
        </g>
    </g>
</svg>
