<svg height="257" viewBox="0 0 257 257" width="257" xmlns="http://www.w3.org/2000/svg"><g fill="none" fill-rule="evenodd" transform="translate(3 3)"><circle cx="125.5" cy="125.5" fill="#def6ec" r="125.5"/><path d="m2.80238121 151.997112c-1.83586916-8.54186-2.80238121-17.406615-2.80238121-26.497112 0-69.3117361 56.1882639-125.5 125.5-125.5 69.311736 0 125.5 56.1882639 125.5 125.5 0 9.090497-.966512 17.955252-2.802381 26.497112-24.034702-42.957146-69.974837-71.997112-122.697619-71.997112s-98.6629166 29.039966-122.69761879 71.997112z" fill="#9eecc6"/><path d="m2.80238121 99.0028882c24.03470219 42.9571458 69.97483679 71.9971118 122.69761879 71.9971118s98.662917-29.039966 122.697619-71.9971118c1.835869 8.5418598 2.802381 17.4066148 2.802381 26.4971118 0 69.311736-56.188264 125.5-125.5 125.5-69.3117361 0-125.5-56.188264-125.5-125.5 0-9.090497.96651205-17.955252 2.80238121-26.4971118z" fill="#21df8c"/></g></svg>