<svg xmlns="http://www.w3.org/2000/svg" xmlns:xlink="http://www.w3.org/1999/xlink" width="640" height="360" viewBox="0 0 640 360">
  <defs>
    <rect id="picture-a" width="640" height="360"/>
  </defs>
  <g fill="none" fill-rule="evenodd">
    <mask id="picture-b" fill="#fff">
      <use xlink:href="#picture-a"/>
    </mask>
    <g mask="url(#picture-b)">
      <g transform="translate(54 123)">
        <path fill="#000" fill-rule="nonzero" d="M73.4741903,11.7659492 L73.1748794,11.9271393 C73.2216905,11.9049464 73.283963,11.8683937 73.4741903,11.7659492 Z M54.3405024,90.1579482 L54.343713,90.2538424 C54.3426459,90.2217204 54.3415757,90.1897562 54.3405024,90.1579482 Z M83.0952271,87.4761155 C83.1040723,87.4028458 83.3608312,85.2150714 83.4314973,84.6690626 C83.6080003,83.3052952 83.7752999,82.3829463 84.0505086,81.4959438 C84.5299229,79.9507831 85.3174622,78.6537569 86.6564175,77.6693146 C88.0255027,76.66272 89.5557063,76.2950683 91.2189818,76.3299955 C91.494963,76.3357908 91.7728809,76.3521413 92.0601576,76.3791936 C90.9749511,75.2863044 90.3478294,74.0575781 90.1088698,72.8873579 L89.6830729,70.8021683 L90.8790258,69.0377552 C97.3983626,59.4196483 102.518622,47.9489307 105.24448,37.4550133 C106.481855,32.6914049 107.148057,28.3855385 107.200647,24.989154 C107.224813,23.4284766 107.117526,22.1169873 106.900618,21.1122635 C106.809703,20.6911394 106.70412,20.3460499 106.593228,20.082446 C106.52109,19.910965 106.462831,19.8093019 106.433103,19.7715335 C101.229349,13.1600775 94.0318944,10.263176 85.4874117,10.1617266 C82.3713692,10.1247295 79.294571,10.4730288 76.4336358,11.0809223 C75.4171312,11.29691 74.5003666,11.5312483 73.728114,11.760291 C73.5049635,11.8264752 73.3088336,11.8879065 73.150634,11.9401964 L72.7635827,12.148638 L70.8523503,12.4995388 L69.8717519,12.2972328 C67.4057175,11.7884684 64.6762502,11.5012521 61.6581513,11.452733 C56.9283699,11.3754562 53.2385953,12.5346681 50.31244,14.7415349 L47.9828042,16.4985148 L45.2792968,15.3910268 C45.2412842,15.375455 45.1326204,15.3324306 44.9580348,15.2658514 C44.645224,15.1465591 44.2756618,15.0113701 43.8541297,14.8641714 C42.6290582,14.4363773 41.2510582,14.0059887 39.759339,13.6037834 C35.1382151,12.3578113 30.5180216,11.6669637 26.335797,11.8047231 C21.3036288,11.9704791 17.4018563,13.3227881 14.7770696,15.9593693 C11.5446077,19.2063562 9.85502766,24.7190861 10.2796184,33.159665 C10.380147,35.1585744 11.2576191,40.3245935 12.5256442,45.9517639 C14.0895305,52.8918912 16.0519978,59.8078835 18.1889712,65.5877718 C20.6265472,72.1807021 23.1781657,76.9505405 25.4257799,79.1227506 C25.8575703,79.540055 26.2248323,79.8065562 26.5017558,79.9388307 C27.1451586,79.6690621 27.6129595,79.252181 28.1530393,78.6066084 C30.5058392,75.7929331 32.9855839,72.9727817 35.4423016,70.277008 C36.3020395,69.3336114 37.0982468,68.4723228 37.8119316,67.7098882 C38.0629475,67.441726 38.2861336,67.2046445 38.479109,67.0007467 C38.5968889,66.8763004 38.6796618,66.789282 38.7250434,66.7417989 L41.6809384,63.6490301 L45.2550082,66.0100158 C46.48042,66.8195074 47.8302947,67.2958613 49.2235507,67.4093685 L57.7071322,60.215274 L56.476386,72.7403093 C56.4444339,73.0654791 56.458371,73.4049567 56.5384338,73.9187083 L69.705639,55.8761722 L63.4612252,80.7745342 C63.5066096,80.9079604 63.5499694,81.0436741 63.5916106,81.1817117 C63.8555342,82.0566007 64.0407306,83.0408186 64.1814529,84.186541 C64.3853668,85.8467522 64.4884062,87.6959633 64.5748165,90.5371652 C64.5874135,90.9513581 64.5919851,91.1118226 64.6187626,92.0659814 C64.6539847,93.3210487 64.6741916,93.9671146 64.7017295,94.6501315 C64.9385173,100.51567 65.3292606,104.028394 65.9874903,105.794964 C66.1386426,106.200552 66.6043727,107.614218 66.5917711,107.577273 C66.7949691,108.173005 66.9707949,108.622228 67.1602835,109.017484 C67.5492599,109.828856 67.9330611,110.283991 68.3669796,110.518251 C69.0462715,110.88498 70.2071112,110.997584 72.1582184,110.581805 C76.3436842,109.68996 77.9925696,108.891828 79.3588405,106.957536 C81.4864808,103.94534 82.8145781,98.0194987 83.0603217,87.9579078 L88.1644726,88.0811601 L83.0952271,87.4761155 Z M87.7197764,112.796365 C85.96412,115.281927 83.7846318,117.086169 81.1548946,118.359076 C79.1761811,119.31686 77.2140703,119.894176 74.299182,120.515284 C66.2384591,122.233019 60.7593555,119.275014 57.9375106,113.388888 C57.5492768,112.579066 57.2374433,111.782352 56.9160827,110.840194 C56.8702203,110.705736 56.4780519,109.515357 56.4069721,109.324628 C55.2335373,106.17534 54.7755288,102.057912 54.4929202,95.0573303 C54.4631897,94.3199306 54.4420706,93.6447027 54.4057181,92.3493551 C54.3792159,91.4050038 54.3747154,91.2470357 54.362465,90.8442407 C54.3563041,90.6416673 54.3500622,90.4449638 54.343713,90.2538424 C52.917961,90.7767872 51.4223587,91.2148507 49.8694185,91.4789356 C46.4454201,92.061203 43.2080482,91.7730789 39.9997532,90.9753079 C37.54937,90.3660156 35.1999806,89.2048332 33.7169493,87.3948352 C28.8173447,91.4228565 23.0576663,91.0011846 18.3046721,86.4076462 C14.6809606,82.9055048 11.5250101,77.0059656 8.59943351,69.0931362 C4.29130307,57.440903 0.403230038,40.1866303 0.0753519184,33.6671053 C-0.482110914,22.5851182 2.05905934,14.2938358 7.51588272,8.81249221 C12.2059696,4.10133046 18.5690739,1.89595254 25.9975201,1.65126487 C31.3316882,1.47556121 36.9103827,2.30973142 42.4332682,3.7988413 C43.9008093,4.19452756 45.2768108,4.61440514 46.5410332,5.03964943 C50.8574574,2.49387853 55.9714579,1.19942246 61.8246634,1.29505433 C64.9438476,1.34519831 67.8613154,1.61222153 70.5893523,2.09102089 C71.6424681,1.76900667 72.952228,1.43225972 74.2985291,1.14619669 C77.8608032,0.389282136 81.6813867,-0.0432149664 85.6094031,0.00342274208 C90.7098363,0.0639806663 95.6401941,0.932563697 100.247646,2.78701585 C105.750381,5.00181003 110.568191,8.54161963 114.478964,13.510322 C118.381073,18.4677793 118.232251,28.0790298 115.136869,39.9955325 C112.605435,49.7409653 108.249894,60.1486193 102.662757,69.5090883 C104.293997,69.4637786 106.32236,69.2118469 108.769168,68.7099487 C109.871553,68.4836641 110.867488,68.3759141 111.797681,68.407574 C113.215455,68.4558291 114.53043,68.8103384 115.714153,69.7047484 C117.373251,70.9583466 118.161825,72.9044263 117.972379,74.8717617 C117.855452,76.0860071 117.411473,77.1317592 116.756003,78.114825 C115.184347,80.4719727 111.938746,82.8761442 108.246244,84.5797449 C104.667689,86.2328143 99.0523691,87.1549888 94.499442,86.9490144 L93.4556475,86.8623819 C93.3881451,87.4269262 93.3099207,88.0901234 93.2683057,88.4427483 C92.9608429,100.19398 91.2360186,107.818263 87.7197764,112.796365 Z M93.2743302,88.2045501 L88.1644726,88.0811601 L93.2394248,88.6868859 C93.2422314,88.6636379 93.2526917,88.5750537 93.2683057,88.4427483 C93.2703782,88.3635366 93.2723864,88.2841373 93.2743302,88.2045501 Z"/>
        <path fill="#336791" fill-rule="nonzero" d="M110.590757,74.4083874 C96.8292919,77.2289039 95.883263,72.5993534 95.883263,72.5993534 C110.413206,51.1769108 116.48716,23.9843156 111.245427,17.3290819 C96.9455621,-0.82513882 72.1917768,7.76063734 71.7786756,7.98353861 L71.6457173,8.00718789 C68.92691,7.44640093 65.8841877,7.11232086 62.4644764,7.05686737 C56.2375925,6.95547448 51.5142873,8.67888182 47.9301563,11.3795209 C47.9301563,11.3795209 3.77183489,-6.69586884 5.82557669,34.1127317 C6.26247901,42.7944641 18.348833,99.8025499 32.7649679,82.5834272 C38.034059,76.2870101 43.1250516,70.9632037 43.1250516,70.9632037 C45.6537229,72.6322449 48.6808513,73.483619 51.8543434,73.1778093 L52.1008362,72.9698588 C52.0242347,73.7516442 52.0592525,74.5163042 52.1995975,75.4215008 C48.485791,79.5443587 49.5770893,80.2682442 42.1530329,81.7866911 C34.6408847,83.3249817 39.0539537,86.0636771 41.9352656,86.7794076 C45.4282955,87.6473634 53.5094837,88.8768541 58.9698051,81.2819013 L58.7520379,82.1484979 C60.2071934,83.3064972 61.2290031,89.6812015 61.057744,95.4597809 C60.8864848,101.238632 60.7721297,105.206003 61.9186905,108.304874 C63.0652513,111.403745 64.207982,118.376206 73.9675644,116.298331 C82.1226183,114.561876 86.3485607,110.061988 86.9364775,102.555924 C87.3536823,97.2196136 88.2977962,98.0084666 88.3574359,93.237564 L89.1146968,90.9789218 C89.9879543,83.7452321 89.2534003,81.4115646 94.2776401,82.496985 L95.4986138,82.6035427 C99.1965528,82.7707186 104.036402,82.0125825 106.876951,80.700727 C112.993583,77.8802105 116.621213,73.1710136 110.59021,74.4083874 L110.590757,74.4083874 Z"/>
        <path fill="#FFF" fill-rule="nonzero" d="M57.6926027 77.9939365C57.2806635 92.545862 57.845822 105.555477 59.2448651 109.012959 60.4300028 111.939999 61.553848 113.844929 63.5582174 115.513183 66.4126634 117.888962 70.2699624 118.721059 75.2172408 117.67385 83.9289913 115.828434 87.594545 112.063836 89.0415207 103.771364 89.9016952 98.8469275 91.807164 83.6191606 92.0926738 79.8576347 92.1635753 78.9235234 91.4546694 78.1094847 90.509288 78.0394284 89.5639066 77.9693721 88.7400466 78.6698271 88.669145 79.6039384 88.3918687 83.2569896 86.4998978 98.3768866 85.6583451 103.194715 84.4497447 110.121082 81.8396228 112.80173 74.4978291 114.356947 70.5540412 115.191744 67.7826583 114.5939 65.7700038 112.918751 64.310262 111.703796 63.4234228 110.200594 62.4325222 107.753278 61.2885229 104.926091 60.7291781 92.0503013 61.1244039 78.0887823 61.1509108 77.1524138 60.404164 76.3721053 59.4564983 76.3459143 58.5088326 76.3197234 57.7191096 77.0575681 57.6926027 77.9939365zM47.8562863 8.38861771C47.7671817 8.35267297 47.6060631 8.28986028 47.3774439 8.20402624 47.0037668 8.06373084 46.5717127 7.90815243 46.085778 7.74114125 44.7043908 7.26637149 43.1622455 6.79246636 41.494998 6.35033302 36.1988873 4.94587021 30.8625876 4.16759581 25.8399936 4.34688387 19.1348812 4.58623163 13.5297457 6.53041478 9.48338353 10.5748416 4.71491208 15.3410324 2.43160909 22.7379985 2.9503202 32.9735547 3.0761944 35.4581436 4.01780918 40.9609607 5.37881641 46.9562404 7.02141385 54.1919338 9.08507003 61.410912 11.3601363 67.5189366 14.15314 75.0175027 17.1398211 80.5594611 20.3392876 83.6287844 24.4906233 87.6112582 29.114702 87.4174922 33.189447 82.5825959 35.4990049 79.8402086 37.8802005 77.1539869 40.1981511 74.6370028 41.009196 73.7563166 41.7540952 72.9600163 42.4159949 72.2621989 42.6471627 72.018487 42.851283 71.8046568 43.026251 71.6224679 43.130452 71.5139665 43.2013014 71.4406138 43.2366951 71.404168 43.8945234 70.7267837 43.8714347 69.6513153 43.185125 69.002042 42.4988154 68.3527687 41.4091763 68.3755571 40.7513479 69.0529413 40.6460284 69.1618678 40.5908985 69.2191068 40.5276813 69.284933 40.3478913 69.4721429 40.1389034 69.6910722 39.9028131 69.9399738 39.22969 70.6496236 38.4733729 71.4581297 37.650612 72.3515379 35.300546 74.9033949 32.8866116 77.6265493 30.5423658 80.4101254 27.761659 83.7095781 25.4632657 83.8058893 22.7387587 81.1922057 20.0029758 78.5677049 17.2199264 73.4035971 14.591357 66.3464986 12.3736939 60.3925883 10.3499382 53.313188 8.73817677 46.2133281 7.4167472 40.3923893 6.50242402 35.0490648 6.38867629 32.8038363 5.91468616 23.4507445 7.91149643 16.9818974 11.9330087 12.9623085 15.2863168 9.61060421 20.0648366 7.95313893 25.9644215 7.74254553 30.5979041 7.57714731 35.6103552 8.30818989 40.6017015 9.63183299 42.1848278 10.0516584 43.6479534 10.5012806 44.9536555 10.9500381 45.4082021 11.1062615 45.8096793 11.2508294 46.1534488 11.3798962 46.2721334 11.4244558 46.3746765 11.4637054 46.4604999 11.497164 47.4338106 11.8889223 48.4387594 11.4725968 48.7984277 10.6040424 49.1580961 9.73548805 48.736285 8.74360861 47.8562863 8.38861771zM71.3426859 8.4300795C71.2846724 8.44830344 71.2347228 8.46276363 71.1768368 8.47658734 71.1047552 8.49599945 71.1047552 8.49599945 70.8310872 8.52393775 70.7047376 8.52740285 70.7047376 8.52740285 70.4570776 8.4956703 70.2909319 8.46071203 70.2909319 8.46071203 70.0432796 8.36113095 69.7410338 8.20018304 69.7410338 8.20018304 69.3917243 7.81801912 69.1028235 7.29251262 69.1028235 7.29251262 69.0731707 6.72529796 69.1486811 6.26350451 69.1486811 6.26350451 69.2836293 5.99578481 69.5194981 5.65386963 69.5194981 5.65386963 69.6586899 5.53290646 69.9548159 5.31939938 69.9548159 5.31939938 70.0286803 5.28794493 70.1666972 5.22569147 70.2078427 5.20919191 70.2538498 5.19153882 70.4181636 5.12849099 70.6664537 5.04262335 70.9594435 4.94855028 71.759135 4.69178549 72.7505981 4.41627195 73.8636015 4.15561623 77.1066802 3.39611538 80.6629973 2.91718761 84.3463193 2.88290785 89.1679643 2.838034 93.8202102 3.56384924 98.1428213 5.22876185 103.309041 7.21860173 107.811328 10.4813181 111.46528 15.1591312 117.678219 23.1138965 110.278679 51.8166013 96.2232667 72.7129002 95.6986933 73.4927878 94.6424125 73.6989564 93.8639974 73.1733908 93.0855824 72.6478251 92.879803 71.5895462 93.4043763 70.8096587 100.130668 60.809625 105.398989 48.9166536 108.215093 37.9930282 110.800587 27.9639354 110.923486 19.9917835 108.788297 17.2579844 102.703869 9.46866219 94.2094663 6.19692712 84.3778941 6.28842712 80.9624436 6.32021386 77.6504493 6.76623878 74.6373138 7.47188892 73.613912 7.71156072 72.7103727 7.96264148 71.9968385 8.19174289 71.8440926 8.24078652 71.710497 8.28563944 71.608374 8.32146928 71.5243778 8.36439278 71.4356726 8.40086935 71.3426859 8.4300795zM71.4695791 8.37194249C71.4843818 8.36516106 71.4843818 8.36516106 71.5299814 8.34345177 71.5921092 8.31802337 71.5921092 8.31802337 71.8828919 8.10831976 72.0212504 7.98813089 72.0212504 7.98813089 72.2566882 7.64684815 72.3914965 7.37941797 72.3914965 7.37941797 72.4669678 6.91787835 72.4373264 6.35089964 72.4373264 6.35089964 72.1485379 5.82559327 71.7993913 5.44361152 71.7993913 5.44361152 71.4974095 5.2828098 71.2500718 5.18335689 71.2500718 5.18335689 71.0843421 5.14849067 70.8376659 5.11688791 70.8376659 5.11688791 70.712706 5.12033744 70.4466294 5.14748362 70.4466294 5.14748362 70.3886807 5.16373059 70.352362 5.17240383 70.3371668 5.17680277 70.3257073 5.18040259 71.2213864 4.89904045 72.1751363 5.39841632 72.4559672 6.29578982 72.7076431 7.10000076 72.3334578 7.95093905 71.608374 8.32146928 71.5517228 8.34134533 71.5047567 8.35844471 71.4695791 8.37194249z"/>
        <path fill="#FFF" fill-rule="nonzero" d="M97.6616738 71.775631C98.3114712 72.2432542 99.3931748 72.6055527 101.022586 72.7515606 103.240439 72.9502975 106.196465 72.7124392 109.968889 71.9379332 111.864687 71.5484774 113.228215 71.5949819 114.179202 72.3147325 114.869289 72.8370217 115.190857 73.6327832 115.109631 74.4716758 115.053332 75.053134 114.816428 75.6109497 114.442202 76.1723371 113.268405 77.9331797 110.495667 79.9887574 107.311155 81.4597873 104.622102 82.7011271 100.348167 83.5043912 96.5471892 83.5459405 94.5831079 83.5674103 92.8588717 83.3832344 91.5396153 82.975397 89.713258 82.4107934 88.48772 81.3660826 88.3933662 79.7230077 88.1503275 75.4789052 89.5111345 73.0014845 92.1348851 71.8284408 92.4772959 71.6753535 92.8237477 71.5507865 93.2186503 71.4307143 93.2788838 71.4124 93.3721197 71.3852699 93.4743815 71.3559053 93.3410071 71.165637 93.1726477 70.9421958 92.962727 70.6767101 92.8873659 70.5814013 92.17566 69.6964161 91.941579 69.3972319 91.4932101 68.8241612 91.1099797 68.3026296 90.7407436 67.7515362 89.9882987 66.6284944 89.3503199 65.4600873 88.8120662 64.1620901 88.6643285 63.8059027 85.5686121 58.2803357 84.4033598 55.9728495 83.1641289 53.5188676 82.1449242 51.2268364 81.3599102 49.0441002 79.384581 43.5516854 79.0016925 39.1063769 80.8315281 35.8655243 82.8695262 32.2559915 87.2920611 30.7767058 94.1497207 31.4750358 93.9772319 30.9657023 93.7625962 30.3988859 93.5117087 29.7992177 92.3007332 26.9047598 90.494326 23.7732427 88.214406 20.8740732 81.8983092 12.8424602 73.2083551 7.90717273 62.048134 7.7251763 56.1581505 7.62910311 51.4730177 9.23953756 47.8027637 12.306748 44.6803354 14.9161436 42.3377372 18.5432666 40.6898947 22.9480556 39.4769395 26.1903631 38.7023569 29.6807505 38.2856506 33.2025291 38.1335291 34.4881792 38.0387275 35.7034135 37.9903771 36.8213782 37.9582471 37.5642935 37.9505589 38.1573711 37.9562479 38.5739265 37.9823142 39.5829355 37.2375811 40.3637511 36.2940665 40.3884582 35.3505519 40.4131654 34.5655456 39.672408 34.5407058 38.7339304 34.5320722 38.141351 34.5405883 37.4844126 34.5755827 36.675266 34.6274456 35.476082 34.7287537 34.1774433 34.8911263 32.8051568 35.337604 29.0317659 36.1696016 25.2826577 37.4865278 21.7624291 39.3262049 16.8448537 41.9848515 12.7283824 45.6040881 9.70380697 49.9129454 6.10291945 55.400734 4.21658577 62.1041705 4.32592743 74.3755876 4.5260448 83.9929659 9.98804449 90.9065864 18.7794747 93.3820444 21.9272922 95.341601 25.3243033 96.6673273 28.4930371 97.1974039 29.7600192 97.5942918 30.9245104 97.8176123 31.8383722 97.9306109 32.3007798 97.9994269 32.698623 98.0174984 33.0325337 98.0312373 33.2863916 98.0193043 33.5194986 97.9602146 33.7638472 97.8084059 34.3916089 97.3998422 34.9575591 96.5751009 35.1273065L95.9586061 35.1411886C89.0080345 34.0341892 85.2166024 35.0419548 83.8116757 37.5302442 82.5992529 39.6775865 82.9072112 43.2529598 84.5781437 47.8989978 85.3110174 49.9367578 86.2761841 52.1072658 87.4576643 54.4468871 88.5436797 56.5974648 91.7330807 62.29025 91.9717383 62.8656408 92.4207919 63.9485321 92.9522166 64.9217938 93.5849635 65.8661834 93.9029736 66.340821 94.2384179 66.7973212 94.6389687 67.3092744 94.8557941 67.586404 95.5599869 68.4620468 95.649322 68.5750284 96.5398417 69.7012644 96.9855467 70.4153667 97.2118376 71.2981771 97.3018104 71.466481 97.436432 71.613537 97.6616738 71.775631zM94.9985079 74.4587327C94.9405761 74.4756581 94.3788456 74.6329519 94.2178332 74.6819085 93.9496446 74.7634528 93.7324237 74.8415546 93.5361599 74.9293016 92.2852083 75.4885853 91.6604574 76.5980939 91.7983259 79.3898649 91.9376435 79.4953974 92.193306 79.6173578 92.5540521 79.7288795 93.4825136 80.0159058 94.8721369 80.1643397 96.5096286 80.14644 99.859805 80.1098185 103.66609 79.3944467 105.871887 78.3761914 107.865603 77.4552285 109.650286 76.2719907 110.744356 75.2503829 110.716533 75.2559011 110.688421 75.2615768 110.66002 75.2674111 103.040421 76.83177 98.2615621 76.4035471 95.6581575 74.5300214 95.5680214 74.4651554 95.4817018 74.399501 95.3991026 74.3332104 95.276016 74.3752631 95.1434075 74.4163989 94.9985079 74.4587327zM97.2109168 71.3133181C97.221564 71.3418185 97.2342384 71.3865615 97.2471345 71.4497007 97.238346 71.4066724 97.2279953 71.3643566 97.2161529 71.3227999 97.2121283 71.3155324 97.2105278 71.3122769 97.2109168 71.3133181zM50.271937 72.7100908C51.3868367 71.4135572 52.5744128 70.7191199 53.8445247 70.6038544 54.7916541 70.5179002 55.4663869 70.7019287 56.5227896 71.1566373 59.8615887 72.5948411 61.671255 77.6690309 59.4810746 80.8551406 56.809488 84.7422673 53.3386337 86.9004796 49.3662948 87.6066484 46.541211 88.108868 43.8099421 87.8547436 41.082487 87.1455437 39.0501219 86.6176293 37.0651707 85.4890998 36.3201288 84.0535091 35.655331 82.7725373 35.9685687 81.3603483 37.1221788 80.3827838 37.995172 79.6430129 39.3808228 79.0964728 41.3634916 78.6718094 42.7233623 78.3808561 43.7462798 78.1272125 44.5452022 77.8826328 46.1745691 77.3838233 46.8315464 76.9746932 47.5628034 76.1188508 47.6941861 75.9650842 49.409217 73.7114735 50.271937 72.7100908zM40.100217 83.0641461C40.6353368 83.3683845 41.2950536 83.6329196 41.8907047 83.7876422 44.2086291 84.3903549 46.5037813 84.6039018 48.8045809 84.1948851 51.9341403 83.6385385 54.6245385 81.9656217 56.7704324 78.8433717 57.6381519 77.5810785 56.712373 74.985253 55.2476049 74.354297 54.6575227 74.1003073 54.3941713 74.0284801 54.1343422 74.0520602 53.7723216 74.0849144 53.3388473 74.3383893 52.7548023 75.0175833 51.9800689 75.9168389 50.2707077 78.1629993 50.0537411 78.4169308 48.8869381 79.7825239 47.6887226 80.5287081 45.4865686 81.2028688 44.5852589 81.4787931 43.4783034 81.7532749 42.0356188 82.0619466 40.9541019 82.2935944 40.1652441 82.5500879 39.6709178 82.7917939 39.7919096 82.8779936 39.9360703 82.9708217 40.100217 83.0641461z"/>
        <path fill="#FFF" fill-rule="nonzero" d="M33.2721345,54.3805237 C33.8599643,50.0239566 33.9168804,45.9990194 33.6744625,41.3815194 C33.6524493,40.9622188 33.5841253,39.7640338 33.5813157,39.7125396 C33.5504473,39.1467893 33.5371229,38.8075317 33.538837,38.5356651 C33.5476465,37.172932 34.8214106,36.0992007 37.0749532,34.7986532 C39.0304354,33.67012 41.3561405,32.7085679 43.6006014,32.1719697 C46.4084058,31.5006894 48.9820342,31.501946 51.1307068,32.361879 C53.7589506,33.4137441 55.5437658,35.6747157 56.2506331,39.0619855 C57.4779524,44.9447229 57.8088043,49.7687339 57.3862917,53.898963 C57.05234,57.1634739 56.3255413,59.7088794 55.0636397,62.7231722 C54.8606972,63.2079392 54.14006,64.8706938 54.2102536,64.7072066 C53.8984306,65.43347 53.6860714,65.9584542 53.505558,66.4618896 C51.7024652,71.4986673 51.3580591,72.7822281 51.5938012,74.3748653 C51.7320338,75.308743 51.1136579,76.1819442 50.2126199,76.3252149 C49.311582,76.4684856 48.4690867,75.827572 48.3308541,74.8936943 C48.2975592,74.6687592 48.2738014,74.4414619 48.2593414,74.2109567 C39.1125886,73.9799636 31.8689043,64.7806152 33.2721345,54.3805237 Z M48.7767076,70.1521304 C49.1088082,68.9144309 49.1677671,68.7434573 50.410905,65.2708641 C50.6204414,64.6864853 50.8567229,64.1023618 51.1942729,63.3161776 C51.1320596,63.4610779 51.8422747,61.8223706 52.0352998,61.3612934 C53.1740017,58.6412865 53.8090588,56.4171796 54.1035692,53.5382236 C54.4868107,49.791885 54.1807356,45.3291328 53.0240998,39.7851932 C52.1444812,35.5701079 49.126304,34.3621852 44.3425856,35.5058604 C42.4145357,35.966812 40.3761571,36.8095704 38.6809023,37.787923 C37.9655638,38.2007538 37.3653325,38.6092616 36.96608,38.9458152 C36.9250376,38.9804123 36.8873388,39.0132556 36.8532106,39.0439438 C36.8591138,39.1768893 36.8670483,39.3338157 36.8771722,39.5193643 C36.879572,39.5633477 36.9481859,40.7666161 36.9707087,41.1956229 C37.2236941,46.0144119 37.1639267,50.2409887 36.5414434,54.8543828 C35.3930459,63.3657722 41.3346946,70.7864237 48.6151403,70.7931857 C48.6643343,70.583653 48.7182245,70.3700897 48.7767076,70.1521304 Z"/>
        <path fill="#FFF" fill-rule="nonzero" d="M49.1245504 37.5276607C50.6892818 37.7793596 51.9240174 38.5768495 51.7957087 39.6415299 51.6607591 40.760216 50.1155132 41.970442 48.7287246 41.7468976 47.3315369 41.5229876 45.9233848 39.8139972 46.0576829 38.7150956L46.1204092 38.2018337 46.2459495 38.2018337C46.6939964 37.5358834 47.847632 37.3216631 49.1245504 37.5276607zM47.0803311 38.882544C47.0769444 38.9074976 47.0695378 38.9280852 47.0623085 38.9399986 47.0652834 38.9360652 47.0692339 38.9316921 47.0752114 38.9259928L47.0803311 38.882544zM90.6512145 36.7894598C90.7728636 37.5005131 89.3507201 38.7171666 87.9596915 38.8742167 86.5846002 39.0302867 85.036057 38.1761082 84.9088792 37.44098 84.80244 36.8029087 86.0286717 36.2449658 87.6013963 36.0664989 89.1742639 35.8880158 90.5417278 36.1518328 90.6512145 36.7894598zM94.0461443 33.4755273C94.1421621 35.0727594 94.0292997 36.4827037 93.7039184 38.4895843 93.670354 38.6966025 93.6341318 38.9135739 93.5899346 39.1734549 93.5725574 39.2756336 93.5546522 39.3803459 93.5306146 39.5205086 93.5006094 39.6953673 93.4842195 39.790889 93.4703827 39.8716875 93.0700095 42.209617 92.8982059 43.5392986 92.8369141 45.2642839 92.7725239 47.043265 92.8988505 48.3746254 93.3524738 51.7649358 93.8393016 55.4034117 93.9685572 57.1616668 93.7735978 59.2350485 93.5231659 61.8983766 92.6620942 64.2487394 90.9777726 66.5065707 90.3979296 67.2838496 90.6298881 68.3358679 91.4958663 68.8563195 92.3618446 69.376771 93.5339143 69.1685713 94.1137572 68.3912924 96.1690281 65.6362041 97.2320043 62.734727 97.5342902 59.5199355 97.757599 57.1450595 97.6162498 55.2222954 97.0996109 51.361016 96.6700116 48.1502573 96.5531051 46.9181762 96.6090227 45.3732707 96.6643172 43.8170805 96.8216614 42.5993083 97.2006353 40.386337 97.2143739 40.3061122 97.2306601 40.2111952 97.2607429 40.0358837 97.2850001 39.8944404 97.303122 39.7884608 97.3207806 39.6846274 97.3661976 39.4175745 97.4036566 39.1931943 97.4386415 38.977415 97.7969261 36.7675937 97.9263804 35.1503734 97.8147248 33.2930111 97.7585729 32.3589383 96.8694273 31.6425803 95.8287625 31.6929807 94.7880977 31.7433812 93.9899923 32.5414545 94.0461443 33.4755273z"/>
      </g>
    </g>
    <g mask="url(#picture-b)">
      <g transform="translate(478 117)">
        <polygon fill="#5294CF" points="98.272 16.436 107.215 20.615 107.215 95.832 98.272 100.289 84.298 58.502"/>
        <polygon fill="#205B99" points="9.401 16.436 .458 20.615 .458 95.832 9.401 100.289 31.479 58.502"/>
        <polygon fill="#205B99" points="53.836 89.425 98.272 100.289 98.272 16.436 53.836 27.301"/>
        <polygon fill="#5294CF" points="53.836 89.425 9.401 100.289 9.401 16.436 53.836 27.301"/>
        <polygon fill="#5294CF" points="64.456 117.004 81.504 108.368 81.504 8.636 64.456 0 47.688 55.716"/>
        <polygon fill="#205B99" points="43.216 117.004 26.169 108.368 26.169 8.636 43.216 0 58.308 58.502"/>
        <rect width="21.24" height="117.004" x="43.216" fill="#2E73B8"/>
      </g>
    </g>
    <g mask="url(#picture-b)">
      <g fill-rule="nonzero" transform="translate(236 117)">
        <path fill="#4479A1" d="M42.7064484,109.494651 L35.8741441,109.494651 C35.632538,97.9766877 34.967131,87.1483519 33.8792433,77.0017319 L33.8185117,77.0017319 L23.4162459,109.494651 L18.2144529,109.494651 L7.87423891,77.0017319 L7.81482757,77.0017319 C7.04776113,86.743542 6.56454889,97.5745149 6.36387058,109.494651 L0.136241716,109.494651 C0.537598335,94.9992909 1.54627089,81.4098087 3.15829863,68.7248854 L11.6263952,68.7248854 L21.4820767,98.6821382 L21.5428083,98.6821382 L31.4592213,68.7248854 L39.5616081,68.7248854 C41.3360268,83.58286 42.3843069,97.1736608 42.7064484,109.494651 L42.7064484,109.494651 Z M72.3368649,79.4147682 C69.5550939,94.4916303 65.8847932,105.446552 61.3299237,112.284806 C57.7810862,117.548654 53.8929439,120.183215 49.6588957,120.183215 C48.5300802,120.183215 47.1372143,119.843016 45.4868992,119.167894 L45.4868992,115.532516 C46.2935732,115.648553 47.2401939,115.714483 48.3280816,115.714483 C50.3058192,115.714483 51.8954026,115.17122 53.107394,114.082057 C54.5570307,112.755546 55.2818491,111.264211 55.2818491,109.614643 C55.2818491,108.483285 54.7167812,106.170462 53.589286,102.668263 L46.0915746,79.4134496 L52.803736,79.4134496 L58.1850833,96.8057717 C59.3944342,100.754976 59.8987705,103.512167 59.6967719,105.082618 C62.6396137,97.2329978 64.6952461,88.6739711 65.8663097,79.412131 L72.3368649,79.412131 L72.3368649,79.4147682 L72.3368649,79.4147682 Z"/>
        <path fill="#E97B00" d="M163.282427,109.494651 L143.874722,109.494651 L143.874722,68.7248854 L150.403368,68.7248854 L150.403368,104.476063 L163.282427,104.476063 L163.282427,109.494651 Z M138.794392,110.479644 L131.290079,106.780974 C131.955486,106.235074 132.591848,105.644341 133.164837,104.959988 C136.354566,101.217804 137.94547,95.6836438 137.94547,88.3535515 C137.94547,74.8656014 132.645978,68.1183298 122.043034,68.1183298 C116.843881,68.1183298 112.788067,69.8298714 109.887473,73.2542733 C106.700385,76.9990947 105.109481,82.5134761 105.109481,89.8040105 C105.109481,96.9705965 106.51951,102.227851 109.340889,105.562588 C111.921982,108.583499 115.812765,110.095932 121.015878,110.095932 C122.956648,110.095932 124.737668,109.858584 126.360258,109.379933 L136.130123,115.060458 L138.794392,110.479644 Z M114.484591,101.336478 C112.831635,98.6808196 112.005158,94.4164701 112.005158,88.5368368 C112.005158,78.2715428 115.127554,73.1329621 121.378947,73.1329621 C124.646571,73.1329621 127.041508,74.3618965 128.573,76.8144908 C130.223316,79.4741052 131.053754,83.7002153 131.053754,89.4980955 C131.053754,99.8477798 127.928717,105.023281 121.681285,105.023281 C118.412341,105.0246 116.017404,103.799621 114.484591,101.336478 L114.484591,101.336478 Z M102.264338,98.1942565 C102.264338,101.651623 100.994256,104.48793 98.4567312,106.709769 C95.9165663,108.922379 92.510316,110.031321 88.2419412,110.031321 C84.249499,110.031321 80.3785201,108.757554 76.6316448,106.223206 L78.3862597,102.722326 C81.6103152,104.334972 84.5293925,105.136681 87.1500928,105.136681 C89.6097223,105.136681 91.5320093,104.592099 92.9261954,103.512167 C94.3190613,102.428278 95.1494999,100.907933 95.1494999,98.985416 C95.1494999,96.5631494 93.458257,94.4929489 90.3556647,92.758991 C87.4946786,91.1898581 81.7727062,87.9091836 81.7727062,87.9091836 C78.6714342,85.6517419 77.1188178,83.2281568 77.1188178,79.2354387 C77.1188178,75.9310294 78.2766788,73.2635035 80.5937211,71.2341795 C82.913404,69.1969439 85.9064153,68.1816226 89.5753958,68.1816226 C93.3645191,68.1816226 96.8090567,69.1956253 99.911649,71.2025331 L98.3379085,74.7047323 C95.6842019,73.5786486 93.0648219,73.0156068 90.4810887,73.0156068 C88.3884892,73.0156068 86.7725007,73.5179931 85.6489662,74.5267214 C84.51619,75.5314939 83.8177766,76.817128 83.8177766,78.3941725 C83.8177766,80.8045717 85.5446663,82.9011442 88.7317547,84.6693856 C91.6310282,86.2411557 97.4955877,89.57853 97.4955877,89.57853 C100.676075,91.8320159 102.264338,94.2331848 102.264338,98.1942565 L102.264338,98.1942565 Z"/>
        <path fill="#3C7BA0" d="M171.478551,55.0694732 C167.530998,54.9692596 164.474614,55.366158 161.909364,56.4500464 C161.168703,56.7454126 159.991038,56.7454126 159.888059,57.6802994 C160.288095,58.0758791 160.334304,58.7140811 160.68153,59.2599811 C161.273003,60.2449746 162.30412,61.5701667 163.245459,62.2611126 C164.279217,63.0522721 165.316935,63.8355199 166.404823,64.5251473 C168.323149,65.7105679 170.497604,66.4001952 172.367081,67.58166 C173.456289,68.2686501 174.538895,69.1573859 175.629424,69.89712 C176.165446,70.2913811 176.508711,70.9309017 177.204484,71.1774797 L177.204484,71.0271594 C176.855938,70.5841101 176.756919,69.9432709 176.414974,69.4501149 L174.933651,68.0233907 C173.502498,66.1035104 171.724118,64.4275709 169.805792,63.0509535 C168.22677,61.9644278 164.772991,60.4875968 164.132669,58.6705673 L164.03233,58.5703538 C165.117577,58.4688216 166.404823,58.0758791 167.435939,57.7739199 C169.11398,57.3321892 170.644152,57.4324027 172.365761,56.990672 C173.157912,56.7928822 173.943462,56.5449856 174.738253,56.3010447 L174.738253,55.8566768 C173.845763,54.9692596 173.209402,53.790432 172.270702,52.951803 C169.759583,50.7853447 166.992335,48.666356 164.132669,46.8928402 C162.601176,45.9052095 160.63136,45.2696447 159.000849,44.4296971 C158.413337,44.1330123 157.423148,43.9866478 157.077242,43.4934917 C156.192673,42.4096033 155.694938,40.9828791 155.053296,39.6998821 C153.627423,36.9927982 152.242479,33.9890295 151.012004,31.1263508 C150.122154,29.2064706 149.580851,27.2892275 148.495604,25.5130745 C143.412633,17.1399703 137.89266,12.0686381 129.40872,7.09092657 C127.585452,6.05450768 125.416278,5.61277699 123.099236,5.06951416 L119.398569,4.8743615 C118.609058,4.52888853 117.818227,3.59136458 117.129056,3.14831528 C114.314278,1.3761181 107.067415,-2.46496106 104.99726,2.60637106 C103.663805,5.81188545 106.969716,8.96333728 108.105133,10.58917 C108.943493,11.7178908 110.030061,13.0022063 110.616252,14.2838846 C110.963479,15.121195 111.061177,16.0099308 111.408404,16.8947108 C112.197914,19.0624877 112.935935,21.4742055 113.973653,23.4969365 C114.514957,24.528081 115.105109,25.6119694 115.796921,26.5455376 C116.192997,27.0914376 116.882169,27.3327412 117.032677,28.2227956 C116.344826,29.2038334 116.290696,30.6846201 115.89594,31.9161917 C114.121522,37.4819985 114.814654,44.3769531 117.329734,48.4672475 C118.116604,49.6988191 119.994003,52.4098588 122.505122,51.3708027 C124.728427,50.4847041 124.235973,47.6774067 124.874974,45.2155821 C125.021522,44.620894 124.925144,44.2305886 125.220881,43.8402833 L125.220881,43.936541 C125.908732,45.3144771 126.603184,46.6423064 127.240866,48.0241982 C128.771038,50.435916 131.435307,52.9491658 133.654651,54.6198309 C134.836276,55.5112039 135.772335,57.0355044 137.252337,57.5800858 L137.252337,57.4324027 L137.154639,57.4324027 C136.854941,56.990672 136.416618,56.7928822 136.023183,56.4500464 C135.133333,55.5626292 134.148425,54.4787408 133.457933,53.4950659 C131.390418,50.735238 129.560549,47.6800439 127.936639,44.5272734 C127.141847,42.9976985 126.456636,41.3257148 125.816314,39.7987771 C125.517937,39.2093633 125.517937,38.3206275 125.022843,38.0239427 C124.280861,39.1065125 123.199575,40.0440365 122.658271,41.3705472 C121.719572,43.4921731 121.621873,46.1016807 121.273327,48.8153577 L121.07925,48.9102968 C119.50815,48.5160357 118.961566,46.8928402 118.364812,45.5149041 C116.88745,42.0153421 116.639242,36.39811 117.921207,32.3605596 C118.264473,31.3280965 119.749756,28.0764311 119.156963,27.0927562 C118.859906,26.1499579 117.872358,25.613288 117.331054,24.8709167 C116.694693,23.9373486 115.9976,22.7558838 115.553995,21.7194649 C114.371049,18.9622742 113.775616,15.9070801 112.501572,13.151208 C111.906139,11.8668925 110.872381,10.5377446 110.035342,9.35496121 C109.095322,8.02581333 108.061565,7.08960797 107.318263,5.51388206 C107.072696,4.97193783 106.72811,4.08583924 107.122866,3.49642544 C107.219244,3.10084572 107.419922,2.95316262 107.813357,2.85426769 C108.452359,2.31496066 110.278268,3.00063218 110.91859,3.29731698 C112.747139,4.03573247 114.275991,4.7253598 115.802202,5.75914149 C116.492694,6.25361615 117.233356,7.1898215 118.119245,7.43639953 L119.156963,7.43639953 C120.732024,7.7792353 122.507763,7.53133867 123.990406,7.97702516 C126.603184,8.81565418 128.970396,10.0459071 131.093362,11.3737364 C137.553355,15.4653494 142.880572,21.2790528 146.476938,28.2227956 C147.067091,29.3541537 147.317939,30.3905725 147.856602,31.5707187 C148.89564,33.9863923 150.180245,36.4495354 151.211362,38.8137836 C152.24776,41.127925 153.235309,43.4908545 154.715311,45.413372 C155.453332,46.4471537 158.418618,46.9890979 159.748112,47.5310422 C160.7317,47.9727729 162.263192,48.3657154 163.150401,48.9076596 C164.828442,49.9401227 166.499881,51.1255433 168.077582,52.2608571 C168.863132,52.8515895 171.332003,54.083161 171.478551,55.0694732 M121.169027,12.2624722 C120.488113,12.2554034 119.809279,12.3387657 119.150362,12.5103688 L119.150362,12.6092638 L119.24542,12.6092638 C119.642816,13.3964674 120.333307,13.9423675 120.825761,14.6293576 C121.223157,15.4191984 121.567743,16.2024463 121.957217,16.9909686 L122.052276,16.8933922 C122.748048,16.4015548 123.093954,15.6130325 123.093954,14.4302491 C122.794257,14.082139 122.748048,13.7419404 122.498521,13.3964674 C122.208065,12.9033114 121.567743,12.6580519 121.169027,12.2624722"/>
        <path fill="#EE7C11" d="M176.176008,109.488058 L177.197883,109.488058 L177.197883,104.493204 L175.66507,104.493204 L174.414792,107.901783 L173.056252,104.493204 L171.580211,104.493204 L171.580211,109.488058 L172.545315,109.488058 L172.545315,105.687855 L172.599445,105.687855 L174.022677,109.488058 L174.758057,109.488058 L176.176008,105.687855 L176.176008,109.488058 Z M167.944236,109.488058 L169.025523,109.488058 L169.025523,105.339745 L170.440833,105.339745 L170.440833,104.491886 L166.469515,104.491886 L166.469515,105.339745 L167.941596,105.339745 L167.944236,109.488058 Z"/>
      </g>
    </g>
  </g>
</svg>
