<svg height="360" viewBox="0 0 640 360" width="640" xmlns="http://www.w3.org/2000/svg" xmlns:xlink="http://www.w3.org/1999/xlink"><defs><circle id="a" cx="40" cy="40" r="40"/><mask id="b" fill="#fff"><use fill="none" xlink:href="#a"/></mask></defs><g fill="none" fill-rule="evenodd"><path d="m0 0h640v360h-640z" fill="#fff"/><g transform="translate(160 138)"><use fill="#def6ec" xlink:href="#a"/><path d="m.46264576 49c-3.48325828-6.4371276-5.46264576-13.8190295-5.46264576-21.6666667 0-25.03690862 20.1471863-45.3333333 45-45.3333333s45 20.29642468 45 45.3333333c0 7.8476372-1.9793875 15.2295391-5.4626458 21.6666667-7.6296433-14.0997261-22.4744744-23.6666667-39.5373542-23.6666667s-31.90771093 9.5669406-39.53735424 23.6666667z" fill="#9eecc6" mask="url(#b)"/><path d="m.46264576 98c-3.48325828-6.4371276-5.46264576-13.8190295-5.46264576-21.6666667 0-25.0369086 20.1471863-45.3333333 45-45.3333333s45 20.2964247 45 45.3333333c0 7.8476372-1.9793875 15.2295391-5.4626458 21.6666667-7.6296433-14.0997261-22.4744744-23.6666667-39.5373542-23.6666667s-31.90771093 9.5669406-39.53735424 23.6666667z" fill="#21df8c" mask="url(#b)" transform="matrix(1 0 0 -1 0 129)"/></g><g fill="#21df8c"><text font-family="NittiGrotesk-Light, Nitti Grotesk" font-size="28" font-weight="300" letter-spacing="3.333333"><tspan x="269" y="165">SQL</tspan></text><text font-family="NittiGrotesk-Bold, Nitti Grotesk" font-size="52" font-weight="bold"><tspan x="269" y="207">Importer</tspan></text></g></g></svg>