<?xml version="1.0" encoding="UTF-8"?>
<svg width="640px" height="360px" viewBox="0 0 640 360" version="1.1" xmlns="http://www.w3.org/2000/svg" xmlns:xlink="http://www.w3.org/1999/xlink">
    <!-- Generator: Sketch 50.2 (55047) - http://www.bohemiancoding.com/sketch -->
    <title>sql-importer/picture</title>
    <desc>Created with Sketch.</desc>
    <defs>
        <circle id="path-1" cx="40" cy="40" r="40"></circle>
    </defs>
    <g id="sql-importer/picture" stroke="none" stroke-width="1" fill="none" fill-rule="evenodd">
        <rect id="Rectangle" fill="#FFFFFF" x="0" y="0" width="640" height="360"></rect>
        <g id="Group-2" transform="translate(160.000000, 138.000000)">
            <mask id="mask-2" fill="white">
                <use xlink:href="#path-1"></use>
            </mask>
            <use id="Oval-2" fill="#DEF6EC" xlink:href="#path-1"></use>
            <path d="M0.462645759,49 C-3.02061252,42.5628724 -5,35.1809705 -5,27.3333333 C-5,2.29642468 15.1471863,-18 40,-18 C64.8528137,-18 85,2.29642468 85,27.3333333 C85,35.1809705 83.0206125,42.5628724 79.5373542,49 C71.9077109,34.9002739 57.0628798,25.3333333 40,25.3333333 C22.9371202,25.3333333 8.09228907,34.9002739 0.462645759,49 Z" id="Combined-Shape" fill="#9EECC6" mask="url(#mask-2)"></path>
            <path d="M0.462645759,98 C-3.02061252,91.5628724 -5,84.1809705 -5,76.3333333 C-5,51.2964247 15.1471863,31 40,31 C64.8528137,31 85,51.2964247 85,76.3333333 C85,84.1809705 83.0206125,91.5628724 79.5373542,98 C71.9077109,83.9002739 57.0628798,74.3333333 40,74.3333333 C22.9371202,74.3333333 8.09228907,83.9002739 0.462645759,98 Z" id="Combined-Shape" fill="#21DF8C" mask="url(#mask-2)" transform="translate(40.000000, 64.500000) scale(1, -1) translate(-40.000000, -64.500000) "></path>
        </g>
        <text id="SQL" font-family="NittiGrotesk-Light, Nitti Grotesk" font-size="28" font-weight="300" letter-spacing="3.333333" fill="#21DF8C">
            <tspan x="269" y="165">SQL</tspan>
        </text>
        <text id="Importer" font-family="NittiGrotesk-Bold, Nitti Grotesk" font-size="52" font-weight="bold" fill="#21DF8C">
            <tspan x="269" y="207">Importer</tspan>
        </text>
    </g>
</svg>