<svg xmlns="http://www.w3.org/2000/svg" xmlns:xlink="http://www.w3.org/1999/xlink" width="640" height="360" viewBox="0 0 640 360"><defs><linearGradient id="picture-a" x1="50%" x2="50%" y1="0%" y2="100%"><stop offset="0%" stop-color="#FAFAFA"/><stop offset="100%" stop-color="#FFF"/></linearGradient><linearGradient id="picture-d" x1="50%" x2="50%" y1="0%" y2="100%"><stop offset="0%" stop-color="#96F8E3"/><stop offset="100%" stop-color="#26B99A"/></linearGradient><circle id="picture-b" cx="110" cy="110" r="110"/><filter id="picture-c" width="103.6%" height="103.6%" x="-1.8%" y="-.9%" filterUnits="objectBoundingBox"><feOffset dy="2" in="SourceAlpha" result="shadowOffsetOuter1"/><feGaussianBlur in="shadowOffsetOuter1" result="shadowBlurOuter1" stdDeviation="1"/><feColorMatrix in="shadowBlurOuter1" values="0 0 0 0 0 0 0 0 0 0 0 0 0 0 0 0 0 0 0.16 0"/></filter><linearGradient id="picture-h" x1="50%" x2="50%" y1="37.732%" y2="100%"><stop offset="0%" stop-color="#FFF"/><stop offset="100%" stop-color="#FFF" stop-opacity=".211"/></linearGradient><path id="picture-g" d="M110,114 C107.790861,114 106,112.209139 106,110 C106,107.790861 107.790861,106 110,106 C112.209139,106 114,107.790861 114,110 C114,112.209139 112.209139,114 110,114 Z M110,126 C107.790861,126 106,124.209139 106,122 C106,119.790861 107.790861,118 110,118 C112.209139,118 114,119.790861 114,122 C114,124.209139 112.209139,126 110,126 Z M110,138 C107.790861,138 106,136.209139 106,134 C106,131.790861 107.790861,130 110,130 C112.209139,130 114,131.790861 114,134 C114,136.209139 112.209139,138 110,138 Z M110,150 C107.790861,150 106,148.209139 106,146 C106,143.790861 107.790861,142 110,142 C112.209139,142 114,143.790861 114,146 C114,148.209139 112.209139,150 110,150 Z M110,162 C107.790861,162 106,160.209139 106,158 C106,155.790861 107.790861,154 110,154 C112.209139,154 114,155.790861 114,158 C114,160.209139 112.209139,162 110,162 Z M110,174 C107.790861,174 106,172.209139 106,170 C106,167.790861 107.790861,166 110,166 C112.209139,166 114,167.790861 114,170 C114,172.209139 112.209139,174 110,174 Z M110,186 C107.790861,186 106,184.209139 106,182 C106,179.790861 107.790861,178 110,178 C112.209139,178 114,179.790861 114,182 C114,184.209139 112.209139,186 110,186 Z M110,198 C107.790861,198 106,196.209139 106,194 C106,191.790861 107.790861,190 110,190 C112.209139,190 114,191.790861 114,194 C114,196.209139 112.209139,198 110,198 Z M110,210 C107.790861,210 106,208.209139 106,206 C106,203.790861 107.790861,202 110,202 C112.209139,202 114,203.790861 114,206 C114,208.209139 112.209139,210 110,210 Z M110,222 C107.790861,222 106,220.209139 106,218 C106,215.790861 107.790861,214 110,214 C112.209139,214 114,215.790861 114,218 C114,220.209139 112.209139,222 110,222 Z M110,102 C107.790861,102 106,100.209139 106,98 C106,95.790861 107.790861,94 110,94 C112.209139,94 114,95.790861 114,98 C114,100.209139 112.209139,102 110,102 Z M99,138 C96.790861,138 95,136.209139 95,134 C95,131.790861 96.790861,130 99,130 C101.209139,130 103,131.790861 103,134 C103,136.209139 101.209139,138 99,138 Z M99,150 C96.790861,150 95,148.209139 95,146 C95,143.790861 96.790861,142 99,142 C101.209139,142 103,143.790861 103,146 C103,148.209139 101.209139,150 99,150 Z M99,162 C96.790861,162 95,160.209139 95,158 C95,155.790861 96.790861,154 99,154 C101.209139,154 103,155.790861 103,158 C103,160.209139 101.209139,162 99,162 Z M99,174 C96.790861,174 95,172.209139 95,170 C95,167.790861 96.790861,166 99,166 C101.209139,166 103,167.790861 103,170 C103,172.209139 101.209139,174 99,174 Z M99,186 C96.790861,186 95,184.209139 95,182 C95,179.790861 96.790861,178 99,178 C101.209139,178 103,179.790861 103,182 C103,184.209139 101.209139,186 99,186 Z M99,198 C96.790861,198 95,196.209139 95,194 C95,191.790861 96.790861,190 99,190 C101.209139,190 103,191.790861 103,194 C103,196.209139 101.209139,198 99,198 Z M99,210 C96.790861,210 95,208.209139 95,206 C95,203.790861 96.790861,202 99,202 C101.209139,202 103,203.790861 103,206 C103,208.209139 101.209139,210 99,210 Z M99,222 C96.790861,222 95,220.209139 95,218 C95,215.790861 96.790861,214 99,214 C101.209139,214 103,215.790861 103,218 C103,220.209139 101.209139,222 99,222 Z M88,186 C85.790861,186 84,184.209139 84,182 C84,179.790861 85.790861,178 88,178 C90.209139,178 92,179.790861 92,182 C92,184.209139 90.209139,186 88,186 Z M88,198 C85.790861,198 84,196.209139 84,194 C84,191.790861 85.790861,190 88,190 C90.209139,190 92,191.790861 92,194 C92,196.209139 90.209139,198 88,198 Z M88,210 C85.790861,210 84,208.209139 84,206 C84,203.790861 85.790861,202 88,202 C90.209139,202 92,203.790861 92,206 C92,208.209139 90.209139,210 88,210 Z M88,222 C85.790861,222 84,220.209139 84,218 C84,215.790861 85.790861,214 88,214 C90.209139,214 92,215.790861 92,218 C92,220.209139 90.209139,222 88,222 Z M77,114 C74.790861,114 73,112.209139 73,110 C73,107.790861 74.790861,106 77,106 C79.209139,106 81,107.790861 81,110 C81,112.209139 79.209139,114 77,114 Z M77,126 C74.790861,126 73,124.209139 73,122 C73,119.790861 74.790861,118 77,118 C79.209139,118 81,119.790861 81,122 C81,124.209139 79.209139,126 77,126 Z M77,138 C74.790861,138 73,136.209139 73,134 C73,131.790861 74.790861,130 77,130 C79.209139,130 81,131.790861 81,134 C81,136.209139 79.209139,138 77,138 Z M77,150 C74.790861,150 73,148.209139 73,146 C73,143.790861 74.790861,142 77,142 C79.209139,142 81,143.790861 81,146 C81,148.209139 79.209139,150 77,150 Z M77,162 C74.790861,162 73,160.209139 73,158 C73,155.790861 74.790861,154 77,154 C79.209139,154 81,155.790861 81,158 C81,160.209139 79.209139,162 77,162 Z M77,174 C74.790861,174 73,172.209139 73,170 C73,167.790861 74.790861,166 77,166 C79.209139,166 81,167.790861 81,170 C81,172.209139 79.209139,174 77,174 Z M77,186 C74.790861,186 73,184.209139 73,182 C73,179.790861 74.790861,178 77,178 C79.209139,178 81,179.790861 81,182 C81,184.209139 79.209139,186 77,186 Z M77,198 C74.790861,198 73,196.209139 73,194 C73,191.790861 74.790861,190 77,190 C79.209139,190 81,191.790861 81,194 C81,196.209139 79.209139,198 77,198 Z M77,210 C74.790861,210 73,208.209139 73,206 C73,203.790861 74.790861,202 77,202 C79.209139,202 81,203.790861 81,206 C81,208.209139 79.209139,210 77,210 Z M77,222 C74.790861,222 73,220.209139 73,218 C73,215.790861 74.790861,214 77,214 C79.209139,214 81,215.790861 81,218 C81,220.209139 79.209139,222 77,222 Z M66,114 C63.790861,114 62,112.209139 62,110 C62,107.790861 63.790861,106 66,106 C68.209139,106 70,107.790861 70,110 C70,112.209139 68.209139,114 66,114 Z M66,126 C63.790861,126 62,124.209139 62,122 C62,119.790861 63.790861,118 66,118 C68.209139,118 70,119.790861 70,122 C70,124.209139 68.209139,126 66,126 Z M66,138 C63.790861,138 62,136.209139 62,134 C62,131.790861 63.790861,130 66,130 C68.209139,130 70,131.790861 70,134 C70,136.209139 68.209139,138 66,138 Z M66,150 C63.790861,150 62,148.209139 62,146 C62,143.790861 63.790861,142 66,142 C68.209139,142 70,143.790861 70,146 C70,148.209139 68.209139,150 66,150 Z M66,162 C63.790861,162 62,160.209139 62,158 C62,155.790861 63.790861,154 66,154 C68.209139,154 70,155.790861 70,158 C70,160.209139 68.209139,162 66,162 Z M66,174 C63.790861,174 62,172.209139 62,170 C62,167.790861 63.790861,166 66,166 C68.209139,166 70,167.790861 70,170 C70,172.209139 68.209139,174 66,174 Z M66,186 C63.790861,186 62,184.209139 62,182 C62,179.790861 63.790861,178 66,178 C68.209139,178 70,179.790861 70,182 C70,184.209139 68.209139,186 66,186 Z M66,198 C63.790861,198 62,196.209139 62,194 C62,191.790861 63.790861,190 66,190 C68.209139,190 70,191.790861 70,194 C70,196.209139 68.209139,198 66,198 Z M66,210 C63.790861,210 62,208.209139 62,206 C62,203.790861 63.790861,202 66,202 C68.209139,202 70,203.790861 70,206 C70,208.209139 68.209139,210 66,210 Z M66,42 C63.790861,42 62,40.209139 62,38 C62,35.790861 63.790861,34 66,34 C68.209139,34 70,35.790861 70,38 C70,40.209139 68.209139,42 66,42 Z M66,54 C63.790861,54 62,52.209139 62,50 C62,47.790861 63.790861,46 66,46 C68.209139,46 70,47.790861 70,50 C70,52.209139 68.209139,54 66,54 Z M66,66 C63.790861,66 62,64.209139 62,62 C62,59.790861 63.790861,58 66,58 C68.209139,58 70,59.790861 70,62 C70,64.209139 68.209139,66 66,66 Z M66,78 C63.790861,78 62,76.209139 62,74 C62,71.790861 63.790861,70 66,70 C68.209139,70 70,71.790861 70,74 C70,76.209139 68.209139,78 66,78 Z M66,90 C63.790861,90 62,88.209139 62,86 C62,83.790861 63.790861,82 66,82 C68.209139,82 70,83.790861 70,86 C70,88.209139 68.209139,90 66,90 Z M66,102 C63.790861,102 62,100.209139 62,98 C62,95.790861 63.790861,94 66,94 C68.209139,94 70,95.790861 70,98 C70,100.209139 68.209139,102 66,102 Z M55,114 C52.790861,114 51,112.209139 51,110 C51,107.790861 52.790861,106 55,106 C57.209139,106 59,107.790861 59,110 C59,112.209139 57.209139,114 55,114 Z M55,126 C52.790861,126 51,124.209139 51,122 C51,119.790861 52.790861,118 55,118 C57.209139,118 59,119.790861 59,122 C59,124.209139 57.209139,126 55,126 Z M55,138 C52.790861,138 51,136.209139 51,134 C51,131.790861 52.790861,130 55,130 C57.209139,130 59,131.790861 59,134 C59,136.209139 57.209139,138 55,138 Z M55,150 C52.790861,150 51,148.209139 51,146 C51,143.790861 52.790861,142 55,142 C57.209139,142 59,143.790861 59,146 C59,148.209139 57.209139,150 55,150 Z M55,162 C52.790861,162 51,160.209139 51,158 C51,155.790861 52.790861,154 55,154 C57.209139,154 59,155.790861 59,158 C59,160.209139 57.209139,162 55,162 Z M55,174 C52.790861,174 51,172.209139 51,170 C51,167.790861 52.790861,166 55,166 C57.209139,166 59,167.790861 59,170 C59,172.209139 57.209139,174 55,174 Z M55,186 C52.790861,186 51,184.209139 51,182 C51,179.790861 52.790861,178 55,178 C57.209139,178 59,179.790861 59,182 C59,184.209139 57.209139,186 55,186 Z M55,198 C52.790861,198 51,196.209139 51,194 C51,191.790861 52.790861,190 55,190 C57.209139,190 59,191.790861 59,194 C59,196.209139 57.209139,198 55,198 Z M55,210 C52.790861,210 51,208.209139 51,206 C51,203.790861 52.790861,202 55,202 C57.209139,202 59,203.790861 59,206 C59,208.209139 57.209139,210 55,210 Z M44,150 C41.790861,150 40,148.209139 40,146 C40,143.790861 41.790861,142 44,142 C46.209139,142 48,143.790861 48,146 C48,148.209139 46.209139,150 44,150 Z M44,162 C41.790861,162 40,160.209139 40,158 C40,155.790861 41.790861,154 44,154 C46.209139,154 48,155.790861 48,158 C48,160.209139 46.209139,162 44,162 Z M44,174 C41.790861,174 40,172.209139 40,170 C40,167.790861 41.790861,166 44,166 C46.209139,166 48,167.790861 48,170 C48,172.209139 46.209139,174 44,174 Z M44,186 C41.790861,186 40,184.209139 40,182 C40,179.790861 41.790861,178 44,178 C46.209139,178 48,179.790861 48,182 C48,184.209139 46.209139,186 44,186 Z M44,198 C41.790861,198 40,196.209139 40,194 C40,191.790861 41.790861,190 44,190 C46.209139,190 48,191.790861 48,194 C48,196.209139 46.209139,198 44,198 Z M33,114 C30.790861,114 29,112.209139 29,110 C29,107.790861 30.790861,106 33,106 C35.209139,106 37,107.790861 37,110 C37,112.209139 35.209139,114 33,114 Z M33,126 C30.790861,126 29,124.209139 29,122 C29,119.790861 30.790861,118 33,118 C35.209139,118 37,119.790861 37,122 C37,124.209139 35.209139,126 33,126 Z M33,138 C30.790861,138 29,136.209139 29,134 C29,131.790861 30.790861,130 33,130 C35.209139,130 37,131.790861 37,134 C37,136.209139 35.209139,138 33,138 Z M33,150 C30.790861,150 29,148.209139 29,146 C29,143.790861 30.790861,142 33,142 C35.209139,142 37,143.790861 37,146 C37,148.209139 35.209139,150 33,150 Z M33,162 C30.790861,162 29,160.209139 29,158 C29,155.790861 30.790861,154 33,154 C35.209139,154 37,155.790861 37,158 C37,160.209139 35.209139,162 33,162 Z M33,174 C30.790861,174 29,172.209139 29,170 C29,167.790861 30.790861,166 33,166 C35.209139,166 37,167.790861 37,170 C37,172.209139 35.209139,174 33,174 Z M33,186 C30.790861,186 29,184.209139 29,182 C29,179.790861 30.790861,178 33,178 C35.209139,178 37,179.790861 37,182 C37,184.209139 35.209139,186 33,186 Z M33,198 C30.790861,198 29,196.209139 29,194 C29,191.790861 30.790861,190 33,190 C35.209139,190 37,191.790861 37,194 C37,196.209139 35.209139,198 33,198 Z M33,78 C30.790861,78 29,76.209139 29,74 C29,71.790861 30.790861,70 33,70 C35.209139,70 37,71.790861 37,74 C37,76.209139 35.209139,78 33,78 Z M33,90 C30.790861,90 29,88.209139 29,86 C29,83.790861 30.790861,82 33,82 C35.209139,82 37,83.790861 37,86 C37,88.209139 35.209139,90 33,90 Z M33,102 C30.790861,102 29,100.209139 29,98 C29,95.790861 30.790861,94 33,94 C35.209139,94 37,95.790861 37,98 C37,100.209139 35.209139,102 33,102 Z M22,114 C19.790861,114 18,112.209139 18,110 C18,107.790861 19.790861,106 22,106 C24.209139,106 26,107.790861 26,110 C26,112.209139 24.209139,114 22,114 Z M22,126 C19.790861,126 18,124.209139 18,122 C18,119.790861 19.790861,118 22,118 C24.209139,118 26,119.790861 26,122 C26,124.209139 24.209139,126 22,126 Z M22,138 C19.790861,138 18,136.209139 18,134 C18,131.790861 19.790861,130 22,130 C24.209139,130 26,131.790861 26,134 C26,136.209139 24.209139,138 22,138 Z M22,150 C19.790861,150 18,148.209139 18,146 C18,143.790861 19.790861,142 22,142 C24.209139,142 26,143.790861 26,146 C26,148.209139 24.209139,150 22,150 Z M22,162 C19.790861,162 18,160.209139 18,158 C18,155.790861 19.790861,154 22,154 C24.209139,154 26,155.790861 26,158 C26,160.209139 24.209139,162 22,162 Z M22,174 C19.790861,174 18,172.209139 18,170 C18,167.790861 19.790861,166 22,166 C24.209139,166 26,167.790861 26,170 C26,172.209139 24.209139,174 22,174 Z M22,186 C19.790861,186 18,184.209139 18,182 C18,179.790861 19.790861,178 22,178 C24.209139,178 26,179.790861 26,182 C26,184.209139 24.209139,186 22,186 Z M11,126 C8.790861,126 7,124.209139 7,122 C7,119.790861 8.790861,118 11,118 C13.209139,118 15,119.790861 15,122 C15,124.209139 13.209139,126 11,126 Z M11,138 C8.790861,138 7,136.209139 7,134 C7,131.790861 8.790861,130 11,130 C13.209139,130 15,131.790861 15,134 C15,136.209139 13.209139,138 11,138 Z M11,150 C8.790861,150 7,148.209139 7,146 C7,143.790861 8.790861,142 11,142 C13.209139,142 15,143.790861 15,146 C15,148.209139 13.209139,150 11,150 Z M11,162 C8.790861,162 7,160.209139 7,158 C7,155.790861 8.790861,154 11,154 C13.209139,154 15,155.790861 15,158 C15,160.209139 13.209139,162 11,162 Z M0,114 C-2.209139,114 -4,112.209139 -4,110 C-4,107.790861 -2.209139,106 0,106 C2.209139,106 4,107.790861 4,110 C4,112.209139 2.209139,114 0,114 Z M0,126 C-2.209139,126 -4,124.209139 -4,122 C-4,119.790861 -2.209139,118 0,118 C2.209139,118 4,119.790861 4,122 C4,124.209139 2.209139,126 0,126 Z M0,138 C-2.209139,138 -4,136.209139 -4,134 C-4,131.790861 -2.209139,130 0,130 C2.209139,130 4,131.790861 4,134 C4,136.209139 2.209139,138 0,138 Z M0,150 C-2.209139,150 -4,148.209139 -4,146 C-4,143.790861 -2.209139,142 0,142 C2.209139,142 4,143.790861 4,146 C4,148.209139 2.209139,150 0,150 Z M0,102 C-2.209139,102 -4,100.209139 -4,98 C-4,95.790861 -2.209139,94 0,94 C2.209139,94 4,95.790861 4,98 C4,100.209139 2.209139,102 0,102 Z M220,114 C217.790861,114 216,112.209139 216,110 C216,107.790861 217.790861,106 220,106 C222.209139,106 224,107.790861 224,110 C224,112.209139 222.209139,114 220,114 Z M220,126 C217.790861,126 216,124.209139 216,122 C216,119.790861 217.790861,118 220,118 C222.209139,118 224,119.790861 224,122 C224,124.209139 222.209139,126 220,126 Z M220,138 C217.790861,138 216,136.209139 216,134 C216,131.790861 217.790861,130 220,130 C222.209139,130 224,131.790861 224,134 C224,136.209139 222.209139,138 220,138 Z M220,90 C217.790861,90 216,88.209139 216,86 C216,83.790861 217.790861,82 220,82 C222.209139,82 224,83.790861 224,86 C224,88.209139 222.209139,90 220,90 Z M220,102 C217.790861,102 216,100.209139 216,98 C216,95.790861 217.790861,94 220,94 C222.209139,94 224,95.790861 224,98 C224,100.209139 222.209139,102 220,102 Z M209,114 C206.790861,114 205,112.209139 205,110 C205,107.790861 206.790861,106 209,106 C211.209139,106 213,107.790861 213,110 C213,112.209139 211.209139,114 209,114 Z M209,126 C206.790861,126 205,124.209139 205,122 C205,119.790861 206.790861,118 209,118 C211.209139,118 213,119.790861 213,122 C213,124.209139 211.209139,126 209,126 Z M209,138 C206.790861,138 205,136.209139 205,134 C205,131.790861 206.790861,130 209,130 C211.209139,130 213,131.790861 213,134 C213,136.209139 211.209139,138 209,138 Z M209,150 C206.790861,150 205,148.209139 205,146 C205,143.790861 206.790861,142 209,142 C211.209139,142 213,143.790861 213,146 C213,148.209139 211.209139,150 209,150 Z M209,162 C206.790861,162 205,160.209139 205,158 C205,155.790861 206.790861,154 209,154 C211.209139,154 213,155.790861 213,158 C213,160.209139 211.209139,162 209,162 Z M198,138 C195.790861,138 194,136.209139 194,134 C194,131.790861 195.790861,130 198,130 C200.209139,130 202,131.790861 202,134 C202,136.209139 200.209139,138 198,138 Z M198,150 C195.790861,150 194,148.209139 194,146 C194,143.790861 195.790861,142 198,142 C200.209139,142 202,143.790861 202,146 C202,148.209139 200.209139,150 198,150 Z M198,162 C195.790861,162 194,160.209139 194,158 C194,155.790861 195.790861,154 198,154 C200.209139,154 202,155.790861 202,158 C202,160.209139 200.209139,162 198,162 Z M198,174 C195.790861,174 194,172.209139 194,170 C194,167.790861 195.790861,166 198,166 C200.209139,166 202,167.790861 202,170 C202,172.209139 200.209139,174 198,174 Z M187,114 C184.790861,114 183,112.209139 183,110 C183,107.790861 184.790861,106 187,106 C189.209139,106 191,107.790861 191,110 C191,112.209139 189.209139,114 187,114 Z M187,126 C184.790861,126 183,124.209139 183,122 C183,119.790861 184.790861,118 187,118 C189.209139,118 191,119.790861 191,122 C191,124.209139 189.209139,126 187,126 Z M187,138 C184.790861,138 183,136.209139 183,134 C183,131.790861 184.790861,130 187,130 C189.209139,130 191,131.790861 191,134 C191,136.209139 189.209139,138 187,138 Z M187,150 C184.790861,150 183,148.209139 183,146 C183,143.790861 184.790861,142 187,142 C189.209139,142 191,143.790861 191,146 C191,148.209139 189.209139,150 187,150 Z M187,162 C184.790861,162 183,160.209139 183,158 C183,155.790861 184.790861,154 187,154 C189.209139,154 191,155.790861 191,158 C191,160.209139 189.209139,162 187,162 Z M187,174 C184.790861,174 183,172.209139 183,170 C183,167.790861 184.790861,166 187,166 C189.209139,166 191,167.790861 191,170 C191,172.209139 189.209139,174 187,174 Z M187,186 C184.790861,186 183,184.209139 183,182 C183,179.790861 184.790861,178 187,178 C189.209139,178 191,179.790861 191,182 C191,184.209139 189.209139,186 187,186 Z M187,54 C184.790861,54 183,52.209139 183,50 C183,47.790861 184.790861,46 187,46 C189.209139,46 191,47.790861 191,50 C191,52.209139 189.209139,54 187,54 Z M187,66 C184.790861,66 183,64.209139 183,62 C183,59.790861 184.790861,58 187,58 C189.209139,58 191,59.790861 191,62 C191,64.209139 189.209139,66 187,66 Z M187,78 C184.790861,78 183,76.209139 183,74 C183,71.790861 184.790861,70 187,70 C189.209139,70 191,71.790861 191,74 C191,76.209139 189.209139,78 187,78 Z M187,90 C184.790861,90 183,88.209139 183,86 C183,83.790861 184.790861,82 187,82 C189.209139,82 191,83.790861 191,86 C191,88.209139 189.209139,90 187,90 Z M187,102 C184.790861,102 183,100.209139 183,98 C183,95.790861 184.790861,94 187,94 C189.209139,94 191,95.790861 191,98 C191,100.209139 189.209139,102 187,102 Z M176,174 C173.790861,174 172,172.209139 172,170 C172,167.790861 173.790861,166 176,166 C178.209139,166 180,167.790861 180,170 C180,172.209139 178.209139,174 176,174 Z M176,186 C173.790861,186 172,184.209139 172,182 C172,179.790861 173.790861,178 176,178 C178.209139,178 180,179.790861 180,182 C180,184.209139 178.209139,186 176,186 Z M176,198 C173.790861,198 172,196.209139 172,194 C172,191.790861 173.790861,190 176,190 C178.209139,190 180,191.790861 180,194 C180,196.209139 178.209139,198 176,198 Z M165,114 C162.790861,114 161,112.209139 161,110 C161,107.790861 162.790861,106 165,106 C167.209139,106 169,107.790861 169,110 C169,112.209139 167.209139,114 165,114 Z M165,126 C162.790861,126 161,124.209139 161,122 C161,119.790861 162.790861,118 165,118 C167.209139,118 169,119.790861 169,122 C169,124.209139 167.209139,126 165,126 Z M165,138 C162.790861,138 161,136.209139 161,134 C161,131.790861 162.790861,130 165,130 C167.209139,130 169,131.790861 169,134 C169,136.209139 167.209139,138 165,138 Z M165,150 C162.790861,150 161,148.209139 161,146 C161,143.790861 162.790861,142 165,142 C167.209139,142 169,143.790861 169,146 C169,148.209139 167.209139,150 165,150 Z M165,162 C162.790861,162 161,160.209139 161,158 C161,155.790861 162.790861,154 165,154 C167.209139,154 169,155.790861 169,158 C169,160.209139 167.209139,162 165,162 Z M165,174 C162.790861,174 161,172.209139 161,170 C161,167.790861 162.790861,166 165,166 C167.209139,166 169,167.790861 169,170 C169,172.209139 167.209139,174 165,174 Z M165,186 C162.790861,186 161,184.209139 161,182 C161,179.790861 162.790861,178 165,178 C167.209139,178 169,179.790861 169,182 C169,184.209139 167.209139,186 165,186 Z M165,198 C162.790861,198 161,196.209139 161,194 C161,191.790861 162.790861,190 165,190 C167.209139,190 169,191.790861 169,194 C169,196.209139 167.209139,198 165,198 Z M165,210 C162.790861,210 161,208.209139 161,206 C161,203.790861 162.790861,202 165,202 C167.209139,202 169,203.790861 169,206 C169,208.209139 167.209139,210 165,210 Z M165,66 C162.790861,66 161,64.209139 161,62 C161,59.790861 162.790861,58 165,58 C167.209139,58 169,59.790861 169,62 C169,64.209139 167.209139,66 165,66 Z M165,78 C162.790861,78 161,76.209139 161,74 C161,71.790861 162.790861,70 165,70 C167.209139,70 169,71.790861 169,74 C169,76.209139 167.209139,78 165,78 Z M165,90 C162.790861,90 161,88.209139 161,86 C161,83.790861 162.790861,82 165,82 C167.209139,82 169,83.790861 169,86 C169,88.209139 167.209139,90 165,90 Z M165,102 C162.790861,102 161,100.209139 161,98 C161,95.790861 162.790861,94 165,94 C167.209139,94 169,95.790861 169,98 C169,100.209139 167.209139,102 165,102 Z M154,114 C151.790861,114 150,112.209139 150,110 C150,107.790861 151.790861,106 154,106 C156.209139,106 158,107.790861 158,110 C158,112.209139 156.209139,114 154,114 Z M154,126 C151.790861,126 150,124.209139 150,122 C150,119.790861 151.790861,118 154,118 C156.209139,118 158,119.790861 158,122 C158,124.209139 156.209139,126 154,126 Z M154,138 C151.790861,138 150,136.209139 150,134 C150,131.790861 151.790861,130 154,130 C156.209139,130 158,131.790861 158,134 C158,136.209139 156.209139,138 154,138 Z M154,150 C151.790861,150 150,148.209139 150,146 C150,143.790861 151.790861,142 154,142 C156.209139,142 158,143.790861 158,146 C158,148.209139 156.209139,150 154,150 Z M154,162 C151.790861,162 150,160.209139 150,158 C150,155.790861 151.790861,154 154,154 C156.209139,154 158,155.790861 158,158 C158,160.209139 156.209139,162 154,162 Z M154,174 C151.790861,174 150,172.209139 150,170 C150,167.790861 151.790861,166 154,166 C156.209139,166 158,167.790861 158,170 C158,172.209139 156.209139,174 154,174 Z M154,186 C151.790861,186 150,184.209139 150,182 C150,179.790861 151.790861,178 154,178 C156.209139,178 158,179.790861 158,182 C158,184.209139 156.209139,186 154,186 Z M154,198 C151.790861,198 150,196.209139 150,194 C150,191.790861 151.790861,190 154,190 C156.209139,190 158,191.790861 158,194 C158,196.209139 156.209139,198 154,198 Z M154,210 C151.790861,210 150,208.209139 150,206 C150,203.790861 151.790861,202 154,202 C156.209139,202 158,203.790861 158,206 C158,208.209139 156.209139,210 154,210 Z M154,42 C151.790861,42 150,40.209139 150,38 C150,35.790861 151.790861,34 154,34 C156.209139,34 158,35.790861 158,38 C158,40.209139 156.209139,42 154,42 Z M154,54 C151.790861,54 150,52.209139 150,50 C150,47.790861 151.790861,46 154,46 C156.209139,46 158,47.790861 158,50 C158,52.209139 156.209139,54 154,54 Z M154,66 C151.790861,66 150,64.209139 150,62 C150,59.790861 151.790861,58 154,58 C156.209139,58 158,59.790861 158,62 C158,64.209139 156.209139,66 154,66 Z M154,78 C151.790861,78 150,76.209139 150,74 C150,71.790861 151.790861,70 154,70 C156.209139,70 158,71.790861 158,74 C158,76.209139 156.209139,78 154,78 Z M154,90 C151.790861,90 150,88.209139 150,86 C150,83.790861 151.790861,82 154,82 C156.209139,82 158,83.790861 158,86 C158,88.209139 156.209139,90 154,90 Z M143,90 C140.790861,90 139,88.209139 139,86 C139,83.790861 140.790861,82 143,82 C145.209139,82 147,83.790861 147,86 C147,88.209139 145.209139,90 143,90 Z M154,102 C151.790861,102 150,100.209139 150,98 C150,95.790861 151.790861,94 154,94 C156.209139,94 158,95.790861 158,98 C158,100.209139 156.209139,102 154,102 Z M143,114 C140.790861,114 139,112.209139 139,110 C139,107.790861 140.790861,106 143,106 C145.209139,106 147,107.790861 147,110 C147,112.209139 145.209139,114 143,114 Z M143,126 C140.790861,126 139,124.209139 139,122 C139,119.790861 140.790861,118 143,118 C145.209139,118 147,119.790861 147,122 C147,124.209139 145.209139,126 143,126 Z M143,138 C140.790861,138 139,136.209139 139,134 C139,131.790861 140.790861,130 143,130 C145.209139,130 147,131.790861 147,134 C147,136.209139 145.209139,138 143,138 Z M143,150 C140.790861,150 139,148.209139 139,146 C139,143.790861 140.790861,142 143,142 C145.209139,142 147,143.790861 147,146 C147,148.209139 145.209139,150 143,150 Z M143,162 C140.790861,162 139,160.209139 139,158 C139,155.790861 140.790861,154 143,154 C145.209139,154 147,155.790861 147,158 C147,160.209139 145.209139,162 143,162 Z M143,174 C140.790861,174 139,172.209139 139,170 C139,167.790861 140.790861,166 143,166 C145.209139,166 147,167.790861 147,170 C147,172.209139 145.209139,174 143,174 Z M143,186 C140.790861,186 139,184.209139 139,182 C139,179.790861 140.790861,178 143,178 C145.209139,178 147,179.790861 147,182 C147,184.209139 145.209139,186 143,186 Z M143,198 C140.790861,198 139,196.209139 139,194 C139,191.790861 140.790861,190 143,190 C145.209139,190 147,191.790861 147,194 C147,196.209139 145.209139,198 143,198 Z M143,210 C140.790861,210 139,208.209139 139,206 C139,203.790861 140.790861,202 143,202 C145.209139,202 147,203.790861 147,206 C147,208.209139 145.209139,210 143,210 Z M143,222 C140.790861,222 139,220.209139 139,218 C139,215.790861 140.790861,214 143,214 C145.209139,214 147,215.790861 147,218 C147,220.209139 145.209139,222 143,222 Z M143,78 C140.790861,78 139,76.209139 139,74 C139,71.790861 140.790861,70 143,70 C145.209139,70 147,71.790861 147,74 C147,76.209139 145.209139,78 143,78 Z M143,102 C140.790861,102 139,100.209139 139,98 C139,95.790861 140.790861,94 143,94 C145.209139,94 147,95.790861 147,98 C147,100.209139 145.209139,102 143,102 Z M132,138 C129.790861,138 128,136.209139 128,134 C128,131.790861 129.790861,130 132,130 C134.209139,130 136,131.790861 136,134 C136,136.209139 134.209139,138 132,138 Z M132,150 C129.790861,150 128,148.209139 128,146 C128,143.790861 129.790861,142 132,142 C134.209139,142 136,143.790861 136,146 C136,148.209139 134.209139,150 132,150 Z M132,162 C129.790861,162 128,160.209139 128,158 C128,155.790861 129.790861,154 132,154 C134.209139,154 136,155.790861 136,158 C136,160.209139 134.209139,162 132,162 Z M132,174 C129.790861,174 128,172.209139 128,170 C128,167.790861 129.790861,166 132,166 C134.209139,166 136,167.790861 136,170 C136,172.209139 134.209139,174 132,174 Z M132,186 C129.790861,186 128,184.209139 128,182 C128,179.790861 129.790861,178 132,178 C134.209139,178 136,179.790861 136,182 C136,184.209139 134.209139,186 132,186 Z M132,198 C129.790861,198 128,196.209139 128,194 C128,191.790861 129.790861,190 132,190 C134.209139,190 136,191.790861 136,194 C136,196.209139 134.209139,198 132,198 Z M132,210 C129.790861,210 128,208.209139 128,206 C128,203.790861 129.790861,202 132,202 C134.209139,202 136,203.790861 136,206 C136,208.209139 134.209139,210 132,210 Z M132,222 C129.790861,222 128,220.209139 128,218 C128,215.790861 129.790861,214 132,214 C134.209139,214 136,215.790861 136,218 C136,220.209139 134.209139,222 132,222 Z M121,114 C118.790861,114 117,112.209139 117,110 C117,107.790861 118.790861,106 121,106 C123.209139,106 125,107.790861 125,110 C125,112.209139 123.209139,114 121,114 Z M121,126 C118.790861,126 117,124.209139 117,122 C117,119.790861 118.790861,118 121,118 C123.209139,118 125,119.790861 125,122 C125,124.209139 123.209139,126 121,126 Z M121,138 C118.790861,138 117,136.209139 117,134 C117,131.790861 118.790861,130 121,130 C123.209139,130 125,131.790861 125,134 C125,136.209139 123.209139,138 121,138 Z M121,150 C118.790861,150 117,148.209139 117,146 C117,143.790861 118.790861,142 121,142 C123.209139,142 125,143.790861 125,146 C125,148.209139 123.209139,150 121,150 Z M121,162 C118.790861,162 117,160.209139 117,158 C117,155.790861 118.790861,154 121,154 C123.209139,154 125,155.790861 125,158 C125,160.209139 123.209139,162 121,162 Z M121,174 C118.790861,174 117,172.209139 117,170 C117,167.790861 118.790861,166 121,166 C123.209139,166 125,167.790861 125,170 C125,172.209139 123.209139,174 121,174 Z M121,186 C118.790861,186 117,184.209139 117,182 C117,179.790861 118.790861,178 121,178 C123.209139,178 125,179.790861 125,182 C125,184.209139 123.209139,186 121,186 Z M121,198 C118.790861,198 117,196.209139 117,194 C117,191.790861 118.790861,190 121,190 C123.209139,190 125,191.790861 125,194 C125,196.209139 123.209139,198 121,198 Z M121,210 C118.790861,210 117,208.209139 117,206 C117,203.790861 118.790861,202 121,202 C123.209139,202 125,203.790861 125,206 C125,208.209139 123.209139,210 121,210 Z M121,222 C118.790861,222 117,220.209139 117,218 C117,215.790861 118.790861,214 121,214 C123.209139,214 125,215.790861 125,218 C125,220.209139 123.209139,222 121,222 Z M121,66 C118.790861,66 117,64.209139 117,62 C117,59.790861 118.790861,58 121,58 C123.209139,58 125,59.790861 125,62 C125,64.209139 123.209139,66 121,66 Z M121,78 C118.790861,78 117,76.209139 117,74 C117,71.790861 118.790861,70 121,70 C123.209139,70 125,71.790861 125,74 C125,76.209139 123.209139,78 121,78 Z M121,90 C118.790861,90 117,88.209139 117,86 C117,83.790861 118.790861,82 121,82 C123.209139,82 125,83.790861 125,86 C125,88.209139 123.209139,90 121,90 Z M121,102 C118.790861,102 117,100.209139 117,98 C117,95.790861 118.790861,94 121,94 C123.209139,94 125,95.790861 125,98 C125,100.209139 123.209139,102 121,102 Z"/><filter id="picture-f" width="103.1%" height="103.7%" x="-1.5%" y="-1.3%" filterUnits="objectBoundingBox"><feOffset dy="1" in="SourceAlpha" result="shadowOffsetOuter1"/><feGaussianBlur in="shadowOffsetOuter1" result="shadowBlurOuter1" stdDeviation="1"/><feColorMatrix in="shadowBlurOuter1" values="0 0 0 0 0 0 0 0 0 0 0 0 0 0 0 0 0 0 0.12 0"/></filter><filter id="picture-i" width="169.2%" height="163.2%" x="-34.6%" y="-31.6%" filterUnits="objectBoundingBox"><feGaussianBlur in="SourceGraphic" stdDeviation="12"/></filter><linearGradient id="picture-l" x1="50%" x2="50%" y1="0%" y2="100%"><stop offset="0%" stop-color="#78CBB9"/><stop offset="100%" stop-color="#FFF"/></linearGradient><ellipse id="picture-k" cx="320" cy="213" rx="52" ry="24"/><filter id="picture-j" width="151%" height="210.4%" x="-25.5%" y="-51%" filterUnits="objectBoundingBox"><feOffset dy="2" in="SourceAlpha" result="shadowOffsetOuter1"/><feGaussianBlur in="shadowOffsetOuter1" result="shadowBlurOuter1" stdDeviation="8.5"/><feColorMatrix in="shadowBlurOuter1" values="0 0 0 0 0.339110809 0 0 0 0 0.68486926 0 0 0 0 0.6118217 0 0 0 1 0"/></filter><ellipse id="picture-n" cx="320" cy="180" rx="52" ry="24"/><filter id="picture-m" width="151%" height="210.4%" x="-25.5%" y="-51%" filterUnits="objectBoundingBox"><feOffset dy="2" in="SourceAlpha" result="shadowOffsetOuter1"/><feGaussianBlur in="shadowOffsetOuter1" result="shadowBlurOuter1" stdDeviation="8.5"/><feColorMatrix in="shadowBlurOuter1" values="0 0 0 0 0.339110809 0 0 0 0 0.68486926 0 0 0 0 0.6118217 0 0 0 1 0"/></filter><ellipse id="picture-p" cx="320" cy="147" rx="52" ry="24"/><filter id="picture-o" width="151%" height="210.4%" x="-25.5%" y="-51%" filterUnits="objectBoundingBox"><feOffset dy="2" in="SourceAlpha" result="shadowOffsetOuter1"/><feGaussianBlur in="shadowOffsetOuter1" result="shadowBlurOuter1" stdDeviation="8.5"/><feColorMatrix in="shadowBlurOuter1" values="0 0 0 0 0.339110809 0 0 0 0 0.68486926 0 0 0 0 0.6118217 0 0 0 1 0"/></filter></defs><g fill="none" fill-rule="evenodd"><rect width="640" height="360" fill="url(#picture-a)"/><g transform="translate(210 70)"><mask id="picture-e" fill="#fff"><use xlink:href="#picture-b"/></mask><use fill="#000" filter="url(#picture-c)" xlink:href="#picture-b"/><use fill="url(#picture-d)" xlink:href="#picture-b"/><path fill="#000" fill-opacity=".12" d="M110,114 C107.790861,114 106,112.209139 106,110 C106,107.790861 107.790861,106 110,106 C112.209139,106 114,107.790861 114,110 C114,112.209139 112.209139,114 110,114 Z M110,126 C107.790861,126 106,124.209139 106,122 C106,119.790861 107.790861,118 110,118 C112.209139,118 114,119.790861 114,122 C114,124.209139 112.209139,126 110,126 Z M110,138 C107.790861,138 106,136.209139 106,134 C106,131.790861 107.790861,130 110,130 C112.209139,130 114,131.790861 114,134 C114,136.209139 112.209139,138 110,138 Z M110,150 C107.790861,150 106,148.209139 106,146 C106,143.790861 107.790861,142 110,142 C112.209139,142 114,143.790861 114,146 C114,148.209139 112.209139,150 110,150 Z M110,162 C107.790861,162 106,160.209139 106,158 C106,155.790861 107.790861,154 110,154 C112.209139,154 114,155.790861 114,158 C114,160.209139 112.209139,162 110,162 Z M110,174 C107.790861,174 106,172.209139 106,170 C106,167.790861 107.790861,166 110,166 C112.209139,166 114,167.790861 114,170 C114,172.209139 112.209139,174 110,174 Z M110,186 C107.790861,186 106,184.209139 106,182 C106,179.790861 107.790861,178 110,178 C112.209139,178 114,179.790861 114,182 C114,184.209139 112.209139,186 110,186 Z M110,198 C107.790861,198 106,196.209139 106,194 C106,191.790861 107.790861,190 110,190 C112.209139,190 114,191.790861 114,194 C114,196.209139 112.209139,198 110,198 Z M110,210 C107.790861,210 106,208.209139 106,206 C106,203.790861 107.790861,202 110,202 C112.209139,202 114,203.790861 114,206 C114,208.209139 112.209139,210 110,210 Z M110,222 C107.790861,222 106,220.209139 106,218 C106,215.790861 107.790861,214 110,214 C112.209139,214 114,215.790861 114,218 C114,220.209139 112.209139,222 110,222 Z M110,6 C107.790861,6 106,4.209139 106,2 C106,-0.209138999 107.790861,-2 110,-2 C112.209139,-2 114,-0.209138999 114,2 C114,4.209139 112.209139,6 110,6 Z M110,18 C107.790861,18 106,16.209139 106,14 C106,11.790861 107.790861,10 110,10 C112.209139,10 114,11.790861 114,14 C114,16.209139 112.209139,18 110,18 Z M110,30 C107.790861,30 106,28.209139 106,26 C106,23.790861 107.790861,22 110,22 C112.209139,22 114,23.790861 114,26 C114,28.209139 112.209139,30 110,30 Z M110,42 C107.790861,42 106,40.209139 106,38 C106,35.790861 107.790861,34 110,34 C112.209139,34 114,35.790861 114,38 C114,40.209139 112.209139,42 110,42 Z M110,54 C107.790861,54 106,52.209139 106,50 C106,47.790861 107.790861,46 110,46 C112.209139,46 114,47.790861 114,50 C114,52.209139 112.209139,54 110,54 Z M110,66 C107.790861,66 106,64.209139 106,62 C106,59.790861 107.790861,58 110,58 C112.209139,58 114,59.790861 114,62 C114,64.209139 112.209139,66 110,66 Z M110,78 C107.790861,78 106,76.209139 106,74 C106,71.790861 107.790861,70 110,70 C112.209139,70 114,71.790861 114,74 C114,76.209139 112.209139,78 110,78 Z M110,90 C107.790861,90 106,88.209139 106,86 C106,83.790861 107.790861,82 110,82 C112.209139,82 114,83.790861 114,86 C114,88.209139 112.209139,90 110,90 Z M110,102 C107.790861,102 106,100.209139 106,98 C106,95.790861 107.790861,94 110,94 C112.209139,94 114,95.790861 114,98 C114,100.209139 112.209139,102 110,102 Z M99,114 C96.790861,114 95,112.209139 95,110 C95,107.790861 96.790861,106 99,106 C101.209139,106 103,107.790861 103,110 C103,112.209139 101.209139,114 99,114 Z M99,126 C96.790861,126 95,124.209139 95,122 C95,119.790861 96.790861,118 99,118 C101.209139,118 103,119.790861 103,122 C103,124.209139 101.209139,126 99,126 Z M99,138 C96.790861,138 95,136.209139 95,134 C95,131.790861 96.790861,130 99,130 C101.209139,130 103,131.790861 103,134 C103,136.209139 101.209139,138 99,138 Z M99,150 C96.790861,150 95,148.209139 95,146 C95,143.790861 96.790861,142 99,142 C101.209139,142 103,143.790861 103,146 C103,148.209139 101.209139,150 99,150 Z M99,162 C96.790861,162 95,160.209139 95,158 C95,155.790861 96.790861,154 99,154 C101.209139,154 103,155.790861 103,158 C103,160.209139 101.209139,162 99,162 Z M99,174 C96.790861,174 95,172.209139 95,170 C95,167.790861 96.790861,166 99,166 C101.209139,166 103,167.790861 103,170 C103,172.209139 101.209139,174 99,174 Z M99,186 C96.790861,186 95,184.209139 95,182 C95,179.790861 96.790861,178 99,178 C101.209139,178 103,179.790861 103,182 C103,184.209139 101.209139,186 99,186 Z M99,198 C96.790861,198 95,196.209139 95,194 C95,191.790861 96.790861,190 99,190 C101.209139,190 103,191.790861 103,194 C103,196.209139 101.209139,198 99,198 Z M99,210 C96.790861,210 95,208.209139 95,206 C95,203.790861 96.790861,202 99,202 C101.209139,202 103,203.790861 103,206 C103,208.209139 101.209139,210 99,210 Z M99,222 C96.790861,222 95,220.209139 95,218 C95,215.790861 96.790861,214 99,214 C101.209139,214 103,215.790861 103,218 C103,220.209139 101.209139,222 99,222 Z M99,6 C96.790861,6 95,4.209139 95,2 C95,-0.209138999 96.790861,-2 99,-2 C101.209139,-2 103,-0.209138999 103,2 C103,4.209139 101.209139,6 99,6 Z M99,18 C96.790861,18 95,16.209139 95,14 C95,11.790861 96.790861,10 99,10 C101.209139,10 103,11.790861 103,14 C103,16.209139 101.209139,18 99,18 Z M99,30 C96.790861,30 95,28.209139 95,26 C95,23.790861 96.790861,22 99,22 C101.209139,22 103,23.790861 103,26 C103,28.209139 101.209139,30 99,30 Z M99,42 C96.790861,42 95,40.209139 95,38 C95,35.790861 96.790861,34 99,34 C101.209139,34 103,35.790861 103,38 C103,40.209139 101.209139,42 99,42 Z M99,54 C96.790861,54 95,52.209139 95,50 C95,47.790861 96.790861,46 99,46 C101.209139,46 103,47.790861 103,50 C103,52.209139 101.209139,54 99,54 Z M99,66 C96.790861,66 95,64.209139 95,62 C95,59.790861 96.790861,58 99,58 C101.209139,58 103,59.790861 103,62 C103,64.209139 101.209139,66 99,66 Z M99,78 C96.790861,78 95,76.209139 95,74 C95,71.790861 96.790861,70 99,70 C101.209139,70 103,71.790861 103,74 C103,76.209139 101.209139,78 99,78 Z M99,90 C96.790861,90 95,88.209139 95,86 C95,83.790861 96.790861,82 99,82 C101.209139,82 103,83.790861 103,86 C103,88.209139 101.209139,90 99,90 Z M99,102 C96.790861,102 95,100.209139 95,98 C95,95.790861 96.790861,94 99,94 C101.209139,94 103,95.790861 103,98 C103,100.209139 101.209139,102 99,102 Z M88,114 C85.790861,114 84,112.209139 84,110 C84,107.790861 85.790861,106 88,106 C90.209139,106 92,107.790861 92,110 C92,112.209139 90.209139,114 88,114 Z M88,126 C85.790861,126 84,124.209139 84,122 C84,119.790861 85.790861,118 88,118 C90.209139,118 92,119.790861 92,122 C92,124.209139 90.209139,126 88,126 Z M88,138 C85.790861,138 84,136.209139 84,134 C84,131.790861 85.790861,130 88,130 C90.209139,130 92,131.790861 92,134 C92,136.209139 90.209139,138 88,138 Z M88,150 C85.790861,150 84,148.209139 84,146 C84,143.790861 85.790861,142 88,142 C90.209139,142 92,143.790861 92,146 C92,148.209139 90.209139,150 88,150 Z M88,162 C85.790861,162 84,160.209139 84,158 C84,155.790861 85.790861,154 88,154 C90.209139,154 92,155.790861 92,158 C92,160.209139 90.209139,162 88,162 Z M88,174 C85.790861,174 84,172.209139 84,170 C84,167.790861 85.790861,166 88,166 C90.209139,166 92,167.790861 92,170 C92,172.209139 90.209139,174 88,174 Z M88,186 C85.790861,186 84,184.209139 84,182 C84,179.790861 85.790861,178 88,178 C90.209139,178 92,179.790861 92,182 C92,184.209139 90.209139,186 88,186 Z M88,198 C85.790861,198 84,196.209139 84,194 C84,191.790861 85.790861,190 88,190 C90.209139,190 92,191.790861 92,194 C92,196.209139 90.209139,198 88,198 Z M88,210 C85.790861,210 84,208.209139 84,206 C84,203.790861 85.790861,202 88,202 C90.209139,202 92,203.790861 92,206 C92,208.209139 90.209139,210 88,210 Z M88,222 C85.790861,222 84,220.209139 84,218 C84,215.790861 85.790861,214 88,214 C90.209139,214 92,215.790861 92,218 C92,220.209139 90.209139,222 88,222 Z M88,6 C85.790861,6 84,4.209139 84,2 C84,-0.209138999 85.790861,-2 88,-2 C90.209139,-2 92,-0.209138999 92,2 C92,4.209139 90.209139,6 88,6 Z M88,18 C85.790861,18 84,16.209139 84,14 C84,11.790861 85.790861,10 88,10 C90.209139,10 92,11.790861 92,14 C92,16.209139 90.209139,18 88,18 Z M88,30 C85.790861,30 84,28.209139 84,26 C84,23.790861 85.790861,22 88,22 C90.209139,22 92,23.790861 92,26 C92,28.209139 90.209139,30 88,30 Z M88,42 C85.790861,42 84,40.209139 84,38 C84,35.790861 85.790861,34 88,34 C90.209139,34 92,35.790861 92,38 C92,40.209139 90.209139,42 88,42 Z M88,54 C85.790861,54 84,52.209139 84,50 C84,47.790861 85.790861,46 88,46 C90.209139,46 92,47.790861 92,50 C92,52.209139 90.209139,54 88,54 Z M88,66 C85.790861,66 84,64.209139 84,62 C84,59.790861 85.790861,58 88,58 C90.209139,58 92,59.790861 92,62 C92,64.209139 90.209139,66 88,66 Z M88,78 C85.790861,78 84,76.209139 84,74 C84,71.790861 85.790861,70 88,70 C90.209139,70 92,71.790861 92,74 C92,76.209139 90.209139,78 88,78 Z M88,90 C85.790861,90 84,88.209139 84,86 C84,83.790861 85.790861,82 88,82 C90.209139,82 92,83.790861 92,86 C92,88.209139 90.209139,90 88,90 Z M88,102 C85.790861,102 84,100.209139 84,98 C84,95.790861 85.790861,94 88,94 C90.209139,94 92,95.790861 92,98 C92,100.209139 90.209139,102 88,102 Z M77,114 C74.790861,114 73,112.209139 73,110 C73,107.790861 74.790861,106 77,106 C79.209139,106 81,107.790861 81,110 C81,112.209139 79.209139,114 77,114 Z M77,126 C74.790861,126 73,124.209139 73,122 C73,119.790861 74.790861,118 77,118 C79.209139,118 81,119.790861 81,122 C81,124.209139 79.209139,126 77,126 Z M77,138 C74.790861,138 73,136.209139 73,134 C73,131.790861 74.790861,130 77,130 C79.209139,130 81,131.790861 81,134 C81,136.209139 79.209139,138 77,138 Z M77,150 C74.790861,150 73,148.209139 73,146 C73,143.790861 74.790861,142 77,142 C79.209139,142 81,143.790861 81,146 C81,148.209139 79.209139,150 77,150 Z M77,162 C74.790861,162 73,160.209139 73,158 C73,155.790861 74.790861,154 77,154 C79.209139,154 81,155.790861 81,158 C81,160.209139 79.209139,162 77,162 Z M77,174 C74.790861,174 73,172.209139 73,170 C73,167.790861 74.790861,166 77,166 C79.209139,166 81,167.790861 81,170 C81,172.209139 79.209139,174 77,174 Z M77,186 C74.790861,186 73,184.209139 73,182 C73,179.790861 74.790861,178 77,178 C79.209139,178 81,179.790861 81,182 C81,184.209139 79.209139,186 77,186 Z M77,198 C74.790861,198 73,196.209139 73,194 C73,191.790861 74.790861,190 77,190 C79.209139,190 81,191.790861 81,194 C81,196.209139 79.209139,198 77,198 Z M77,210 C74.790861,210 73,208.209139 73,206 C73,203.790861 74.790861,202 77,202 C79.209139,202 81,203.790861 81,206 C81,208.209139 79.209139,210 77,210 Z M77,222 C74.790861,222 73,220.209139 73,218 C73,215.790861 74.790861,214 77,214 C79.209139,214 81,215.790861 81,218 C81,220.209139 79.209139,222 77,222 Z M77,6 C74.790861,6 73,4.209139 73,2 C73,-0.209138999 74.790861,-2 77,-2 C79.209139,-2 81,-0.209138999 81,2 C81,4.209139 79.209139,6 77,6 Z M77,18 C74.790861,18 73,16.209139 73,14 C73,11.790861 74.790861,10 77,10 C79.209139,10 81,11.790861 81,14 C81,16.209139 79.209139,18 77,18 Z M77,30 C74.790861,30 73,28.209139 73,26 C73,23.790861 74.790861,22 77,22 C79.209139,22 81,23.790861 81,26 C81,28.209139 79.209139,30 77,30 Z M77,42 C74.790861,42 73,40.209139 73,38 C73,35.790861 74.790861,34 77,34 C79.209139,34 81,35.790861 81,38 C81,40.209139 79.209139,42 77,42 Z M77,54 C74.790861,54 73,52.209139 73,50 C73,47.790861 74.790861,46 77,46 C79.209139,46 81,47.790861 81,50 C81,52.209139 79.209139,54 77,54 Z M77,66 C74.790861,66 73,64.209139 73,62 C73,59.790861 74.790861,58 77,58 C79.209139,58 81,59.790861 81,62 C81,64.209139 79.209139,66 77,66 Z M77,78 C74.790861,78 73,76.209139 73,74 C73,71.790861 74.790861,70 77,70 C79.209139,70 81,71.790861 81,74 C81,76.209139 79.209139,78 77,78 Z M77,90 C74.790861,90 73,88.209139 73,86 C73,83.790861 74.790861,82 77,82 C79.209139,82 81,83.790861 81,86 C81,88.209139 79.209139,90 77,90 Z M77,102 C74.790861,102 73,100.209139 73,98 C73,95.790861 74.790861,94 77,94 C79.209139,94 81,95.790861 81,98 C81,100.209139 79.209139,102 77,102 Z M66,114 C63.790861,114 62,112.209139 62,110 C62,107.790861 63.790861,106 66,106 C68.209139,106 70,107.790861 70,110 C70,112.209139 68.209139,114 66,114 Z M66,126 C63.790861,126 62,124.209139 62,122 C62,119.790861 63.790861,118 66,118 C68.209139,118 70,119.790861 70,122 C70,124.209139 68.209139,126 66,126 Z M66,138 C63.790861,138 62,136.209139 62,134 C62,131.790861 63.790861,130 66,130 C68.209139,130 70,131.790861 70,134 C70,136.209139 68.209139,138 66,138 Z M66,150 C63.790861,150 62,148.209139 62,146 C62,143.790861 63.790861,142 66,142 C68.209139,142 70,143.790861 70,146 C70,148.209139 68.209139,150 66,150 Z M66,162 C63.790861,162 62,160.209139 62,158 C62,155.790861 63.790861,154 66,154 C68.209139,154 70,155.790861 70,158 C70,160.209139 68.209139,162 66,162 Z M66,174 C63.790861,174 62,172.209139 62,170 C62,167.790861 63.790861,166 66,166 C68.209139,166 70,167.790861 70,170 C70,172.209139 68.209139,174 66,174 Z M66,186 C63.790861,186 62,184.209139 62,182 C62,179.790861 63.790861,178 66,178 C68.209139,178 70,179.790861 70,182 C70,184.209139 68.209139,186 66,186 Z M66,198 C63.790861,198 62,196.209139 62,194 C62,191.790861 63.790861,190 66,190 C68.209139,190 70,191.790861 70,194 C70,196.209139 68.209139,198 66,198 Z M66,210 C63.790861,210 62,208.209139 62,206 C62,203.790861 63.790861,202 66,202 C68.209139,202 70,203.790861 70,206 C70,208.209139 68.209139,210 66,210 Z M66,18 C63.790861,18 62,16.209139 62,14 C62,11.790861 63.790861,10 66,10 C68.209139,10 70,11.790861 70,14 C70,16.209139 68.209139,18 66,18 Z M66,30 C63.790861,30 62,28.209139 62,26 C62,23.790861 63.790861,22 66,22 C68.209139,22 70,23.790861 70,26 C70,28.209139 68.209139,30 66,30 Z M66,42 C63.790861,42 62,40.209139 62,38 C62,35.790861 63.790861,34 66,34 C68.209139,34 70,35.790861 70,38 C70,40.209139 68.209139,42 66,42 Z M66,54 C63.790861,54 62,52.209139 62,50 C62,47.790861 63.790861,46 66,46 C68.209139,46 70,47.790861 70,50 C70,52.209139 68.209139,54 66,54 Z M66,66 C63.790861,66 62,64.209139 62,62 C62,59.790861 63.790861,58 66,58 C68.209139,58 70,59.790861 70,62 C70,64.209139 68.209139,66 66,66 Z M66,78 C63.790861,78 62,76.209139 62,74 C62,71.790861 63.790861,70 66,70 C68.209139,70 70,71.790861 70,74 C70,76.209139 68.209139,78 66,78 Z M66,90 C63.790861,90 62,88.209139 62,86 C62,83.790861 63.790861,82 66,82 C68.209139,82 70,83.790861 70,86 C70,88.209139 68.209139,90 66,90 Z M66,102 C63.790861,102 62,100.209139 62,98 C62,95.790861 63.790861,94 66,94 C68.209139,94 70,95.790861 70,98 C70,100.209139 68.209139,102 66,102 Z M55,114 C52.790861,114 51,112.209139 51,110 C51,107.790861 52.790861,106 55,106 C57.209139,106 59,107.790861 59,110 C59,112.209139 57.209139,114 55,114 Z M55,126 C52.790861,126 51,124.209139 51,122 C51,119.790861 52.790861,118 55,118 C57.209139,118 59,119.790861 59,122 C59,124.209139 57.209139,126 55,126 Z M55,138 C52.790861,138 51,136.209139 51,134 C51,131.790861 52.790861,130 55,130 C57.209139,130 59,131.790861 59,134 C59,136.209139 57.209139,138 55,138 Z M55,150 C52.790861,150 51,148.209139 51,146 C51,143.790861 52.790861,142 55,142 C57.209139,142 59,143.790861 59,146 C59,148.209139 57.209139,150 55,150 Z M55,162 C52.790861,162 51,160.209139 51,158 C51,155.790861 52.790861,154 55,154 C57.209139,154 59,155.790861 59,158 C59,160.209139 57.209139,162 55,162 Z M55,174 C52.790861,174 51,172.209139 51,170 C51,167.790861 52.790861,166 55,166 C57.209139,166 59,167.790861 59,170 C59,172.209139 57.209139,174 55,174 Z M55,186 C52.790861,186 51,184.209139 51,182 C51,179.790861 52.790861,178 55,178 C57.209139,178 59,179.790861 59,182 C59,184.209139 57.209139,186 55,186 Z M55,198 C52.790861,198 51,196.209139 51,194 C51,191.790861 52.790861,190 55,190 C57.209139,190 59,191.790861 59,194 C59,196.209139 57.209139,198 55,198 Z M55,210 C52.790861,210 51,208.209139 51,206 C51,203.790861 52.790861,202 55,202 C57.209139,202 59,203.790861 59,206 C59,208.209139 57.209139,210 55,210 Z M55,18 C52.790861,18 51,16.209139 51,14 C51,11.790861 52.790861,10 55,10 C57.209139,10 59,11.790861 59,14 C59,16.209139 57.209139,18 55,18 Z M55,30 C52.790861,30 51,28.209139 51,26 C51,23.790861 52.790861,22 55,22 C57.209139,22 59,23.790861 59,26 C59,28.209139 57.209139,30 55,30 Z M55,42 C52.790861,42 51,40.209139 51,38 C51,35.790861 52.790861,34 55,34 C57.209139,34 59,35.790861 59,38 C59,40.209139 57.209139,42 55,42 Z M55,54 C52.790861,54 51,52.209139 51,50 C51,47.790861 52.790861,46 55,46 C57.209139,46 59,47.790861 59,50 C59,52.209139 57.209139,54 55,54 Z M55,66 C52.790861,66 51,64.209139 51,62 C51,59.790861 52.790861,58 55,58 C57.209139,58 59,59.790861 59,62 C59,64.209139 57.209139,66 55,66 Z M55,78 C52.790861,78 51,76.209139 51,74 C51,71.790861 52.790861,70 55,70 C57.209139,70 59,71.790861 59,74 C59,76.209139 57.209139,78 55,78 Z M55,90 C52.790861,90 51,88.209139 51,86 C51,83.790861 52.790861,82 55,82 C57.209139,82 59,83.790861 59,86 C59,88.209139 57.209139,90 55,90 Z M55,102 C52.790861,102 51,100.209139 51,98 C51,95.790861 52.790861,94 55,94 C57.209139,94 59,95.790861 59,98 C59,100.209139 57.209139,102 55,102 Z M44,114 C41.790861,114 40,112.209139 40,110 C40,107.790861 41.790861,106 44,106 C46.209139,106 48,107.790861 48,110 C48,112.209139 46.209139,114 44,114 Z M44,126 C41.790861,126 40,124.209139 40,122 C40,119.790861 41.790861,118 44,118 C46.209139,118 48,119.790861 48,122 C48,124.209139 46.209139,126 44,126 Z M44,138 C41.790861,138 40,136.209139 40,134 C40,131.790861 41.790861,130 44,130 C46.209139,130 48,131.790861 48,134 C48,136.209139 46.209139,138 44,138 Z M44,150 C41.790861,150 40,148.209139 40,146 C40,143.790861 41.790861,142 44,142 C46.209139,142 48,143.790861 48,146 C48,148.209139 46.209139,150 44,150 Z M44,162 C41.790861,162 40,160.209139 40,158 C40,155.790861 41.790861,154 44,154 C46.209139,154 48,155.790861 48,158 C48,160.209139 46.209139,162 44,162 Z M44,174 C41.790861,174 40,172.209139 40,170 C40,167.790861 41.790861,166 44,166 C46.209139,166 48,167.790861 48,170 C48,172.209139 46.209139,174 44,174 Z M44,186 C41.790861,186 40,184.209139 40,182 C40,179.790861 41.790861,178 44,178 C46.209139,178 48,179.790861 48,182 C48,184.209139 46.209139,186 44,186 Z M44,198 C41.790861,198 40,196.209139 40,194 C40,191.790861 41.790861,190 44,190 C46.209139,190 48,191.790861 48,194 C48,196.209139 46.209139,198 44,198 Z M44,30 C41.790861,30 40,28.209139 40,26 C40,23.790861 41.790861,22 44,22 C46.209139,22 48,23.790861 48,26 C48,28.209139 46.209139,30 44,30 Z M44,42 C41.790861,42 40,40.209139 40,38 C40,35.790861 41.790861,34 44,34 C46.209139,34 48,35.790861 48,38 C48,40.209139 46.209139,42 44,42 Z M44,54 C41.790861,54 40,52.209139 40,50 C40,47.790861 41.790861,46 44,46 C46.209139,46 48,47.790861 48,50 C48,52.209139 46.209139,54 44,54 Z M44,66 C41.790861,66 40,64.209139 40,62 C40,59.790861 41.790861,58 44,58 C46.209139,58 48,59.790861 48,62 C48,64.209139 46.209139,66 44,66 Z M44,78 C41.790861,78 40,76.209139 40,74 C40,71.790861 41.790861,70 44,70 C46.209139,70 48,71.790861 48,74 C48,76.209139 46.209139,78 44,78 Z M44,90 C41.790861,90 40,88.209139 40,86 C40,83.790861 41.790861,82 44,82 C46.209139,82 48,83.790861 48,86 C48,88.209139 46.209139,90 44,90 Z M44,102 C41.790861,102 40,100.209139 40,98 C40,95.790861 41.790861,94 44,94 C46.209139,94 48,95.790861 48,98 C48,100.209139 46.209139,102 44,102 Z M33,114 C30.790861,114 29,112.209139 29,110 C29,107.790861 30.790861,106 33,106 C35.209139,106 37,107.790861 37,110 C37,112.209139 35.209139,114 33,114 Z M33,126 C30.790861,126 29,124.209139 29,122 C29,119.790861 30.790861,118 33,118 C35.209139,118 37,119.790861 37,122 C37,124.209139 35.209139,126 33,126 Z M33,138 C30.790861,138 29,136.209139 29,134 C29,131.790861 30.790861,130 33,130 C35.209139,130 37,131.790861 37,134 C37,136.209139 35.209139,138 33,138 Z M33,150 C30.790861,150 29,148.209139 29,146 C29,143.790861 30.790861,142 33,142 C35.209139,142 37,143.790861 37,146 C37,148.209139 35.209139,150 33,150 Z M33,162 C30.790861,162 29,160.209139 29,158 C29,155.790861 30.790861,154 33,154 C35.209139,154 37,155.790861 37,158 C37,160.209139 35.209139,162 33,162 Z M33,174 C30.790861,174 29,172.209139 29,170 C29,167.790861 30.790861,166 33,166 C35.209139,166 37,167.790861 37,170 C37,172.209139 35.209139,174 33,174 Z M33,186 C30.790861,186 29,184.209139 29,182 C29,179.790861 30.790861,178 33,178 C35.209139,178 37,179.790861 37,182 C37,184.209139 35.209139,186 33,186 Z M33,198 C30.790861,198 29,196.209139 29,194 C29,191.790861 30.790861,190 33,190 C35.209139,190 37,191.790861 37,194 C37,196.209139 35.209139,198 33,198 Z M33,30 C30.790861,30 29,28.209139 29,26 C29,23.790861 30.790861,22 33,22 C35.209139,22 37,23.790861 37,26 C37,28.209139 35.209139,30 33,30 Z M33,42 C30.790861,42 29,40.209139 29,38 C29,35.790861 30.790861,34 33,34 C35.209139,34 37,35.790861 37,38 C37,40.209139 35.209139,42 33,42 Z M33,54 C30.790861,54 29,52.209139 29,50 C29,47.790861 30.790861,46 33,46 C35.209139,46 37,47.790861 37,50 C37,52.209139 35.209139,54 33,54 Z M33,66 C30.790861,66 29,64.209139 29,62 C29,59.790861 30.790861,58 33,58 C35.209139,58 37,59.790861 37,62 C37,64.209139 35.209139,66 33,66 Z M33,78 C30.790861,78 29,76.209139 29,74 C29,71.790861 30.790861,70 33,70 C35.209139,70 37,71.790861 37,74 C37,76.209139 35.209139,78 33,78 Z M33,90 C30.790861,90 29,88.209139 29,86 C29,83.790861 30.790861,82 33,82 C35.209139,82 37,83.790861 37,86 C37,88.209139 35.209139,90 33,90 Z M33,102 C30.790861,102 29,100.209139 29,98 C29,95.790861 30.790861,94 33,94 C35.209139,94 37,95.790861 37,98 C37,100.209139 35.209139,102 33,102 Z M22,114 C19.790861,114 18,112.209139 18,110 C18,107.790861 19.790861,106 22,106 C24.209139,106 26,107.790861 26,110 C26,112.209139 24.209139,114 22,114 Z M22,126 C19.790861,126 18,124.209139 18,122 C18,119.790861 19.790861,118 22,118 C24.209139,118 26,119.790861 26,122 C26,124.209139 24.209139,126 22,126 Z M22,138 C19.790861,138 18,136.209139 18,134 C18,131.790861 19.790861,130 22,130 C24.209139,130 26,131.790861 26,134 C26,136.209139 24.209139,138 22,138 Z M22,150 C19.790861,150 18,148.209139 18,146 C18,143.790861 19.790861,142 22,142 C24.209139,142 26,143.790861 26,146 C26,148.209139 24.209139,150 22,150 Z M22,162 C19.790861,162 18,160.209139 18,158 C18,155.790861 19.790861,154 22,154 C24.209139,154 26,155.790861 26,158 C26,160.209139 24.209139,162 22,162 Z M22,174 C19.790861,174 18,172.209139 18,170 C18,167.790861 19.790861,166 22,166 C24.209139,166 26,167.790861 26,170 C26,172.209139 24.209139,174 22,174 Z M22,186 C19.790861,186 18,184.209139 18,182 C18,179.790861 19.790861,178 22,178 C24.209139,178 26,179.790861 26,182 C26,184.209139 24.209139,186 22,186 Z M22,42 C19.790861,42 18,40.209139 18,38 C18,35.790861 19.790861,34 22,34 C24.209139,34 26,35.790861 26,38 C26,40.209139 24.209139,42 22,42 Z M22,54 C19.790861,54 18,52.209139 18,50 C18,47.790861 19.790861,46 22,46 C24.209139,46 26,47.790861 26,50 C26,52.209139 24.209139,54 22,54 Z M22,66 C19.790861,66 18,64.209139 18,62 C18,59.790861 19.790861,58 22,58 C24.209139,58 26,59.790861 26,62 C26,64.209139 24.209139,66 22,66 Z M22,78 C19.790861,78 18,76.209139 18,74 C18,71.790861 19.790861,70 22,70 C24.209139,70 26,71.790861 26,74 C26,76.209139 24.209139,78 22,78 Z M22,90 C19.790861,90 18,88.209139 18,86 C18,83.790861 19.790861,82 22,82 C24.209139,82 26,83.790861 26,86 C26,88.209139 24.209139,90 22,90 Z M22,102 C19.790861,102 18,100.209139 18,98 C18,95.790861 19.790861,94 22,94 C24.209139,94 26,95.790861 26,98 C26,100.209139 24.209139,102 22,102 Z M11,114 C8.790861,114 7,112.209139 7,110 C7,107.790861 8.790861,106 11,106 C13.209139,106 15,107.790861 15,110 C15,112.209139 13.209139,114 11,114 Z M11,126 C8.790861,126 7,124.209139 7,122 C7,119.790861 8.790861,118 11,118 C13.209139,118 15,119.790861 15,122 C15,124.209139 13.209139,126 11,126 Z M11,138 C8.790861,138 7,136.209139 7,134 C7,131.790861 8.790861,130 11,130 C13.209139,130 15,131.790861 15,134 C15,136.209139 13.209139,138 11,138 Z M11,150 C8.790861,150 7,148.209139 7,146 C7,143.790861 8.790861,142 11,142 C13.209139,142 15,143.790861 15,146 C15,148.209139 13.209139,150 11,150 Z M11,162 C8.790861,162 7,160.209139 7,158 C7,155.790861 8.790861,154 11,154 C13.209139,154 15,155.790861 15,158 C15,160.209139 13.209139,162 11,162 Z M11,66 C8.790861,66 7,64.209139 7,62 C7,59.790861 8.790861,58 11,58 C13.209139,58 15,59.790861 15,62 C15,64.209139 13.209139,66 11,66 Z M11,78 C8.790861,78 7,76.209139 7,74 C7,71.790861 8.790861,70 11,70 C13.209139,70 15,71.790861 15,74 C15,76.209139 13.209139,78 11,78 Z M11,90 C8.790861,90 7,88.209139 7,86 C7,83.790861 8.790861,82 11,82 C13.209139,82 15,83.790861 15,86 C15,88.209139 13.209139,90 11,90 Z M11,102 C8.790861,102 7,100.209139 7,98 C7,95.790861 8.790861,94 11,94 C13.209139,94 15,95.790861 15,98 C15,100.209139 13.209139,102 11,102 Z M0,114 C-2.209139,114 -4,112.209139 -4,110 C-4,107.790861 -2.209139,106 0,106 C2.209139,106 4,107.790861 4,110 C4,112.209139 2.209139,114 0,114 Z M0,126 C-2.209139,126 -4,124.209139 -4,122 C-4,119.790861 -2.209139,118 0,118 C2.209139,118 4,119.790861 4,122 C4,124.209139 2.209139,126 0,126 Z M0,138 C-2.209139,138 -4,136.209139 -4,134 C-4,131.790861 -2.209139,130 0,130 C2.209139,130 4,131.790861 4,134 C4,136.209139 2.209139,138 0,138 Z M0,150 C-2.209139,150 -4,148.209139 -4,146 C-4,143.790861 -2.209139,142 0,142 C2.209139,142 4,143.790861 4,146 C4,148.209139 2.209139,150 0,150 Z M0,90 C-2.209139,90 -4,88.209139 -4,86 C-4,83.790861 -2.209139,82 0,82 C2.209139,82 4,83.790861 4,86 C4,88.209139 2.209139,90 0,90 Z M0,102 C-2.209139,102 -4,100.209139 -4,98 C-4,95.790861 -2.209139,94 0,94 C2.209139,94 4,95.790861 4,98 C4,100.209139 2.209139,102 0,102 Z M220,114 C217.790861,114 216,112.209139 216,110 C216,107.790861 217.790861,106 220,106 C222.209139,106 224,107.790861 224,110 C224,112.209139 222.209139,114 220,114 Z M220,126 C217.790861,126 216,124.209139 216,122 C216,119.790861 217.790861,118 220,118 C222.209139,118 224,119.790861 224,122 C224,124.209139 222.209139,126 220,126 Z M220,138 C217.790861,138 216,136.209139 216,134 C216,131.790861 217.790861,130 220,130 C222.209139,130 224,131.790861 224,134 C224,136.209139 222.209139,138 220,138 Z M220,90 C217.790861,90 216,88.209139 216,86 C216,83.790861 217.790861,82 220,82 C222.209139,82 224,83.790861 224,86 C224,88.209139 222.209139,90 220,90 Z M220,102 C217.790861,102 216,100.209139 216,98 C216,95.790861 217.790861,94 220,94 C222.209139,94 224,95.790861 224,98 C224,100.209139 222.209139,102 220,102 Z M209,114 C206.790861,114 205,112.209139 205,110 C205,107.790861 206.790861,106 209,106 C211.209139,106 213,107.790861 213,110 C213,112.209139 211.209139,114 209,114 Z M209,126 C206.790861,126 205,124.209139 205,122 C205,119.790861 206.790861,118 209,118 C211.209139,118 213,119.790861 213,122 C213,124.209139 211.209139,126 209,126 Z M209,138 C206.790861,138 205,136.209139 205,134 C205,131.790861 206.790861,130 209,130 C211.209139,130 213,131.790861 213,134 C213,136.209139 211.209139,138 209,138 Z M209,150 C206.790861,150 205,148.209139 205,146 C205,143.790861 206.790861,142 209,142 C211.209139,142 213,143.790861 213,146 C213,148.209139 211.209139,150 209,150 Z M209,162 C206.790861,162 205,160.209139 205,158 C205,155.790861 206.790861,154 209,154 C211.209139,154 213,155.790861 213,158 C213,160.209139 211.209139,162 209,162 Z M209,66 C206.790861,66 205,64.209139 205,62 C205,59.790861 206.790861,58 209,58 C211.209139,58 213,59.790861 213,62 C213,64.209139 211.209139,66 209,66 Z M209,78 C206.790861,78 205,76.209139 205,74 C205,71.790861 206.790861,70 209,70 C211.209139,70 213,71.790861 213,74 C213,76.209139 211.209139,78 209,78 Z M209,90 C206.790861,90 205,88.209139 205,86 C205,83.790861 206.790861,82 209,82 C211.209139,82 213,83.790861 213,86 C213,88.209139 211.209139,90 209,90 Z M209,102 C206.790861,102 205,100.209139 205,98 C205,95.790861 206.790861,94 209,94 C211.209139,94 213,95.790861 213,98 C213,100.209139 211.209139,102 209,102 Z M198,114 C195.790861,114 194,112.209139 194,110 C194,107.790861 195.790861,106 198,106 C200.209139,106 202,107.790861 202,110 C202,112.209139 200.209139,114 198,114 Z M198,126 C195.790861,126 194,124.209139 194,122 C194,119.790861 195.790861,118 198,118 C200.209139,118 202,119.790861 202,122 C202,124.209139 200.209139,126 198,126 Z M198,138 C195.790861,138 194,136.209139 194,134 C194,131.790861 195.790861,130 198,130 C200.209139,130 202,131.790861 202,134 C202,136.209139 200.209139,138 198,138 Z M198,150 C195.790861,150 194,148.209139 194,146 C194,143.790861 195.790861,142 198,142 C200.209139,142 202,143.790861 202,146 C202,148.209139 200.209139,150 198,150 Z M198,162 C195.790861,162 194,160.209139 194,158 C194,155.790861 195.790861,154 198,154 C200.209139,154 202,155.790861 202,158 C202,160.209139 200.209139,162 198,162 Z M198,174 C195.790861,174 194,172.209139 194,170 C194,167.790861 195.790861,166 198,166 C200.209139,166 202,167.790861 202,170 C202,172.209139 200.209139,174 198,174 Z M198,186 C195.790861,186 194,184.209139 194,182 C194,179.790861 195.790861,178 198,178 C200.209139,178 202,179.790861 202,182 C202,184.209139 200.209139,186 198,186 Z M198,42 C195.790861,42 194,40.209139 194,38 C194,35.790861 195.790861,34 198,34 C200.209139,34 202,35.790861 202,38 C202,40.209139 200.209139,42 198,42 Z M198,54 C195.790861,54 194,52.209139 194,50 C194,47.790861 195.790861,46 198,46 C200.209139,46 202,47.790861 202,50 C202,52.209139 200.209139,54 198,54 Z M198,66 C195.790861,66 194,64.209139 194,62 C194,59.790861 195.790861,58 198,58 C200.209139,58 202,59.790861 202,62 C202,64.209139 200.209139,66 198,66 Z M198,78 C195.790861,78 194,76.209139 194,74 C194,71.790861 195.790861,70 198,70 C200.209139,70 202,71.790861 202,74 C202,76.209139 200.209139,78 198,78 Z M198,90 C195.790861,90 194,88.209139 194,86 C194,83.790861 195.790861,82 198,82 C200.209139,82 202,83.790861 202,86 C202,88.209139 200.209139,90 198,90 Z M198,102 C195.790861,102 194,100.209139 194,98 C194,95.790861 195.790861,94 198,94 C200.209139,94 202,95.790861 202,98 C202,100.209139 200.209139,102 198,102 Z M187,114 C184.790861,114 183,112.209139 183,110 C183,107.790861 184.790861,106 187,106 C189.209139,106 191,107.790861 191,110 C191,112.209139 189.209139,114 187,114 Z M187,126 C184.790861,126 183,124.209139 183,122 C183,119.790861 184.790861,118 187,118 C189.209139,118 191,119.790861 191,122 C191,124.209139 189.209139,126 187,126 Z M187,138 C184.790861,138 183,136.209139 183,134 C183,131.790861 184.790861,130 187,130 C189.209139,130 191,131.790861 191,134 C191,136.209139 189.209139,138 187,138 Z M187,150 C184.790861,150 183,148.209139 183,146 C183,143.790861 184.790861,142 187,142 C189.209139,142 191,143.790861 191,146 C191,148.209139 189.209139,150 187,150 Z M187,162 C184.790861,162 183,160.209139 183,158 C183,155.790861 184.790861,154 187,154 C189.209139,154 191,155.790861 191,158 C191,160.209139 189.209139,162 187,162 Z M187,174 C184.790861,174 183,172.209139 183,170 C183,167.790861 184.790861,166 187,166 C189.209139,166 191,167.790861 191,170 C191,172.209139 189.209139,174 187,174 Z M187,186 C184.790861,186 183,184.209139 183,182 C183,179.790861 184.790861,178 187,178 C189.209139,178 191,179.790861 191,182 C191,184.209139 189.209139,186 187,186 Z M187,198 C184.790861,198 183,196.209139 183,194 C183,191.790861 184.790861,190 187,190 C189.209139,190 191,191.790861 191,194 C191,196.209139 189.209139,198 187,198 Z M187,30 C184.790861,30 183,28.209139 183,26 C183,23.790861 184.790861,22 187,22 C189.209139,22 191,23.790861 191,26 C191,28.209139 189.209139,30 187,30 Z M187,42 C184.790861,42 183,40.209139 183,38 C183,35.790861 184.790861,34 187,34 C189.209139,34 191,35.790861 191,38 C191,40.209139 189.209139,42 187,42 Z M187,54 C184.790861,54 183,52.209139 183,50 C183,47.790861 184.790861,46 187,46 C189.209139,46 191,47.790861 191,50 C191,52.209139 189.209139,54 187,54 Z M187,66 C184.790861,66 183,64.209139 183,62 C183,59.790861 184.790861,58 187,58 C189.209139,58 191,59.790861 191,62 C191,64.209139 189.209139,66 187,66 Z M187,78 C184.790861,78 183,76.209139 183,74 C183,71.790861 184.790861,70 187,70 C189.209139,70 191,71.790861 191,74 C191,76.209139 189.209139,78 187,78 Z M187,90 C184.790861,90 183,88.209139 183,86 C183,83.790861 184.790861,82 187,82 C189.209139,82 191,83.790861 191,86 C191,88.209139 189.209139,90 187,90 Z M187,102 C184.790861,102 183,100.209139 183,98 C183,95.790861 184.790861,94 187,94 C189.209139,94 191,95.790861 191,98 C191,100.209139 189.209139,102 187,102 Z M176,114 C173.790861,114 172,112.209139 172,110 C172,107.790861 173.790861,106 176,106 C178.209139,106 180,107.790861 180,110 C180,112.209139 178.209139,114 176,114 Z M176,126 C173.790861,126 172,124.209139 172,122 C172,119.790861 173.790861,118 176,118 C178.209139,118 180,119.790861 180,122 C180,124.209139 178.209139,126 176,126 Z M176,138 C173.790861,138 172,136.209139 172,134 C172,131.790861 173.790861,130 176,130 C178.209139,130 180,131.790861 180,134 C180,136.209139 178.209139,138 176,138 Z M176,150 C173.790861,150 172,148.209139 172,146 C172,143.790861 173.790861,142 176,142 C178.209139,142 180,143.790861 180,146 C180,148.209139 178.209139,150 176,150 Z M176,162 C173.790861,162 172,160.209139 172,158 C172,155.790861 173.790861,154 176,154 C178.209139,154 180,155.790861 180,158 C180,160.209139 178.209139,162 176,162 Z M176,174 C173.790861,174 172,172.209139 172,170 C172,167.790861 173.790861,166 176,166 C178.209139,166 180,167.790861 180,170 C180,172.209139 178.209139,174 176,174 Z M176,186 C173.790861,186 172,184.209139 172,182 C172,179.790861 173.790861,178 176,178 C178.209139,178 180,179.790861 180,182 C180,184.209139 178.209139,186 176,186 Z M176,198 C173.790861,198 172,196.209139 172,194 C172,191.790861 173.790861,190 176,190 C178.209139,190 180,191.790861 180,194 C180,196.209139 178.209139,198 176,198 Z M176,30 C173.790861,30 172,28.209139 172,26 C172,23.790861 173.790861,22 176,22 C178.209139,22 180,23.790861 180,26 C180,28.209139 178.209139,30 176,30 Z M176,42 C173.790861,42 172,40.209139 172,38 C172,35.790861 173.790861,34 176,34 C178.209139,34 180,35.790861 180,38 C180,40.209139 178.209139,42 176,42 Z M176,54 C173.790861,54 172,52.209139 172,50 C172,47.790861 173.790861,46 176,46 C178.209139,46 180,47.790861 180,50 C180,52.209139 178.209139,54 176,54 Z M176,66 C173.790861,66 172,64.209139 172,62 C172,59.790861 173.790861,58 176,58 C178.209139,58 180,59.790861 180,62 C180,64.209139 178.209139,66 176,66 Z M176,78 C173.790861,78 172,76.209139 172,74 C172,71.790861 173.790861,70 176,70 C178.209139,70 180,71.790861 180,74 C180,76.209139 178.209139,78 176,78 Z M176,90 C173.790861,90 172,88.209139 172,86 C172,83.790861 173.790861,82 176,82 C178.209139,82 180,83.790861 180,86 C180,88.209139 178.209139,90 176,90 Z M176,102 C173.790861,102 172,100.209139 172,98 C172,95.790861 173.790861,94 176,94 C178.209139,94 180,95.790861 180,98 C180,100.209139 178.209139,102 176,102 Z M165,114 C162.790861,114 161,112.209139 161,110 C161,107.790861 162.790861,106 165,106 C167.209139,106 169,107.790861 169,110 C169,112.209139 167.209139,114 165,114 Z M165,126 C162.790861,126 161,124.209139 161,122 C161,119.790861 162.790861,118 165,118 C167.209139,118 169,119.790861 169,122 C169,124.209139 167.209139,126 165,126 Z M165,138 C162.790861,138 161,136.209139 161,134 C161,131.790861 162.790861,130 165,130 C167.209139,130 169,131.790861 169,134 C169,136.209139 167.209139,138 165,138 Z M165,150 C162.790861,150 161,148.209139 161,146 C161,143.790861 162.790861,142 165,142 C167.209139,142 169,143.790861 169,146 C169,148.209139 167.209139,150 165,150 Z M165,162 C162.790861,162 161,160.209139 161,158 C161,155.790861 162.790861,154 165,154 C167.209139,154 169,155.790861 169,158 C169,160.209139 167.209139,162 165,162 Z M165,174 C162.790861,174 161,172.209139 161,170 C161,167.790861 162.790861,166 165,166 C167.209139,166 169,167.790861 169,170 C169,172.209139 167.209139,174 165,174 Z M165,186 C162.790861,186 161,184.209139 161,182 C161,179.790861 162.790861,178 165,178 C167.209139,178 169,179.790861 169,182 C169,184.209139 167.209139,186 165,186 Z M165,198 C162.790861,198 161,196.209139 161,194 C161,191.790861 162.790861,190 165,190 C167.209139,190 169,191.790861 169,194 C169,196.209139 167.209139,198 165,198 Z M165,210 C162.790861,210 161,208.209139 161,206 C161,203.790861 162.790861,202 165,202 C167.209139,202 169,203.790861 169,206 C169,208.209139 167.209139,210 165,210 Z M165,18 C162.790861,18 161,16.209139 161,14 C161,11.790861 162.790861,10 165,10 C167.209139,10 169,11.790861 169,14 C169,16.209139 167.209139,18 165,18 Z M165,30 C162.790861,30 161,28.209139 161,26 C161,23.790861 162.790861,22 165,22 C167.209139,22 169,23.790861 169,26 C169,28.209139 167.209139,30 165,30 Z M165,42 C162.790861,42 161,40.209139 161,38 C161,35.790861 162.790861,34 165,34 C167.209139,34 169,35.790861 169,38 C169,40.209139 167.209139,42 165,42 Z M165,54 C162.790861,54 161,52.209139 161,50 C161,47.790861 162.790861,46 165,46 C167.209139,46 169,47.790861 169,50 C169,52.209139 167.209139,54 165,54 Z M165,66 C162.790861,66 161,64.209139 161,62 C161,59.790861 162.790861,58 165,58 C167.209139,58 169,59.790861 169,62 C169,64.209139 167.209139,66 165,66 Z M165,78 C162.790861,78 161,76.209139 161,74 C161,71.790861 162.790861,70 165,70 C167.209139,70 169,71.790861 169,74 C169,76.209139 167.209139,78 165,78 Z M165,90 C162.790861,90 161,88.209139 161,86 C161,83.790861 162.790861,82 165,82 C167.209139,82 169,83.790861 169,86 C169,88.209139 167.209139,90 165,90 Z M165,102 C162.790861,102 161,100.209139 161,98 C161,95.790861 162.790861,94 165,94 C167.209139,94 169,95.790861 169,98 C169,100.209139 167.209139,102 165,102 Z M154,114 C151.790861,114 150,112.209139 150,110 C150,107.790861 151.790861,106 154,106 C156.209139,106 158,107.790861 158,110 C158,112.209139 156.209139,114 154,114 Z M154,126 C151.790861,126 150,124.209139 150,122 C150,119.790861 151.790861,118 154,118 C156.209139,118 158,119.790861 158,122 C158,124.209139 156.209139,126 154,126 Z M154,138 C151.790861,138 150,136.209139 150,134 C150,131.790861 151.790861,130 154,130 C156.209139,130 158,131.790861 158,134 C158,136.209139 156.209139,138 154,138 Z M154,150 C151.790861,150 150,148.209139 150,146 C150,143.790861 151.790861,142 154,142 C156.209139,142 158,143.790861 158,146 C158,148.209139 156.209139,150 154,150 Z M154,162 C151.790861,162 150,160.209139 150,158 C150,155.790861 151.790861,154 154,154 C156.209139,154 158,155.790861 158,158 C158,160.209139 156.209139,162 154,162 Z M154,174 C151.790861,174 150,172.209139 150,170 C150,167.790861 151.790861,166 154,166 C156.209139,166 158,167.790861 158,170 C158,172.209139 156.209139,174 154,174 Z M154,186 C151.790861,186 150,184.209139 150,182 C150,179.790861 151.790861,178 154,178 C156.209139,178 158,179.790861 158,182 C158,184.209139 156.209139,186 154,186 Z M154,198 C151.790861,198 150,196.209139 150,194 C150,191.790861 151.790861,190 154,190 C156.209139,190 158,191.790861 158,194 C158,196.209139 156.209139,198 154,198 Z M154,210 C151.790861,210 150,208.209139 150,206 C150,203.790861 151.790861,202 154,202 C156.209139,202 158,203.790861 158,206 C158,208.209139 156.209139,210 154,210 Z M154,18 C151.790861,18 150,16.209139 150,14 C150,11.790861 151.790861,10 154,10 C156.209139,10 158,11.790861 158,14 C158,16.209139 156.209139,18 154,18 Z M154,30 C151.790861,30 150,28.209139 150,26 C150,23.790861 151.790861,22 154,22 C156.209139,22 158,23.790861 158,26 C158,28.209139 156.209139,30 154,30 Z M154,42 C151.790861,42 150,40.209139 150,38 C150,35.790861 151.790861,34 154,34 C156.209139,34 158,35.790861 158,38 C158,40.209139 156.209139,42 154,42 Z M154,54 C151.790861,54 150,52.209139 150,50 C150,47.790861 151.790861,46 154,46 C156.209139,46 158,47.790861 158,50 C158,52.209139 156.209139,54 154,54 Z M154,66 C151.790861,66 150,64.209139 150,62 C150,59.790861 151.790861,58 154,58 C156.209139,58 158,59.790861 158,62 C158,64.209139 156.209139,66 154,66 Z M154,78 C151.790861,78 150,76.209139 150,74 C150,71.790861 151.790861,70 154,70 C156.209139,70 158,71.790861 158,74 C158,76.209139 156.209139,78 154,78 Z M154,90 C151.790861,90 150,88.209139 150,86 C150,83.790861 151.790861,82 154,82 C156.209139,82 158,83.790861 158,86 C158,88.209139 156.209139,90 154,90 Z M154,102 C151.790861,102 150,100.209139 150,98 C150,95.790861 151.790861,94 154,94 C156.209139,94 158,95.790861 158,98 C158,100.209139 156.209139,102 154,102 Z M143,114 C140.790861,114 139,112.209139 139,110 C139,107.790861 140.790861,106 143,106 C145.209139,106 147,107.790861 147,110 C147,112.209139 145.209139,114 143,114 Z M143,126 C140.790861,126 139,124.209139 139,122 C139,119.790861 140.790861,118 143,118 C145.209139,118 147,119.790861 147,122 C147,124.209139 145.209139,126 143,126 Z M143,138 C140.790861,138 139,136.209139 139,134 C139,131.790861 140.790861,130 143,130 C145.209139,130 147,131.790861 147,134 C147,136.209139 145.209139,138 143,138 Z M143,150 C140.790861,150 139,148.209139 139,146 C139,143.790861 140.790861,142 143,142 C145.209139,142 147,143.790861 147,146 C147,148.209139 145.209139,150 143,150 Z M143,162 C140.790861,162 139,160.209139 139,158 C139,155.790861 140.790861,154 143,154 C145.209139,154 147,155.790861 147,158 C147,160.209139 145.209139,162 143,162 Z M143,174 C140.790861,174 139,172.209139 139,170 C139,167.790861 140.790861,166 143,166 C145.209139,166 147,167.790861 147,170 C147,172.209139 145.209139,174 143,174 Z M143,186 C140.790861,186 139,184.209139 139,182 C139,179.790861 140.790861,178 143,178 C145.209139,178 147,179.790861 147,182 C147,184.209139 145.209139,186 143,186 Z M143,198 C140.790861,198 139,196.209139 139,194 C139,191.790861 140.790861,190 143,190 C145.209139,190 147,191.790861 147,194 C147,196.209139 145.209139,198 143,198 Z M143,210 C140.790861,210 139,208.209139 139,206 C139,203.790861 140.790861,202 143,202 C145.209139,202 147,203.790861 147,206 C147,208.209139 145.209139,210 143,210 Z M143,222 C140.790861,222 139,220.209139 139,218 C139,215.790861 140.790861,214 143,214 C145.209139,214 147,215.790861 147,218 C147,220.209139 145.209139,222 143,222 Z M143,6 C140.790861,6 139,4.209139 139,2 C139,-0.209138999 140.790861,-2 143,-2 C145.209139,-2 147,-0.209138999 147,2 C147,4.209139 145.209139,6 143,6 Z M143,18 C140.790861,18 139,16.209139 139,14 C139,11.790861 140.790861,10 143,10 C145.209139,10 147,11.790861 147,14 C147,16.209139 145.209139,18 143,18 Z M143,30 C140.790861,30 139,28.209139 139,26 C139,23.790861 140.790861,22 143,22 C145.209139,22 147,23.790861 147,26 C147,28.209139 145.209139,30 143,30 Z M143,42 C140.790861,42 139,40.209139 139,38 C139,35.790861 140.790861,34 143,34 C145.209139,34 147,35.790861 147,38 C147,40.209139 145.209139,42 143,42 Z M143,54 C140.790861,54 139,52.209139 139,50 C139,47.790861 140.790861,46 143,46 C145.209139,46 147,47.790861 147,50 C147,52.209139 145.209139,54 143,54 Z M143,66 C140.790861,66 139,64.209139 139,62 C139,59.790861 140.790861,58 143,58 C145.209139,58 147,59.790861 147,62 C147,64.209139 145.209139,66 143,66 Z M143,78 C140.790861,78 139,76.209139 139,74 C139,71.790861 140.790861,70 143,70 C145.209139,70 147,71.790861 147,74 C147,76.209139 145.209139,78 143,78 Z M143,90 C140.790861,90 139,88.209139 139,86 C139,83.790861 140.790861,82 143,82 C145.209139,82 147,83.790861 147,86 C147,88.209139 145.209139,90 143,90 Z M143,102 C140.790861,102 139,100.209139 139,98 C139,95.790861 140.790861,94 143,94 C145.209139,94 147,95.790861 147,98 C147,100.209139 145.209139,102 143,102 Z M132,114 C129.790861,114 128,112.209139 128,110 C128,107.790861 129.790861,106 132,106 C134.209139,106 136,107.790861 136,110 C136,112.209139 134.209139,114 132,114 Z M132,126 C129.790861,126 128,124.209139 128,122 C128,119.790861 129.790861,118 132,118 C134.209139,118 136,119.790861 136,122 C136,124.209139 134.209139,126 132,126 Z M132,138 C129.790861,138 128,136.209139 128,134 C128,131.790861 129.790861,130 132,130 C134.209139,130 136,131.790861 136,134 C136,136.209139 134.209139,138 132,138 Z M132,150 C129.790861,150 128,148.209139 128,146 C128,143.790861 129.790861,142 132,142 C134.209139,142 136,143.790861 136,146 C136,148.209139 134.209139,150 132,150 Z M132,162 C129.790861,162 128,160.209139 128,158 C128,155.790861 129.790861,154 132,154 C134.209139,154 136,155.790861 136,158 C136,160.209139 134.209139,162 132,162 Z M132,174 C129.790861,174 128,172.209139 128,170 C128,167.790861 129.790861,166 132,166 C134.209139,166 136,167.790861 136,170 C136,172.209139 134.209139,174 132,174 Z M132,186 C129.790861,186 128,184.209139 128,182 C128,179.790861 129.790861,178 132,178 C134.209139,178 136,179.790861 136,182 C136,184.209139 134.209139,186 132,186 Z M132,198 C129.790861,198 128,196.209139 128,194 C128,191.790861 129.790861,190 132,190 C134.209139,190 136,191.790861 136,194 C136,196.209139 134.209139,198 132,198 Z M132,210 C129.790861,210 128,208.209139 128,206 C128,203.790861 129.790861,202 132,202 C134.209139,202 136,203.790861 136,206 C136,208.209139 134.209139,210 132,210 Z M132,222 C129.790861,222 128,220.209139 128,218 C128,215.790861 129.790861,214 132,214 C134.209139,214 136,215.790861 136,218 C136,220.209139 134.209139,222 132,222 Z M132,6 C129.790861,6 128,4.209139 128,2 C128,-0.209138999 129.790861,-2 132,-2 C134.209139,-2 136,-0.209138999 136,2 C136,4.209139 134.209139,6 132,6 Z M132,18 C129.790861,18 128,16.209139 128,14 C128,11.790861 129.790861,10 132,10 C134.209139,10 136,11.790861 136,14 C136,16.209139 134.209139,18 132,18 Z M132,30 C129.790861,30 128,28.209139 128,26 C128,23.790861 129.790861,22 132,22 C134.209139,22 136,23.790861 136,26 C136,28.209139 134.209139,30 132,30 Z M132,42 C129.790861,42 128,40.209139 128,38 C128,35.790861 129.790861,34 132,34 C134.209139,34 136,35.790861 136,38 C136,40.209139 134.209139,42 132,42 Z M132,54 C129.790861,54 128,52.209139 128,50 C128,47.790861 129.790861,46 132,46 C134.209139,46 136,47.790861 136,50 C136,52.209139 134.209139,54 132,54 Z M132,66 C129.790861,66 128,64.209139 128,62 C128,59.790861 129.790861,58 132,58 C134.209139,58 136,59.790861 136,62 C136,64.209139 134.209139,66 132,66 Z M132,78 C129.790861,78 128,76.209139 128,74 C128,71.790861 129.790861,70 132,70 C134.209139,70 136,71.790861 136,74 C136,76.209139 134.209139,78 132,78 Z M132,90 C129.790861,90 128,88.209139 128,86 C128,83.790861 129.790861,82 132,82 C134.209139,82 136,83.790861 136,86 C136,88.209139 134.209139,90 132,90 Z M132,102 C129.790861,102 128,100.209139 128,98 C128,95.790861 129.790861,94 132,94 C134.209139,94 136,95.790861 136,98 C136,100.209139 134.209139,102 132,102 Z M121,114 C118.790861,114 117,112.209139 117,110 C117,107.790861 118.790861,106 121,106 C123.209139,106 125,107.790861 125,110 C125,112.209139 123.209139,114 121,114 Z M121,126 C118.790861,126 117,124.209139 117,122 C117,119.790861 118.790861,118 121,118 C123.209139,118 125,119.790861 125,122 C125,124.209139 123.209139,126 121,126 Z M121,138 C118.790861,138 117,136.209139 117,134 C117,131.790861 118.790861,130 121,130 C123.209139,130 125,131.790861 125,134 C125,136.209139 123.209139,138 121,138 Z M121,150 C118.790861,150 117,148.209139 117,146 C117,143.790861 118.790861,142 121,142 C123.209139,142 125,143.790861 125,146 C125,148.209139 123.209139,150 121,150 Z M121,162 C118.790861,162 117,160.209139 117,158 C117,155.790861 118.790861,154 121,154 C123.209139,154 125,155.790861 125,158 C125,160.209139 123.209139,162 121,162 Z M121,174 C118.790861,174 117,172.209139 117,170 C117,167.790861 118.790861,166 121,166 C123.209139,166 125,167.790861 125,170 C125,172.209139 123.209139,174 121,174 Z M121,186 C118.790861,186 117,184.209139 117,182 C117,179.790861 118.790861,178 121,178 C123.209139,178 125,179.790861 125,182 C125,184.209139 123.209139,186 121,186 Z M121,198 C118.790861,198 117,196.209139 117,194 C117,191.790861 118.790861,190 121,190 C123.209139,190 125,191.790861 125,194 C125,196.209139 123.209139,198 121,198 Z M121,210 C118.790861,210 117,208.209139 117,206 C117,203.790861 118.790861,202 121,202 C123.209139,202 125,203.790861 125,206 C125,208.209139 123.209139,210 121,210 Z M121,222 C118.790861,222 117,220.209139 117,218 C117,215.790861 118.790861,214 121,214 C123.209139,214 125,215.790861 125,218 C125,220.209139 123.209139,222 121,222 Z M121,6 C118.790861,6 117,4.209139 117,2 C117,-0.209138999 118.790861,-2 121,-2 C123.209139,-2 125,-0.209138999 125,2 C125,4.209139 123.209139,6 121,6 Z M121,18 C118.790861,18 117,16.209139 117,14 C117,11.790861 118.790861,10 121,10 C123.209139,10 125,11.790861 125,14 C125,16.209139 123.209139,18 121,18 Z M121,30 C118.790861,30 117,28.209139 117,26 C117,23.790861 118.790861,22 121,22 C123.209139,22 125,23.790861 125,26 C125,28.209139 123.209139,30 121,30 Z M121,42 C118.790861,42 117,40.209139 117,38 C117,35.790861 118.790861,34 121,34 C123.209139,34 125,35.790861 125,38 C125,40.209139 123.209139,42 121,42 Z M121,54 C118.790861,54 117,52.209139 117,50 C117,47.790861 118.790861,46 121,46 C123.209139,46 125,47.790861 125,50 C125,52.209139 123.209139,54 121,54 Z M121,66 C118.790861,66 117,64.209139 117,62 C117,59.790861 118.790861,58 121,58 C123.209139,58 125,59.790861 125,62 C125,64.209139 123.209139,66 121,66 Z M121,78 C118.790861,78 117,76.209139 117,74 C117,71.790861 118.790861,70 121,70 C123.209139,70 125,71.790861 125,74 C125,76.209139 123.209139,78 121,78 Z M121,90 C118.790861,90 117,88.209139 117,86 C117,83.790861 118.790861,82 121,82 C123.209139,82 125,83.790861 125,86 C125,88.209139 123.209139,90 121,90 Z M121,102 C118.790861,102 117,100.209139 117,98 C117,95.790861 118.790861,94 121,94 C123.209139,94 125,95.790861 125,98 C125,100.209139 123.209139,102 121,102 Z" mask="url(#picture-e)" style="mix-blend-mode:overlay"/><g mask="url(#picture-e)"><use fill="#000" filter="url(#picture-f)" xlink:href="#picture-g"/><use fill="url(#picture-h)" xlink:href="#picture-g"/></g></g><path fill="#000" d="M357.761758,173.500002 C366.587119,177.800995 372,183.608749 372,190 C372,196.391252 366.587118,202.199006 357.761754,206.5 C366.587119,210.800995 372,216.608749 372,223 C372,236.254834 348.718807,247 320,247 C291.281193,247 268,236.254834 268,223 C268,216.608749 273.412881,210.800995 282.238242,206.500002 C273.412882,202.199006 268,196.391252 268,190 C268,183.608749 273.412881,177.800995 282.238242,173.500002 C273.412882,169.199006 268,163.391252 268,157 C268,143.745166 291.281193,133 320,133 C348.718807,133 372,143.745166 372,157 C372,163.391252 366.587118,169.199006 357.761754,173.5 Z" filter="url(#picture-i)" opacity=".336"/><use fill="#000" filter="url(#picture-j)" xlink:href="#picture-k"/><use fill="url(#picture-l)" xlink:href="#picture-k"/><use fill="#000" filter="url(#picture-m)" xlink:href="#picture-n"/><use fill="url(#picture-l)" xlink:href="#picture-n"/><g><use fill="#000" filter="url(#picture-o)" xlink:href="#picture-p"/><use fill="#FFF" xlink:href="#picture-p"/></g></g></svg>