<svg height="360" viewBox="0 0 640 360" width="640" xmlns="http://www.w3.org/2000/svg"><g fill="none" fill-rule="evenodd"><path d="m0 0h640v360h-640z" fill="#fff"/><g transform="translate(160 138)"><circle cx="40" cy="40" fill="#def6ec" r="40"/><path d="m.85876343 48.2834819c-.56278802-2.67259-.85876343-5.4434716-.85876343-8.2834819 0-22.09139 17.90861-40 40-40s40 17.90861 40 40c0 2.8400103-.2959754 5.6108919-.8587634 8.2834819-7.7398701-13.7063379-22.3689871-22.9501486-39.1412366-22.9501486s-31.40136647 9.2438107-39.14123434 22.9501592z" fill="#9eecc6"/><path d="m.85876566 31.7165075c7.73986787 13.7063485 22.36898484 22.9501592 39.14123434 22.9501592s31.4013665-9.2438107 39.1412343-22.9501592c.5627903 2.6726006.8587657 5.4434822.8587657 8.2834925 0 22.09139-17.90861 40-40 40s-40-17.90861-40-40c0-2.8400103.29597541-5.6108919.85876343-8.2834819z" fill="#21df8c"/></g><g fill="#21df8c"><text font-family="NittiGrotesk-Light, Nitti Grotesk" font-size="28" font-weight="300" letter-spacing="3.333333"><tspan x="269" y="165">SQL</tspan></text><text font-family="NittiGrotesk-Bold, Nitti Grotesk" font-size="52" font-weight="bold"><tspan x="269" y="207">Importer</tspan></text></g></g></svg>