<?xml version="1.0" encoding="UTF-8"?>
<svg width="640px" height="360px" viewBox="0 0 640 360" version="1.1" xmlns="http://www.w3.org/2000/svg" xmlns:xlink="http://www.w3.org/1999/xlink">
    <!-- Generator: Sketch 52.5 (67469) - http://www.bohemiancoding.com/sketch -->
    <title>sql-importer/picture</title>
    <desc>Created with Sketch.</desc>
    <defs>
        <path d="M0.858765657,31.7165075 C8.59863353,45.422856 23.2277505,54.6666667 40,54.6666667 C56.7722495,54.6666667 71.4013665,45.422856 79.1412343,31.7165075 C79.7040246,34.3891081 80,37.1599897 80,40 C80,62.09139 62.09139,80 40,80 C17.90861,80 0,62.09139 0,40 C0,37.1599897 0.295975411,34.3891081 0.858763432,31.7165181 Z" id="path-1"></path>
    </defs>
    <g id="sql-importer/picture" stroke="none" stroke-width="1" fill="none" fill-rule="evenodd">
        <rect id="Rectangle" fill="#FFFFFF" x="0" y="0" width="640" height="360"></rect>
        <g id="Group-2" transform="translate(160.000000, 138.000000)">
            <circle id="Oval-2" fill="#DEF6EC" cx="40" cy="40" r="40"></circle>
            <path d="M0.858763432,48.2834819 C0.295975411,45.6108919 0,42.8400103 0,40 C0,17.90861 17.90861,0 40,0 C62.09139,0 80,17.90861 80,40 C80,42.8400103 79.7040246,45.6108919 79.1412366,48.2834819 C71.4013665,34.577144 56.7722495,25.3333333 40,25.3333333 C23.2277505,25.3333333 8.59863353,34.577144 0.858765657,48.2834925 Z" id="Combined-Shape" fill="#9EECC6"></path>
            <mask id="mask-2" fill="white">
                <use xlink:href="#path-1"></use>
            </mask>
            <use id="Combined-Shape" fill="#21DF8C" xlink:href="#path-1"></use>
        </g>
        <text id="SQL" font-family="NittiGrotesk-Light, Nitti Grotesk" font-size="28" font-weight="300" letter-spacing="3.333333" fill="#21DF8C">
            <tspan x="269" y="165">SQL</tspan>
        </text>
        <text id="Importer" font-family="NittiGrotesk-Bold, Nitti Grotesk" font-size="52" font-weight="bold" fill="#21DF8C">
            <tspan x="269" y="207">Importer</tspan>
        </text>
    </g>
</svg>