<?xml version="1.0" encoding="UTF-8"?>
<svg width="257px" height="257px" viewBox="0 0 257 257" version="1.1" xmlns="http://www.w3.org/2000/svg" xmlns:xlink="http://www.w3.org/1999/xlink">
    <!-- Generator: Sketch 52.5 (67469) - http://www.bohemiancoding.com/sketch -->
    <title>snowflake/logo</title>
    <desc>Created with Sketch.</desc>
    <g id="snowflake/logo" stroke="none" stroke-width="1" fill="none" fill-rule="evenodd">
        <g id="Group" transform="translate(3.000000, 3.000000)">
            <circle id="Oval-2" fill="#21BDF1" cx="125.5" cy="125.5" r="125.5"></circle>
            <g id="Group-18" transform="translate(41.000000, 40.000000)" fill="#FFFFFF">
                <path d="M93.4252695,31.0741332 C93.4252695,24.3591332 93.4162695,17.6441332 93.4272695,10.9291332 C93.4392695,4.68013322 98.0152695,-0.0288667824 104.02427,0.000133217597 C110.11427,0.0291332176 114.56127,4.63213322 114.56927,10.9351332 C114.57827,17.8101332 114.62327,24.6861332 114.53827,31.5601332 C114.51327,33.5231332 115.05927,33.5061332 116.51627,32.6471332 C122.50427,29.1181332 128.52127,25.6411332 134.54927,22.1821332 C139.03027,19.6101332 144.67627,20.5521332 148.09127,24.3801332 C151.19327,27.8571332 151.44627,33.3361332 148.69727,37.2821332 C147.07827,39.6041332 144.61127,40.8211332 142.26727,42.1731332 C131.61327,48.3211332 120.92327,54.4051332 110.28227,60.5761332 C106.55327,62.7391332 102.79927,63.3271332 98.9372695,61.1481332 C95.0152695,58.9331332 93.3662695,55.4351332 93.4092695,50.9791332 C93.4722695,44.3451332 93.4252695,37.7091332 93.4252695,31.0741332 Z M114.80717,136.762133 C114.35917,137.515133 114.58417,138.323133 114.58217,139.084133 C114.56117,145.720133 114.57417,152.356133 114.56917,158.991133 C114.56517,165.318133 110.16417,169.985133 104.11517,170.088133 C98.0981695,170.192133 93.4321695,165.334133 93.4301695,158.948133 C93.4251695,145.516133 93.4191695,132.084133 93.4321695,118.653133 C93.4391695,109.851133 101.86417,104.792133 109.56017,109.125133 C121.46317,115.828133 133.28817,122.671133 145.09417,129.544133 C150.50817,132.697133 152.12717,138.712133 149.20617,144.011133 C146.47117,148.972133 140.16217,150.797133 134.85717,147.910133 C128.82617,144.627133 122.92517,141.105133 116.96117,137.697133 C116.29217,137.314133 115.70617,136.707133 114.80717,136.762133 Z M55.0121695,136.335333 C48.8701695,139.879333 43.1461695,143.176333 37.4281695,146.481333 C34.5781695,148.128333 31.7601695,149.702333 28.2231695,149.196333 C23.7951695,148.563333 20.2621695,145.490333 19.2091695,141.068333 C18.2501695,137.041333 19.9091695,132.434333 23.5731695,130.195333 C29.9791695,126.280333 36.5181695,122.584333 43.0211695,118.827333 C48.6921695,115.551333 54.3431695,112.237333 60.0851695,109.088333 C67.8231695,104.843333 76.1521695,109.867333 76.1561695,118.699333 C76.1611695,132.132333 76.1601695,145.564333 76.1561695,158.995333 C76.1541695,165.298333 71.7061695,170.007333 65.6931695,170.090333 C59.6681695,170.174333 55.0171695,165.324333 55.0131695,158.943333 C55.0081695,151.591333 55.0121695,144.239333 55.0121695,136.335333 Z M144.35307,85.0531332 C149.07007,87.7851332 153.48107,90.3361332 157.88907,92.8951332 C160.10107,94.1781332 162.33607,95.4251332 164.50607,96.7761332 C169.61307,99.9531332 171.08407,106.157133 168.03307,111.422133 C165.46207,115.859133 158.84707,117.693133 154.06607,114.987133 C141.96607,108.139133 129.88107,101.257133 117.93107,94.1541332 C110.35607,89.6511332 110.64507,80.0721332 118.30107,75.6171332 C129.90607,68.8661332 141.52007,62.1271332 153.17607,55.4651332 C160.28507,51.4021332 168.15107,55.0291332 169.51807,62.8791332 C170.23907,67.0231332 168.05707,71.2141332 163.70107,73.7781332 C158.39907,76.8991332 153.04507,79.9321332 147.71807,83.0131332 C146.69707,83.6031332 145.70007,84.2351332 144.35307,85.0531332 Z M76.1572695,31.1913332 C76.1572695,38.0663332 76.1842695,44.9403332 76.1502695,51.8153332 C76.1092695,59.9833332 67.6392695,65.1643332 60.5182695,61.1703332 C48.3262695,54.3343332 36.2342695,47.3163332 24.1712695,40.2543332 C18.9842695,37.2173332 17.4872695,30.9233332 20.4632695,25.8693332 C23.3512695,20.9643332 29.8222695,19.2313332 34.9262695,22.1153332 C40.9762695,25.5333332 46.9842695,29.0263332 52.9652695,32.5643332 C54.4972695,33.4703332 55.0742695,33.5553332 55.0462695,31.4513332 C54.9532695,24.5783332 55.0012695,17.7033332 55.0132695,10.8293332 C55.0252695,4.56633322 59.5432695,0.0353332176 65.7102695,0.0743332176 C71.7342695,0.112333218 76.1442695,4.63333322 76.1542695,10.8083332 C76.1662695,17.6023332 76.1572695,24.3973332 76.1572695,31.1913332 Z M25.2573695,85.0047332 C18.4093695,81.0157332 11.8013695,77.2847332 5.31736954,73.3507332 C0.62936954,70.5067332 -1.05563046,65.6117332 0.66336954,60.7837332 C2.66336954,55.1667332 8.71336954,52.2367332 14.2603695,54.4987332 C18.8493695,56.3707332 22.9283695,59.2597332 27.2233695,61.7157332 C35.3373695,66.3547332 43.4313695,71.0287332 51.5063695,75.7337332 C58.9013695,80.0427332 59.2353695,89.5997332 51.8963695,93.9927332 C39.9023695,101.171733 27.7473695,108.087733 15.5773695,114.967733 C10.7393695,117.703733 4.25636954,115.899733 1.62336954,111.444733 C-1.46363046,106.219733 -0.0616304598,99.9167332 5.09436954,96.8037332 C11.1793695,93.1297332 17.3823695,89.6497332 23.5313695,86.0817332 C24.0073695,85.8047332 24.4673695,85.4987332 25.2573695,85.0047332 Z M104.52147,85.4955332 C104.98647,87.4515332 103.91447,89.0565332 102.30247,90.6085332 C98.0404695,94.7135332 93.9064695,98.9505332 89.7044695,103.117533 C87.2194695,105.580533 82.4234695,105.628533 79.9694695,103.197533 C75.5364695,98.8085332 71.1214695,94.4025332 66.7224695,89.9785332 C64.2664695,87.5095332 64.2874695,82.4605332 66.7254695,80.0225332 C71.0794695,75.6705332 75.4184695,71.3055332 79.8034695,66.9835332 C82.4194695,64.4045332 87.1524695,64.3775332 89.7294695,66.9195332 C94.2254695,71.3545332 98.6314695,75.8825332 103.18147,80.2605332 C104.68947,81.7125332 104.51047,83.3955332 104.52147,85.4955332 Z M85.2006695,91.9759332 C85.4376695,91.8819332 86.0626695,91.8029332 86.4336695,91.4549332 C88.0566695,89.9269332 89.6726695,88.3809332 91.1606695,86.7249332 C92.3266695,85.4269332 91.9486695,84.0219332 90.8566695,82.8559332 C89.5496695,81.4609332 88.1996695,80.0949332 86.7646695,78.8329332 C85.3286695,77.5709332 83.8336695,77.8039332 82.4966695,79.0819332 C81.2866695,80.2389332 80.0906695,81.4119332 78.9386695,82.6259332 C77.4226695,84.2239332 77.4446695,85.8129332 78.9946695,87.4379332 C80.1496695,88.6489332 81.3626695,89.8049332 82.5386695,90.9959332 C83.1906695,91.6549332 83.9586695,92.0059332 85.2006695,91.9759332 Z" id="Combined-Shape"></path>
            </g>
        </g>
    </g>
</svg>