<svg height="257" viewBox="0 0 257 257" width="257" xmlns="http://www.w3.org/2000/svg"><g fill="none" fill-rule="evenodd"><path d="m0 0h257v257h-257z" fill="#21bdf1"/><path d="m137.42527 74.0741332c0-6.715-.009-13.43.002-20.145.012-6.249 4.588-10.958 10.597-10.929 6.09.029 10.537 4.632 10.545 10.935.009 6.875.054 13.751-.031 20.625-.025 1.963.521 1.946 1.978 1.087 5.988-3.529 12.005-7.006 18.033-10.465 4.481-2.572 10.127-1.63 13.542 2.198 3.102 3.477 3.355 8.956.606 12.902-1.619 2.322-4.086 3.539-6.43 4.891-10.654 6.148-21.344 12.232-31.985 18.4029998-3.729 2.163-7.483 2.751-11.345.572-3.922-2.215-5.571-5.7129998-5.528-10.1689998.063-6.634.016-13.27.016-19.905zm21.3819 105.6879998c-.448.753-.223 1.561-.225 2.322-.021 6.636-.008 13.272-.013 19.907-.004 6.327-4.405 10.994-10.454 11.097-6.017.104-10.683-4.754-10.685-11.14-.005-13.432-.011-26.864.002-40.295.007-8.802 8.432-13.861 16.128-9.528 11.903 6.703 23.728 13.546 35.534 20.419 5.414 3.153 7.033 9.168 4.112 14.467-2.735 4.961-9.044 6.786-14.349 3.899-6.031-3.283-11.932-6.805-17.896-10.213-.669-.383-1.255-.99-2.154-.935zm-59.7950005-.4268c-6.142 3.544-11.866 6.841-17.584 10.146-2.85 1.647-5.668 3.221-9.205 2.715-4.428-.633-7.961-3.706-9.014-8.128-.959-4.027.7-8.634 4.364-10.873 6.406-3.915 12.945-7.611 19.448-11.368 5.671-3.276 11.322-6.59 17.0640005-9.739 7.738-4.245 16.067.779 16.071 9.611.005 13.433.004 26.865 0 40.296-.002 6.303-4.45 11.012-10.463 11.095-6.025.084-10.6760005-4.766-10.6800005-11.147-.005-7.352-.001-14.704-.001-22.608zm89.3409005-51.2822c4.717 2.732 9.128 5.283 13.536 7.842 2.212 1.283 4.447 2.53 6.617 3.881 5.107 3.177 6.578 9.381 3.527 14.646-2.571 4.437-9.186 6.271-13.967 3.565-12.1-6.848-24.185-13.73-36.135-20.833-7.575-4.503-7.286-14.082.37-18.537 11.605-6.751 23.219-13.49 34.875-20.1519998 7.109-4.063 14.975-.436 16.342 7.4139998.721 4.144-1.461 8.335-5.817 10.899-5.302 3.121-10.656 6.154-15.983 9.235-1.021.59-2.018 1.222-3.365 2.04zm-68.1958-53.8617998c0 6.875.027 13.749-.007 20.624-.041 8.1679998-8.511 13.3489998-15.632 9.3549998-12.1920005-6.8359998-24.2840005-13.8539998-36.3470005-20.9159998-5.187-3.037-6.684-9.331-3.708-14.385 2.888-4.905 9.359-6.638 14.463-3.754 6.05 3.418 12.058 6.911 18.039 10.449 1.532.906 2.109.991 2.081-1.113-.093-6.873-.045-13.748-.033-20.622.012-6.263 4.5300005-10.794 10.6970005-10.755 6.024.038 10.434 4.559 10.444 10.734.012 6.794.003 13.589.003 20.383zm-50.8999005 53.8133998c-6.848-3.989-13.456-7.72-19.94-11.654-4.688-2.844-6.373-7.739-4.654-12.567 2-5.6169998 8.05-8.5469998 13.597-6.2849998 4.589 1.872 8.668 4.7609998 12.963 7.2169998 8.114 4.639 16.208 9.313 24.283 14.018 7.3950005 4.309 7.7290005 13.866.39 18.259-11.994 7.179-24.149 14.095-36.319 20.975-4.838 2.736-11.321.932-13.954-3.523-3.087-5.225-1.685-11.528 3.471-14.641 6.085-3.674 12.288-7.154 18.437-10.722.476-.277.936-.583 1.726-1.077zm79.2641005.4908c.465 1.956-.607 3.561-2.219 5.113-4.262 4.105-8.396 8.342-12.598 12.509-2.485 2.463-7.281 2.511-9.735.08-4.433-4.389-8.848-8.795-13.247-13.219-2.456-2.469-2.435-7.518.003-9.956 4.354-4.352 8.693-8.717 13.078-13.039 2.616-2.579 7.349-2.606 9.926-.064 4.496 4.435 8.902 8.963 13.452 13.341 1.508 1.452 1.329 3.135 1.34 5.235zm-19.3208 6.4804c.237-.094.862-.173 1.233-.521 1.623-1.528 3.239-3.074 4.727-4.73 1.166-1.298.788-2.703-.304-3.869-1.307-1.395-2.657-2.761-4.092-4.023-1.436-1.262-2.931-1.029-4.268.249-1.21 1.157-2.406 2.33-3.558 3.544-1.516 1.598-1.494 3.187.056 4.812 1.155 1.211 2.368 2.367 3.544 3.558.652.659 1.42 1.01 2.662.98z" fill="#fff"/></g></svg>