<?xml version="1.0" encoding="UTF-8"?>
<svg width="640px" height="360px" viewBox="0 0 640 360" version="1.1" xmlns="http://www.w3.org/2000/svg" xmlns:xlink="http://www.w3.org/1999/xlink">
    <!-- Generator: Sketch 52.5 (67469) - http://www.bohemiancoding.com/sketch -->
    <title>snowflake/picture</title>
    <desc>Created with Sketch.</desc>
    <g id="snowflake/picture" stroke="none" stroke-width="1" fill="none" fill-rule="evenodd">
        <rect id="Rectangle" fill="#21BDF1" x="0" y="0" width="640" height="360"></rect>
        <g id="Group" transform="translate(119.000000, 133.000000)" fill="#FFFFFF">
            <path d="M52.0094103,17.3962008 C52.0094103,13.6369491 52.0043746,9.87769741 52.0105293,6.11844569 C52.0172435,2.62007429 54.5776124,-0.0161604619 57.9397752,7.4579074e-05 C61.3472591,0.01630962 63.8354498,2.5932025 63.8399259,6.12180467 C63.8449616,9.97062902 63.8701401,13.8200132 63.8225808,17.6682777 C63.8085928,18.7672221 64.1140913,18.757705 64.9293137,18.2768119 C68.2797264,16.3011753 71.6463653,14.3546499 75.019159,12.4182014 C77.5263734,10.9783212 80.6854299,11.5056801 82.5961947,13.6487055 C84.3318294,15.595231 84.4733882,18.662534 82.9352645,20.8716193 C82.0293998,22.1715422 80.649061,22.8528541 79.3375434,23.6097429 C73.3764048,27.0515716 67.3951235,30.4575712 61.4412587,33.9122759 C59.3548042,35.1231861 57.2543617,35.4523655 55.093491,34.2324981 C52.8990489,32.9924769 51.9763985,31.0341951 52.0004579,28.539597 C52.0357077,24.8256915 52.0094103,21.1106662 52.0094103,17.3962008 Z M63.9588304,76.3489554 C63.7082763,76.7703545 63.8341127,77.2225331 63.8329941,77.6484092 C63.8212494,81.3620936 63.8285199,85.075778 63.8257236,88.7889027 C63.8234865,92.3296624 61.3621279,94.9414413 57.9790881,94.9990829 C54.613945,95.0572841 52.0043792,92.3386164 52.0032607,88.7648388 C52.0004643,81.2479297 51.9971087,73.7310206 52.0043792,66.2146711 C52.0082941,61.2888348 56.7201655,58.4576821 61.0243273,60.8825456 C67.6813487,64.633725 74.2947469,68.4632522 80.8975188,72.3095682 C83.9254206,74.0740719 84.8308828,77.440228 83.1972477,80.4056911 C81.6676372,83.1820004 78.1391865,84.2033195 75.1722455,82.5876766 C71.7992726,80.7504213 68.4990052,78.7794152 65.1635036,76.8722066 C64.7893502,76.6578695 64.4616165,76.3181759 63.9588304,76.3489554 Z M30.1729644,76.1070076 C26.7379462,78.0905547 23.5367017,79.935858 20.3388127,81.7856389 C18.7449016,82.707451 17.1688871,83.5884056 15.1907596,83.3052016 C12.7143251,82.9509168 10.7384347,81.2309845 10.1495265,78.7560281 C9.61318939,76.5021499 10.5410134,73.9236506 12.5901679,72.670501 C16.1728325,70.4793083 19.8298797,68.410688 23.4667933,66.3079266 C26.6383967,64.4743768 29.7988147,62.6195588 33.0101261,60.8570898 C37.3377344,58.4811989 41.9958696,61.2930896 41.9981067,66.2362861 C42.000903,73.7546237 42.0003438,81.2724016 41.9981067,88.7896199 C41.9969881,92.3173562 39.5093683,94.9529441 36.1464956,94.9993985 C32.7769117,95.0464126 30.1757607,92.3319082 30.1735236,88.7605159 C30.1707273,84.6456631 30.1729644,80.5308102 30.1729644,76.1070076 Z M79.8586073,47.5190175 C82.4950902,49.0496973 84.9605399,50.4789669 87.4243128,51.9127186 C88.6606707,52.6315554 89.9098841,53.3302223 91.1227668,54.087158 C93.9772333,55.8671617 94.7994225,59.3431272 93.0941205,62.2929916 C91.657106,64.7789457 87.9597698,65.8064958 85.2875152,64.2903831 C78.5244363,60.4535985 71.7697413,56.5977644 65.0905021,52.6181088 C60.8565911,50.0951763 61.0181225,44.7282721 65.297307,42.232233 C71.7837146,38.4497953 78.2751525,34.674081 84.7900656,30.941508 C88.7635142,28.665098 93.1600745,30.6972268 93.9241348,35.0954101 C94.3271248,37.4172027 93.1075349,39.7653284 90.6728265,41.2018815 C87.7093682,42.9505096 84.7168455,44.6498331 81.739414,46.3760501 C81.1687442,46.7066142 80.6114889,47.06071 79.8586073,47.5190175 Z M41.9943142,17.4333829 C41.9943142,21.2850892 42.009414,25.1362353 41.9903994,28.9879416 C41.9674701,33.5640488 37.2306098,36.4666947 33.2481798,34.2290634 C26.4297854,30.3992068 19.6673161,26.467385 12.9210651,22.5109123 C10.0202275,20.8094385 9.18302804,17.2832364 10.8473605,14.4517421 C12.4624789,11.7037247 16.0813954,10.7328146 18.9358151,12.3485703 C22.3192868,14.2634987 25.6792699,16.2204456 29.0241531,18.2026037 C29.8809265,18.7101886 30.2036146,18.7578097 30.1879555,17.5790475 C30.1359451,13.7284616 30.1627892,9.87675533 30.1695002,6.02560926 C30.1762113,2.51677484 32.7029096,-0.0217097082 36.1518136,0.00013997128 C39.5207447,0.0214294025 41.9870439,2.55431147 41.9926364,6.01384405 C41.9993474,9.82017026 41.9943142,13.6270567 41.9943142,17.4333829 Z M14.1226014,47.504594 C10.2935576,45.2718319 6.59870926,43.1834801 2.97319523,40.9815032 C0.351910564,39.3896317 -0.5902534,36.6497544 0.370921588,33.9473791 C1.48921709,30.8033769 4.872061,29.1633686 7.97365359,30.4294774 C10.5395826,31.4772915 12.8203463,33.0943509 15.2218859,34.4690472 C19.7588108,37.0656336 24.2845527,39.6818106 28.7996708,42.3153392 C32.9345684,44.7272149 33.1213238,50.0765523 29.0177384,52.5354453 C22.3113203,56.5537453 15.5148793,60.4248365 8.71005118,64.2757774 C6.00489435,65.807198 2.37993947,64.7974455 0.907703431,62.3038494 C-0.818385683,59.3792613 -0.0344605331,55.8512845 2.84850528,54.1088457 C6.25091936,52.0523985 9.71931287,50.1045388 13.1575124,48.107423 C13.4236667,47.9523778 13.6808747,47.7811005 14.1226014,47.504594 Z M57.9395263,47.266167 C58.1969365,48.3429876 57.603509,49.226575 56.7111534,50.0809847 C54.351836,52.3408765 52.0633757,54.6734372 49.7372726,56.9674613 C48.3616499,58.3233964 45.706726,58.3498214 44.348264,57.0115031 C41.8942861,54.5952631 39.4502725,52.1696643 37.015116,49.734156 C35.6555469,48.3749178 35.6671719,45.5953335 37.0167767,44.2531615 C39.4270225,41.8572908 41.8289648,39.4542634 44.2563713,37.0749084 C45.7045117,35.6551128 48.3245607,35.6402487 49.7511118,37.039675 C52.2399647,39.4812389 54.6789962,41.9740014 57.1977418,44.3841857 C58.0325261,45.1835432 57.933437,46.1100713 57.9395263,47.266167 Z M47.2020871,50.9989837 C47.3369603,50.9451976 47.6926384,50.8999944 47.9037689,50.7008713 C48.8273939,49.8265608 49.7470352,48.9419509 50.5938337,47.9943998 C51.2573867,47.2516937 51.0422726,46.4477629 50.4208318,45.7805862 C49.6770377,44.9823774 48.908773,44.2007621 48.0921361,43.4786549 C47.27493,42.7565477 46.424148,42.8898686 45.6632813,43.6211309 C44.9746885,44.2831579 44.2940629,44.9543399 43.6384769,45.6489819 C42.7757441,46.5633458 42.788264,47.47256 43.6703457,48.4023732 C44.3276389,49.0952986 45.017939,49.7567533 45.6871829,50.4382349 C46.0582263,50.8153098 46.4952836,51.0161495 47.2020871,50.9989837 Z" id="Combined-Shape"></path>
        </g>
        <g id="Group-2" transform="translate(227.000000, 147.000000)" fill="#FFFFFF">
            <path d="M277.318174,34.3286158 C272.92879,34.3291683 268.538851,34.3584513 264.150022,34.3087255 C263.071811,34.2960178 262.904866,34.6059752 263.123947,35.6126461 C264.280361,40.9288851 268.16891,44.8561172 273.379708,45.8666557 C278.825118,46.9224999 284.038135,44.7566656 287.142983,40.1487428 C287.167387,40.1128297 287.186245,40.0724966 287.210649,40.034926 C288.34987,38.3144138 289.699298,37.8050007 290.91284,38.6381839 C292.282789,39.5796588 292.384287,40.9758484 291.238965,42.6930455 C284.494045,52.8056129 271.907706,53.1133602 264.180527,46.6987338 C258.580374,42.0499254 256.438373,33.5180855 259.202675,26.4067456 C263.50609,15.3361281 276.570525,11.4801696 286.070873,18.6152674 C290.317716,21.8049003 292.453062,26.3277368 292.98052,31.5743598 C293.156894,33.3252599 292.127491,34.310383 290.221209,34.3203282 C285.920567,34.3435335 281.61937,34.3275108 277.318174,34.3286158 Z M275.901687,29.9779695 C279.546215,29.9779695 283.190743,29.9424198 286.834715,29.9991846 C287.954269,30.016386 288.2279,29.7681119 287.823014,28.6173357 C285.979338,23.3789243 281.321483,19.9495309 275.999015,20.0005618 C270.590898,20.0521661 265.914689,23.5480718 264.142758,28.8065515 C263.830751,29.7331357 263.9976,30.0072119 264.968658,29.9957443 C268.61263,29.9515939 272.257158,29.9779695 275.901687,29.9779695 Z M125.459991,32.0034656 C124.116901,35.2207638 122.89365,38.1571869 121.665429,41.0924997 C120.553735,43.7497128 119.429339,46.401375 118.327585,49.0630287 C117.869763,50.1687669 117.184964,51.0452531 115.908697,50.9864136 C114.633534,50.9281292 113.883568,50.113813 113.440658,48.9076037 C110.171845,40.0039694 106.875972,31.1103267 103.585622,22.2144636 C103.139398,21.0082543 102.663904,19.8137019 102.228725,18.604162 C101.658795,17.0199368 102.181231,15.6272175 103.49229,15.1559465 C104.843664,14.6707984 106.105573,15.3335752 106.688205,16.921686 C109.603572,24.8683461 112.499059,32.8222225 115.40559,40.7722131 C115.540341,41.1419027 115.713198,41.4971599 115.974968,42.1083134 C116.949702,39.7963659 117.838285,37.6970178 118.72024,35.5948941 C120.125183,32.2432642 121.541724,28.8966301 122.919054,25.5333433 C123.414981,24.3232483 124.163843,23.4306645 125.526262,23.4384358 C126.884263,23.4467621 127.617109,24.3387908 128.117454,25.5538816 C130.225974,30.6773569 132.376465,35.7830694 134.514806,40.8937777 C134.650109,41.2173949 134.809711,41.5299102 135.084183,42.118305 C135.886061,39.9173754 136.603444,37.9495834 137.320274,35.9817914 C139.610486,29.6937385 141.900146,23.4051304 144.190911,17.1176326 C144.809439,15.419614 146.149768,14.6430439 147.547532,15.1664932 C148.876264,15.6638534 149.348996,17.0871026 148.733229,18.7551464 C145.094956,28.6090938 141.455027,38.4624861 137.815097,48.3153233 C137.707959,48.6061901 137.595299,48.8959468 137.475459,49.1818179 C137.030339,50.244259 136.298598,51.0163884 135.103512,50.9997357 C133.936592,50.9830831 133.179447,50.2864458 132.725491,49.1934748 C130.618077,44.1177371 128.488019,39.0514359 126.361275,33.9845797 C126.122148,33.4156131 125.850989,32.8605236 125.459991,32.0034656 Z M217.097082,45.6279088 C213.601466,48.9237504 209.870647,50.8556428 205.406194,50.9929234 C198.104472,51.2182185 191.247876,46.039197 188.948056,39.0140835 C186.423475,31.3009064 189.083243,22.790616 195.23423,18.2326785 C201.472045,13.6110827 210.125633,14.0052109 215.906232,19.2113564 C216.221118,19.4947744 216.448077,19.9066162 217.095983,20.0605034 C217.095983,19.1925357 217.060263,18.3754947 217.103677,17.562882 C217.188306,15.9752983 218.173629,14.9744784 219.569458,15.0004953 C220.931215,15.0259586 221.986329,16.1153466 221.988527,17.622112 C222.003914,27.8467492 222.003365,38.0713865 221.989626,48.2954702 C221.987428,49.7784329 220.922972,50.9298186 219.611223,50.9879414 C218.299473,51.0455107 217.198198,49.9494801 217.106425,48.429983 C217.056417,47.6074065 217.097082,46.7787409 217.097082,45.6279088 Z M216.993714,32.741347 C217.058389,31.0635994 216.619794,29.2434377 215.873584,27.4966741 C213.514302,21.9677208 207.709303,18.9173204 202.315725,20.3535118 C195.17755,22.2541922 191.267695,30.0677962 193.746002,37.4777111 C195.939521,44.0347846 202.583122,47.5195479 208.778345,45.3619744 C213.693653,43.6497188 217.006757,38.657557 216.993714,32.741347 Z M233.923298,33.9388842 C236.346159,31.5374566 238.491202,29.4130525 240.634608,27.2869797 C244.605939,23.347459 248.570721,19.4012631 252.550239,15.4700866 C253.745569,14.2896767 254.868851,14.1405957 255.937006,14.9510845 C257.261692,15.9557123 257.375767,17.4782297 256.124219,18.7281736 C252.290433,22.5569961 248.458283,26.3885999 244.547537,30.135094 C243.675875,30.9700588 243.804141,31.4573533 244.465119,32.2645045 C248.352942,37.0095075 252.202557,41.7873305 256.068001,46.551803 C256.671123,47.2944266 257.159626,48.0798831 256.89054,49.0984177 C256.646562,50.0212735 256.092016,50.6854627 255.153219,50.9163157 C254.118359,51.1710885 253.2658,50.8223057 252.592813,49.9973538 C250.557478,47.5002473 248.523781,45.001472 246.488446,42.5043655 C244.564457,40.144102 242.620819,37.7999704 240.726304,35.415231 C240.197412,34.7499293 239.909769,34.7705113 239.334482,35.3996553 C237.968314,36.8949154 236.520819,38.3145224 235.064046,39.7196663 C234.261156,40.4939973 233.821777,41.3078238 233.893824,42.5049218 C234.00517,44.3673216 233.932577,46.2414031 233.920569,48.1099218 C233.909652,49.8377037 232.936469,50.9791745 231.486245,50.9997566 C230.106431,51.0197824 229.009348,49.8021022 229.008257,48.1305039 C228.99734,33.0004528 228.996795,17.8709579 229.009348,2.74090683 C229.010986,1.09434074 230.021285,0.0146161423 231.437668,0.000153061703 C232.92719,-0.0148662912 233.918385,1.07654002 233.920023,2.79653407 C233.927118,12.6308726 233.923298,22.4657674 233.923298,32.3001059 L233.923298,33.9388842 Z M99.9999973,31.8336718 C100.004395,41.350862 94.5611198,48.5808681 86.7730737,50.5444777 C79.9333814,52.2681768 72.411974,48.9842281 68.6999249,42.6523628 C64.2715251,35.0993363 65.3611699,26.0442371 71.4504257,19.7943736 C76.84917,14.2537145 85.7065193,13.3965745 92.1415807,17.8446156 C97.3990341,21.479288 99.7960326,26.6575881 99.9999973,31.8336718 Z M81.9928212,45.9988066 C85.3723548,46.033909 87.6467689,45.2945663 89.71071,43.7884574 C95.0910972,39.8619338 96.6448995,31.6474424 93.0777349,25.9849994 C88.8231337,19.2294482 80.7637021,18.0107395 75.0738597,23.2612788 C70.6822064,27.3150483 69.6891217,34.8324295 72.8402349,39.9403656 C75.164684,43.7078318 78.44306,45.8276828 81.9928212,45.9988066 Z M35.9697874,18.7181989 C38.0050958,17.1702535 40.0493457,16.0286992 42.3663114,15.4482197 C51.5687891,13.1407165 60.7394128,20.0299607 60.9338904,29.5166704 C61.0607479,35.7195405 60.9685387,41.9268459 60.9545676,48.1319336 C60.9506557,49.8068416 59.8569988,51.0082734 58.430271,50.9999571 C56.9387174,50.9916408 55.9685649,49.8877872 55.964653,48.1141921 C55.9523584,42.1303187 55.9680061,36.1464452 55.9579469,30.1631262 C55.9478877,24.2890282 51.6593218,19.9074335 45.9535285,19.9185219 C40.3500036,19.9296103 35.9077557,24.4387221 35.8786959,30.2080343 C35.8485183,36.2800608 35.8803724,42.3526418 35.8647248,48.4252227 C35.8608129,49.8395525 35.1058151,50.7343891 33.7975623,50.9561578 C32.5474291,51.1690557 31.7818133,50.4898891 31.1950275,49.5052362 C30.9239884,49.0506104 31.0145211,48.5560662 31.0145211,48.075937 C31.0094915,38.1029994 31.0094915,28.1300618 31.0117268,18.1571241 C31.0122857,16.1551074 31.8952586,15.0595701 33.4901983,15.0617878 C35.052725,15.063451 35.7965459,16.002087 35.8764605,18.0689711 C35.8809312,18.1987058 35.9122265,18.3273316 35.9697874,18.7181989 Z M13.3269038,15 C16.9567854,15.204425 20.6389967,16.7866409 23.4321656,20.1228118 C24.4354331,21.3211077 24.4421854,22.3825663 23.6774963,23.1132886 C22.8531626,23.9005186 21.7300431,23.8650627 20.5084538,22.9005537 C18.4507143,21.274572 16.3457094,19.8291933 13.5559166,19.7206099 C11.5656994,19.6424963 9.743725,20.0302943 7.98983553,20.9731975 C6.38618297,21.8363251 5.37166172,23.0745088 5.41161237,24.8611497 C5.44987495,26.6184287 6.84927281,27.4045507 8.30268845,28.0150556 C10.5793124,28.9718087 12.9392137,29.696991 15.3002404,30.4194033 C17.4502602,31.0769979 19.5203787,31.9185196 21.5049691,32.9749922 C27.5363908,36.1870678 26.6726691,43.4893046 23.7146335,46.7019342 C20.6530639,50.0264712 16.721583,51.0629999 12.4001614,50.9970742 C9.0184239,50.9449985 5.85444555,49.9671935 2.94480086,48.2359523 C2.05125691,47.704115 1.20779193,47.1013661 0.602342758,46.2659384 C0.00477117484,45.4399286 -0.0717539997,44.5352512 0.605156184,43.6826496 C1.25730822,42.8610718 2.09795977,42.7325444 3.01401113,43.1729722 C4.06285617,43.6771096 5.05543269,44.3014644 6.12397171,44.7551881 C10.1527971,46.4681474 14.1810598,46.8227055 18.1755613,44.6105948 C19.7533304,43.7369413 20.6721951,42.4533298 20.699204,40.659487 C20.7245249,38.9287998 19.5749592,37.9310509 18.1890658,37.1676428 C16.3772197,36.1693399 14.4393322,35.4812754 12.4474269,34.9017944 C9.26881877,33.9766191 5.98442581,33.2924326 3.2604672,31.2415351 C-0.883708609,28.121977 -1.1183483,21.8806449 2.79175051,18.4425384 C5.28106942,16.2536956 8.47149398,15.1418233 13.3269038,15 Z M159.368106,35.5972961 C159.368106,31.0620304 159.342617,26.5262086 159.388497,21.9903869 C159.398693,21.0490843 159.11095,20.7338342 158.162758,20.8022218 C157.217398,20.8706094 156.257878,20.8555974 155.311952,20.7816499 C153.855112,20.6671145 152.944304,19.5907048 153.002646,18.160125 C153.055323,16.8413007 153.923649,16.0078615 155.36293,15.9022221 C155.633114,15.8822062 155.906129,15.8860982 156.177446,15.8844302 C159.368106,15.8627463 159.35961,15.8633023 159.370372,12.6618729 C159.380001,9.88466893 159.59241,7.14860876 161.182359,4.71612284 C162.765511,2.29420085 165.196031,1.37124619 167.952245,1.06600396 C168.758831,0.976488478 169.582977,0.994836372 170.396926,1.0237482 C171.924002,1.07767989 172.945263,2.02287442 172.997374,3.37617059 C173.052883,4.80508232 172.227039,5.7602848 170.655215,5.96489161 C169.805581,6.07553497 168.936688,6.02716325 168.07969,6.09666285 C166.168579,6.25178595 165.233982,7.04797335 164.77348,8.87609077 C164.267098,10.8832392 164.326572,12.9304193 164.311845,14.9753755 C164.306181,15.6859394 164.609784,15.9083381 165.289491,15.8922142 C166.421204,15.8649703 167.555749,15.8560744 168.685763,15.9061141 C170.190182,15.9733897 171.091361,16.8735485 171.110619,18.2424126 C171.131577,19.6401885 170.168658,20.6960264 168.702755,20.7888778 C167.710382,20.8517055 166.703283,20.8889573 165.716007,20.7988858 C164.536715,20.6915784 164.294852,21.1752956 164.299384,22.2433654 C164.337334,31.2254934 164.325439,40.2081775 164.318076,49.1903055 C164.316376,50.9294634 163.405002,51.9825213 161.941365,51.9997572 C160.394464,52.0186611 159.37547,50.9322434 159.371505,49.2047614 C159.360743,44.6683837 159.36754,40.1331179 159.368106,35.5972961 Z M183,48.9295214 C182.555339,50.3868176 181.530611,51.1521762 180.263758,50.974742 C178.839121,50.7750591 178.008896,49.7432712 178.008323,48.1029787 C178.003159,34.2881448 178.005454,20.4727548 178.005454,6.65792098 C178.005454,5.32521808 177.990536,3.99251519 178.010044,2.65981229 C178.031273,1.17470514 178.854613,0.195201885 180.181137,0.0300045725 C181.601183,-0.146873358 182.48821,0.454400361 182.991967,1.93672641 C182.733203,2.34888536 182.855413,2.80498569 182.85484,3.23939343 C182.847955,18.0365116 182.847381,32.8336298 182.855413,47.630748 C182.855413,48.063487 182.725171,48.521256 183,48.9295214 Z" id="Combined-Shape"></path>
        </g>
    </g>
</svg>