<svg height="360" viewBox="0 0 640 360" width="640" xmlns="http://www.w3.org/2000/svg"><g fill="none" fill-rule="evenodd"><path d="m0 0h640v360h-640z" fill="#21bdf1"/><g fill="#fff"><path d="m52.0094103 17.3962008c0-3.7592517-.0050357-7.51850339.001119-11.27775511.0067142-3.4983714 2.5670831-6.13460615 5.9292459-6.11837111 3.4074839.01623504 5.8956746 2.59312792 5.9001507 6.12173009.0050357 3.84882435.0302142 7.69820853-.0173451 11.54647303-.013988 1.0989444.2915105 1.0894273 1.1067329.6085342 3.3504127-1.9756366 6.7170516-3.922162 10.0898453-5.8586105 2.5072144-1.4398802 5.6662709-.9125213 7.5770357 1.2305041 1.7356347 1.9465255 1.8771935 5.0138285.3390698 7.2229138-.9058647 1.2999229-2.2862035 1.9812348-3.5977211 2.7381236-5.9611386 3.4418287-11.9424199 6.8478283-17.8962847 10.302533-2.0864545 1.2109102-4.186897 1.5400896-6.3477677.3202222-2.1944421-1.2400212-3.1170925-3.198303-3.0930331-5.6929011.0352498-3.7139055.0089524-7.4289308.0089524-11.1433962zm11.9494201 58.9527546c-.2505541.4213991-.1247177.8735777-.1258363 1.2994538-.0117447 3.7136844-.0044742 7.4273688-.0072705 11.1404935-.0022371 3.5407597-2.4635957 6.1525386-5.8466355 6.2101802-3.3651431.0582012-5.9747089-2.6604665-5.9758274-6.2342441-.0027964-7.5169091-.006152-15.0338182.0011185-22.5501677.0039149-4.9258363 4.7157863-7.756989 9.0199481-5.3321255 6.6570214 3.7511794 13.2704196 7.5807066 19.8731915 11.4270226 3.0279018 1.7645037 3.933364 5.1306598 2.2997289 8.0961229-1.5296105 2.7763093-5.0580612 3.7976284-8.0250022 2.1819855-3.3729729-1.8372553-6.6732403-3.8082614-10.0087419-5.71547-.3741534-.2143371-.7018871-.5540307-1.2046732-.5232512zm-33.785866-.2419478c-3.4350182 1.9835471-6.6362627 3.8288504-9.8341517 5.6786313-1.5939111.9218121-3.1699256 1.8027667-5.1480531 1.5195627-2.4764345-.3542848-4.4523249-2.0742171-5.0412331-4.5491735-.53633711-2.2538782.3914869-4.8323775 2.4406414-6.0855271 3.5826646-2.1911927 7.2397118-4.259813 10.8766254-6.3625744 3.1716034-1.8335498 6.3320214-3.6883678 9.5433328-5.4508368 4.3276083-2.3758909 8.9857435.4359998 8.9879806 5.3791963.0027963 7.5183376.0022371 15.0361155 0 22.5533338-.0011186 3.5277363-2.4887384 6.1633242-5.8516111 6.2097786-3.3695839.0470141-5.9707349-2.6674903-5.972972-6.2388826-.0027963-4.1148528-.0005592-8.2297057-.0005592-12.6535083zm49.6856429-28.5879901c2.6364829 1.5306798 5.1019326 2.9599494 7.5657055 4.3937011 1.2363579.7188368 2.4855713 1.4175037 3.698454 2.1744394 2.8544665 1.7800037 3.6766557 5.2559692 1.9713537 8.2058336-1.4370145 2.4859541-5.1343507 3.5135042-7.8066053 1.9973915-6.7630789-3.8367846-13.5177739-7.6926187-20.1970131-11.6722743-4.233911-2.5229325-4.0723796-7.8898367.2068049-10.3858758 6.4864076-3.7824377 12.9778455-7.558152 19.4927586-11.290725 3.9734486-2.27641 8.3700089-.2442812 9.1340692 4.1539021.40299 2.3217926-.8165999 4.6699183-3.2513083 6.1064714-2.9634583 1.7486281-5.955981 3.4479516-8.9334125 5.1741686-.5706698.3305641-1.1279251.6846599-1.8808067 1.1429674zm-37.8642931-30.0856346c0 3.8517063.0150998 7.7028524-.0039148 11.5545587-.0229293 4.5761072-4.7597896 7.4787531-8.7422196 5.2411218-6.8183944-3.8298566-13.5808637-7.7616784-20.3271147-11.7181511-2.9008376-1.7014738-3.73803706-5.2276759-2.0737046-8.0591702 1.6151184-2.7480174 5.2340349-3.7189275 8.0884546-2.1031718 3.3834717 1.9149284 6.7434548 3.8718753 10.088338 5.8540334.8567734.5075849 1.1794615.555206 1.1638024-.6235562-.0520104-3.8505859-.0251663-7.70229217-.0184553-11.55343824.0067111-3.50883442 2.5334094-6.04731897 5.9823134-6.02546929 3.3689311.02128943 5.8352303 2.5541715 5.8408228 6.01370408.006711 3.80632621.0016778 7.61321265.0016778 11.41953885zm-27.8717128 30.0712111c-3.8290438-2.2327621-7.52389214-4.3211139-11.14940617-6.5230908-2.62128467-1.5918715-3.56344863-4.3317488-2.60227364-7.0341241 1.1182955-3.1440022 4.50113941-4.7840105 7.602732-3.5179017 2.56592901 1.0478141 4.84669271 2.6648735 7.24823231 4.0395698 4.5369249 2.5965864 9.0626668 5.2127634 13.5777849 7.846292 4.1348976 2.4118757 4.321653 7.7612131.2180676 10.2201061-6.7064181 4.0183-13.5028591 7.8893912-20.30768722 11.7403321-2.70515683 1.5314206-6.33011171.5216681-7.80234775-1.971928-1.72608911-2.9245881-.94216396-6.4525649 1.94080185-8.1950037 3.40241408-2.0564472 6.87080759-4.0043069 10.30900712-6.0014227.2661543-.1550452.5233623-.3263225.965089-.602829zm43.8169249-.238427c.2574102 1.0768206-.3360173 1.960408-1.2283729 2.8148177-2.3593174 2.2598918-4.6477777 4.5924525-6.9738808 6.8864766-1.3756227 1.3559351-4.0305466 1.3823601-5.3890086.0440418-2.4539779-2.41624-4.8979915-4.8418388-7.333148-7.2773471-1.3595691-1.3592382-1.3479441-4.1388225.0016607-5.4809945 2.4102458-2.3958707 4.8121881-4.7988981 7.2395946-7.1782531 1.4481404-1.4197956 4.0681894-1.4346597 5.4947405-.0352334 2.4888529 2.4415639 4.9278844 4.9343264 7.44663 7.3445107.8347843.7993575.7356952 1.7258856.7417845 2.8819813zm-10.7374392 3.7328167c.1348732-.0537861.4905513-.0989893.7016818-.2981124.923625-.8743105 1.8432663-1.7589204 2.6900648-2.7064715.663553-.7427061.4484389-1.5466369-.1730019-2.2138136-.7437941-.7982088-1.5120588-1.5798241-2.3286957-2.3019313-.8172061-.7221072-1.6679881-.5887863-2.4288548.142476-.6885928.662027-1.3692184 1.333209-2.0248044 2.027851-.8627328.9143639-.8502129 1.8235781.0318688 2.7533913.6572932.6929254 1.3475933 1.3543801 2.0168372 2.0358617.3710434.3770749.8081007.5779146 1.5149042.5607488z" transform="translate(119 133)"/><path d="m277.318174 34.3286158c-4.389384.0005525-8.779323.0298355-13.168152-.0198903-1.078211-.0127077-1.245156.2972497-1.026075 1.3039206 1.156414 5.316239 5.044963 9.2434711 10.255761 10.2540096 5.44541 1.0558442 10.658427-1.1099901 13.763275-5.7179129.024404-.0359131.043262-.0762462.067666-.1138168 1.139221-1.7205122 2.488649-2.2299253 3.702191-1.3967421 1.369949.9414749 1.471447 2.3376645.326125 4.0548616-6.74492 10.1125674-19.331259 10.4203147-27.058438 4.0056883-5.600153-4.6488084-7.742154-13.1806483-4.977852-20.2919882 4.303415-11.0706175 17.36785-14.926576 26.868198-7.7914782 4.246843 3.1896329 6.382189 7.7124694 6.909647 12.9590924.176374 1.7509001-.853029 2.7360232-2.759311 2.7459684-4.300642.0232053-8.601839.0071826-12.903035.0082876zm-1.416487-4.3506463c3.644528 0 7.289056-.0355497 10.933028.0212151 1.119554.0172014 1.393185-.2310727.988299-1.3818489-1.843676-5.2384114-6.501531-8.6678048-11.823999-8.6167739-5.408117.0516043-10.084326 3.54751-11.856257 8.8059897-.312007.9265842-.145158 1.2006604.8259 1.1891928 3.643972-.0441504 7.2885-.0177748 10.933029-.0177748zm-150.441696 2.0254961c-1.34309 3.2172982-2.566341 6.1537213-3.794562 9.0890341-1.111694 2.6572131-2.23609 5.3088753-3.337844 7.970529-.457822 1.1057382-1.142621 1.9822244-2.418888 1.9233849-1.275163-.0582844-2.025129-.8726006-2.468039-2.0788099-3.268813-8.9036343-6.564686-17.797277-9.855036-26.6931401-.446224-1.2062093-.921718-2.4007617-1.356897-3.6103016-.56993-1.5842252-.047494-2.9769445 1.263565-3.4482155 1.351374-.4851481 2.613283.1776287 3.195915 1.7657395 2.915367 7.9466601 5.810854 15.9005365 8.717385 23.8505271.134751.3696896.307608.7249468.569378 1.3361003.974734-2.3119475 1.863317-4.4112956 2.745272-6.5134193 1.404943-3.3516299 2.821484-6.698264 4.198814-10.0615508.495927-1.210095 1.244789-2.1026788 2.607208-2.0949075 1.358001.0083263 2.090847.900355 2.591192 2.1154458 2.10852 5.1234753 4.259011 10.2291878 6.397352 15.3398961.135303.3236172.294905.6361325.569377 1.2245273.801878-2.2009296 1.519261-4.1687216 2.236091-6.1365136 2.290212-6.2880529 4.579872-12.576661 6.870637-18.8641588.618528-1.6980186 1.958857-2.4745887 3.356621-1.9511394 1.328732.4973602 1.801464 1.9206094 1.185697 3.5886532-3.638273 9.8539474-7.278202 19.7073397-10.918132 29.5601769-.107138.2908668-.219798.5806235-.339638.8664946-.44512 1.0624411-1.176861 1.8345705-2.371947 1.8179178-1.16692-.0166526-1.924065-.7132899-2.378021-1.8062609-2.107414-5.0757377-4.237472-10.1420389-6.364216-15.2088951-.239127-.5689666-.510286-1.1240561-.901284-1.9811141zm91.637091 13.6244432c-3.495616 3.2958416-7.226435 5.227734-11.690888 5.3650146-7.301722.2252951-14.158318-4.9537264-16.458138-11.9788399-2.524581-7.7131771.135187-16.2234675 6.286174-20.781405 6.237815-4.6215958 14.891403-4.2274676 20.672002.9786779.314886.283418.541845.6952598 1.189751.849147 0-.8679677-.03572-1.6850087.007694-2.4976214.084629-1.5875837 1.069952-2.5884036 2.465781-2.5623867 1.361757.0254633 2.416871 1.1148513 2.419069 2.6216167.015387 10.2246372.014838 20.4492745.001099 30.6733582-.002198 1.4829627-1.066654 2.6343484-2.378403 2.6924712-1.31175.0575693-2.413025-1.0384613-2.504798-2.5579584-.050008-.8225765-.009343-1.6512421-.009343-2.8020742zm-.103368-12.8865618c.064675-1.6777476-.37392-3.4979093-1.12013-5.2446729-2.359282-5.5289533-8.164281-8.5793537-13.557859-7.1431623-7.138175 1.9006804-11.04803 9.7142844-8.569723 17.1241993 2.193519 6.5570735 8.83712 10.0418368 15.032343 7.8842633 4.915308-1.7122556 8.228412-6.7044174 8.215369-12.6206274zm16.929584 1.1975372c2.422861-2.4014276 4.567904-4.5258317 6.71131-6.6519045 3.971331-3.9395207 7.936113-7.8857166 11.915631-11.8168931 1.19533-1.1804099 2.318612-1.3294909 3.386767-.5190021 1.324686 1.0046278 1.438761 2.5271452.187213 3.7770891-3.833786 3.8288225-7.665936 7.6604263-11.576682 11.4069204-.871662.8349648-.743396 1.3222593-.082418 2.1294105 3.887823 4.745003 7.737438 9.522826 11.602882 14.2872985.603122.7426236 1.091625 1.5280801.822539 2.5466147-.243978.9228558-.798524 1.587045-1.737321 1.817898-1.03486.2547728-1.887419-.09401-2.560406-.9189619-2.035335-2.4971065-4.069032-4.9958818-6.104367-7.4929883-1.923989-2.3602635-3.867627-4.7043951-5.762142-7.0891345-.528892-.6653017-.816535-.6447197-1.391822-.0155757-1.366168 1.4952601-2.813663 2.9148671-4.270436 4.320011-.80289.774331-1.242269 1.5881575-1.170222 2.7852555.111346 1.8623998.038753 3.7364813.026745 5.605-.010917 1.7277819-.9841 2.8692527-2.434324 2.8898348-1.379814.0200258-2.476897-1.1976544-2.477988-2.8692527-.010917-15.1300511-.011462-30.259546.001091-45.38959707.001638-1.64656609 1.011937-2.72629069 2.42832-2.74075377 1.489522-.01501935 2.480717 1.07638696 2.482355 2.79638101.007095 9.83433853.003275 19.66923333.003275 29.50357183zm-133.9233007-2.1052124c.0043977 9.5171902-5.4388775 16.7471963-13.2269236 18.7108059-6.8396923 1.7236991-14.3610997-1.5602496-18.0731488-7.8921149-4.4283998-7.5530265-3.338755-16.6081257 2.7505008-22.8579892 5.3987443-5.5406591 14.2560936-6.3977991 20.691155-1.949758 5.2574534 3.6346724 7.6544519 8.8129725 7.8584166 13.9890562zm-18.0071761 14.1651348c3.3795336.0351024 5.6539477-.7042403 7.7178888-2.2103492 5.3803872-3.9265236 6.9341895-12.141015 3.3670249-17.803458-4.2546012-6.7555512-12.3140328-7.9742599-18.0038752-2.7237206-4.3916533 4.0537695-5.384738 11.5711507-2.2336248 16.6790868 2.3244491 3.7674662 5.6028251 5.8873172 9.1525863 6.058441zm-46.0230338-27.2806077c2.0353084-1.5479454 4.0795583-2.6894997 6.396524-3.2699792 9.2024777-2.3075032 18.3731014 4.581741 18.567579 14.0684507.1268575 6.2028701.0346483 12.4101755.0206772 18.6152632-.0039119 1.674908-1.0975688 2.8763398-2.5242966 2.8680235-1.4915536-.0083163-2.4617061-1.1121699-2.465618-2.885765-.0122946-5.9838734.0033531-11.9677469-.0067061-17.9510659-.0100592-5.874098-4.2986251-10.2556927-10.0044184-10.2446043-5.6035249.0110884-10.0457728 4.5202002-10.0748326 10.2895124-.0301776 6.0720265.0016765 12.1446075-.0139711 18.2171884-.0039119 1.4143298-.7589097 2.3091664-2.0671625 2.5309351-1.2501332.2128979-2.015749-.4662687-2.6025348-1.4509216-.2710391-.4546258-.1805064-.94917-.1805064-1.4292992-.0050296-9.9729376-.0050296-19.9458752-.0027943-29.9188129.0005589-2.0020167.8835318-3.097554 2.4784715-3.0953363 1.5625267.0016632 2.3063476.9402992 2.3862622 3.0071833.0044707.1297347.035766.2583605.0933269.6492278zm-22.6428836-3.7181989c3.6298816.204425 7.3120929 1.7866409 10.1052618 5.1228118 1.0032675 1.1982959 1.0100198 2.2597545.2453307 2.9904768-.8243337.78723-1.9474532.7517741-3.1690425-.2127349-2.0577395-1.6259817-4.1627444-3.0713604-6.9525372-3.1799438-1.9902172-.0781136-3.8121916.3096844-5.56608107 1.2525876-1.60365256.8631276-2.61817381 2.1013113-2.57822316 3.8879522.03826258 1.757279 1.43766044 2.543401 2.89107608 3.1539059 2.27662395.9567531 4.63652525 1.6819354 6.99755195 2.4043477 2.1500198.6575946 4.2201383 1.4991163 6.2047287 2.5555889 6.0314217 3.2120756 5.1677 10.5143124 2.2096644 13.726942-3.0615696 3.324537-6.9930505 4.3610657-11.3144721 4.29514-3.3817375-.0520757-6.54571585-1.0298807-9.45536054-2.7611219-.89354395-.5318373-1.73700893-1.1345862-2.3424581-1.9700139-.59757159-.8260098-.67409676-1.7306872.00281342-2.5832888.65215204-.8215778 1.49280359-.9501052 2.40885495-.5096774 1.04884504.5041374 2.04142156 1.1284922 3.10996058 1.5822159 4.02882539 1.7129593 8.05708809 2.0675174 12.05158959-.1445933 1.5777691-.8736535 2.4966338-2.157265 2.5236427-3.9511078.0253209-1.7306872-1.1242448-2.7284361-2.5101382-3.4918442-1.8118461-.9983029-3.7497336-1.6863674-5.7416389-2.2658484-3.17860813-.9251753-6.46300109-1.6093618-9.1869597-3.6602593-4.14417581-3.1195581-4.3788155-9.3608902-.46871669-12.7989967 2.48931891-2.1888428 5.67974347-3.3007151 10.53515329-3.4425384zm146.0412022 20.5972961c0-4.5352657-.025489-9.0710875.020391-13.6069092.010196-.9413026-.277547-1.2565527-1.225739-1.1881651-.94536.0683876-1.90488.0533756-2.850806-.0205719-1.45684-.1145354-2.367648-1.1909451-2.309306-2.6215249.052677-1.3188243.921003-2.1522635 2.360284-2.2579029.270184-.0200159.543199-.0161239.814516-.0177919 3.19066-.0216839 3.182164-.0211279 3.192926-3.2225573.009629-2.77720397.222038-5.51326414 1.811987-7.94575006 1.583152-2.42192199 4.013672-3.34487665 6.769886-3.65011888.806586-.08951548 1.630732-.07116759 2.444681-.04225576 1.527076.05393169 2.548337.99912622 2.600448 2.35242239.055509 1.42891173-.770335 2.38411421-2.342159 2.58872102-.849634.11064336-1.718527.06227164-2.575525.13177124-1.911111.1551231-2.845708.9513105-3.30621 2.77942792-.506382 2.00714843-.446908 4.05432853-.461635 6.09928473-.005664.7105639.297939.9329626.977646.9168387 1.131713-.0272439 2.266258-.0361398 3.396272.0138999 1.504419.0672756 2.405598.9674344 2.424856 2.3362985.020958 1.3977759-.941961 2.4536138-2.407864 2.5464652-.992373.0628277-1.999472.1000795-2.986748.010008-1.179292-.1073074-1.421155.3764098-1.416623 1.4444796.03795 8.982128.026055 17.9648121.018692 26.9469401-.0017 1.7391579-.913074 2.7922158-2.376711 2.8094517-1.546901.0189039-2.565895-1.0675138-2.56986-2.7949958-.010762-4.5363777-.003965-9.0716435-.003399-13.6074653zm23.631894 13.3322253c-.444661 1.4572962-1.469389 2.2226548-2.736242 2.0452206-1.424637-.1996829-2.254862-1.2314708-2.255435-2.8717633-.005164-13.8148339-.002869-27.6302239-.002869-41.44505772 0-1.3327029-.014918-2.66540579.00459-3.99810869.021229-1.48510715.844569-2.4646104 2.171093-2.62980772 1.420046-.17687793 2.307073.42439579 2.81083 1.90672184-.258764.41215895-.136554.86825928-.137127 1.30266702-.006885 14.79711817-.007459 29.59423637.000573 44.39135457 0 .432739-.130242.890508.144587 1.2987734z" transform="translate(227 147)"/></g></g></svg>